<?xml version="1.0" encoding="utf-8"?>
<!-- Generator: Adobe Illustrator 25.4.0, SVG Export Plug-In . SVG Version: 6.00 Build 0)  -->
<svg version="1.1" id="Layer_1" xmlns="http://www.w3.org/2000/svg" xmlns:xlink="http://www.w3.org/1999/xlink" x="0px" y="0px"
	 viewBox="0 0 200 200" style="enable-background:new 0 0 200 200;" xml:space="preserve">
<path style="fill:#F1636E;" d="M120.4,48.2c-0.3,13.5-7.4,21.1-22,24.2c0.6,5.9,7.6,9.8,12.6,7c3.6-2,7.4-2,10.9,0.1
	c3.4,2.1,5.1,5.4,4.5,9.3c-0.4,2.7,0.3,3.7,2.8,4.7c3.9,1.5,5.9,4.8,5.8,9c0,4.1-1.9,7.2-5.6,8.7c-2.5,1-3.5,2-3.1,5
	c0.7,4.8-1.9,8.4-6.5,10.1c-2.2,0.8-2.7,1.7-2.4,3.9c0.6,5-1.4,8.8-6.2,10.7c-2,0.8-2.6,1.9-2.5,4.1c0.2,7-3.6,11.3-9.7,11.3
	c-6.2,0-11.3-5.1-10.1-11.5c0.4-2-0.2-3.1-2.2-3.8c-5.1-1.9-7.3-5.7-6.5-11c0.3-2.4-0.5-3.2-2.5-4c-4.4-1.8-6.4-5.2-5.9-9.9
	c0.3-2.5-0.3-3.8-2.9-4.8c-3.9-1.5-6-4.6-6-9c0-4.3,2.1-7.5,5.9-9c2.5-1,3.2-2.2,2.9-4.8c-0.5-4.2,1.1-7.6,5-9.5c3.9-1.9,8-2,11.2,1
	c2.8,2.5,4,0,5.9-0.9c2.5-1.2,1.5-3.1,0.8-4.7c-1.6-3.5-3.1-7-6.5-9.3c-2.1,1.1-2.8,3.3-4.2,4.9c-3.1,3.5-7.1,4.3-11.4,3.4
	c-4.2-0.8-7-5.2-6.7-9.8c0.3-4.2,3.2-6.9,8-7.4c3.9-0.5,7.4,1.4,11.4,1.8c1.7-5.3-2.5-9.1-3.3-13.5c1.7-1.4,2.7-0.5,3.4,0.7
	c2.2,3.6,3.7,7.5,3.5,11.8c-0.2,3.2,1.1,5.4,4.3,7.3C98.4,52.5,107.7,47.7,120.4,48.2z M116.8,52c-8.5-0.8-16.4,4.1-19.4,11.9
	c-1.6,4.2-0.7,5.4,3.9,4.9C108.9,68,114.6,62,116.8,52z M92.1,87.6c-0.1,3.6,3.2,7,7,7.1c3.6,0.1,6.9-2.8,7.1-6.3
	c0.3-3.7-2.9-7.2-6.7-7.4C95.9,80.7,92.3,84,92.1,87.6z M106.2,117c0-3.7-3.4-6.9-7.3-6.7c-3.6,0.1-6.8,3.2-6.8,6.7
	c-0.1,3.6,3.4,7.1,7,7.1C102.9,124.1,106.3,120.7,106.2,117z M114.6,131.6c-0.1-3.7-3.5-6.9-7.3-6.7c-3.6,0.2-6.6,3.3-6.6,6.8
	c0,3.8,3.1,6.9,7,6.9C111.6,138.6,114.7,135.5,114.6,131.6z M90.5,138.6c3.8-0.1,7-3.4,6.8-7.1c-0.2-3.5-3.4-6.5-6.9-6.6
	c-3.8-0.1-7,3.2-7,7C83.5,135.7,86.6,138.7,90.5,138.6z M81.7,124c3.6,0.1,7.2-3.2,7.3-6.8c0.1-3.4-3.1-6.7-6.7-6.9
	c-3.8-0.3-7.3,2.8-7.5,6.5C74.7,120.4,78,123.9,81.7,124z M82,94.7c3.8,0,7.1-3.4,7-7.1c-0.2-3.4-3.5-6.6-7-6.7
	c-3.7-0.1-7.2,3.2-7.2,6.9C74.8,91.5,78.2,94.7,82,94.7z M123.4,117c-0.1-3.8-3.3-6.8-7.2-6.7c-3.7,0.1-6.6,3.1-6.6,6.7
	c0,3.8,3.2,7.1,6.9,7.1C120.2,124.1,123.4,120.7,123.4,117z M132.1,102.3c-0.1-3.7-3.5-6.8-7.3-6.7c-3.8,0.1-7.1,3.6-6.8,7.2
	c0.2,3.4,3.5,6.4,7.1,6.4C128.9,109.3,132.2,106,132.1,102.3z M90.7,109.3c3.9-0.1,6.9-3.2,6.8-7c-0.1-3.9-3.3-6.7-7.3-6.6
	c-3.7,0.2-6.6,3.1-6.6,6.8C83.6,106.2,86.8,109.3,90.7,109.3z M80.3,102.7c0.1-3.8-3-6.9-6.9-7c-3.9,0-7.1,3.1-7.1,6.9
	c0,3.6,3,6.6,6.7,6.8C76.8,109.4,80.2,106.4,80.3,102.7z M116.2,81c-3.8,0.1-6.8,3.4-6.7,7.2c0.2,3.8,3.5,6.7,7.4,6.5
	c3.7-0.3,6.5-3.3,6.4-6.9C123.3,84,120,80.8,116.2,81z M98.8,153.2c3.8,0.1,7.2-3.1,7.3-6.8c0-3.4-3.1-6.6-6.7-6.8
	c-3.8-0.2-7.3,2.8-7.5,6.5C91.7,149.7,95,153.1,98.8,153.2z M108.4,95.7c-3.9-0.3-7.3,2.6-7.6,6.3c-0.3,3.6,2.9,7.1,6.7,7.2
	c3.8,0.2,7.2-2.9,7.4-6.6C115,99.2,112,96,108.4,95.7z M76.8,59.6c-5.1-0.1-7.7,1.7-7.7,4.9c0,3.2,3,6.3,6.4,6.3
	c3.6,0.1,10-4.9,9.1-7.7C83.4,59.4,79.3,60.4,76.8,59.6z"/>
<text transform="matrix(1 0 0 1 78.0117 176.8789)" style="fill:#FF636D; font-family:'NanumPen'; font-size:23px;">경성</text>
<text transform="matrix(1 0 0 1 106.3017 176.8789)" style="fill:#FF636D; font-family:'AppleGothic'; font-size:18px;">♡</text>
<circle style="fill:none;stroke:#F1636E;stroke-miterlimit:10;" cx="99" cy="110.3" r="75"/>
</svg>
