<?xml version="1.0" encoding="utf-8"?>
<!-- Generator: Adobe Illustrator 16.0.0, SVG Export Plug-In . SVG Version: 6.00 Build 0)  -->
<!DOCTYPE svg PUBLIC "-//W3C//DTD SVG 1.1//EN" "http://www.w3.org/Graphics/SVG/1.1/DTD/svg11.dtd">
<svg version="1.1" id="Layer_1" xmlns="http://www.w3.org/2000/svg" xmlns:xlink="http://www.w3.org/1999/xlink" x="0px" y="0px"
	 width="200px" height="200px" viewBox="0 0 200 200" enable-background="new 0 0 200 200" xml:space="preserve">
<path d="M121.432,48.22c-0.328,13.523-7.389,21.128-22.02,24.235c0.577,5.948,7.602,9.82,12.639,6.997
	c3.641-2.04,7.387-2.03,10.924,0.09c3.437,2.062,5.133,5.401,4.539,9.309c-0.412,2.704,0.266,3.698,2.762,4.676
	c3.895,1.525,5.85,4.757,5.822,9.042c-0.024,4.072-1.859,7.173-5.561,8.69c-2.521,1.035-3.467,1.997-3.055,5.015
	c0.658,4.828-1.941,8.383-6.461,10.062c-2.151,0.799-2.707,1.662-2.424,3.928c0.623,5.01-1.389,8.807-6.246,10.671
	c-2.035,0.78-2.576,1.877-2.514,4.094c0.194,6.955-3.633,11.33-9.685,11.325c-6.218-0.004-11.27-5.054-10.066-11.499
	c0.37-1.979-0.248-3.087-2.151-3.788c-5.084-1.875-7.288-5.724-6.523-10.957c0.35-2.396-0.51-3.168-2.465-3.965
	c-4.369-1.778-6.422-5.228-5.902-9.896c0.282-2.536-0.272-3.812-2.861-4.805c-3.861-1.484-5.983-4.647-5.977-8.956
	c0.007-4.287,2.072-7.464,5.938-8.979c2.538-0.994,3.19-2.25,2.903-4.812c-0.466-4.162,1.069-7.599,4.97-9.492
	c3.864-1.875,7.98-1.956,11.219,0.976c2.806,2.541,4.035-0.029,5.893-0.932c2.476-1.201,1.508-3.075,0.782-4.671
	c-1.573-3.457-3.119-6.985-6.453-9.31c-2.065,1.14-2.786,3.333-4.213,4.91c-3.148,3.477-7.061,4.285-11.371,3.438
	c-4.231-0.833-7.041-5.167-6.694-9.816c0.31-4.165,3.229-6.862,7.97-7.449c3.908-0.484,7.449,1.403,11.403,1.842
	c1.707-5.293-2.488-9.071-3.324-13.476c1.701-1.416,2.671-0.481,3.395,0.74c2.15,3.634,3.696,7.543,3.482,11.803
	c-0.164,3.244,1.123,5.363,4.35,7.334C99.379,52.492,108.736,47.655,121.432,48.22z M117.757,52.028
	c-8.467-0.829-16.409,4.133-19.417,11.894c-1.633,4.212-0.702,5.384,3.901,4.912C109.924,68.046,115.561,62.043,117.757,52.028z
	 M93.11,87.595c-0.145,3.64,3.175,7.005,6.972,7.067c3.646,0.06,6.863-2.799,7.128-6.334c0.272-3.65-2.899-7.164-6.659-7.376
	C96.878,80.745,93.253,83.981,93.11,87.595z M107.232,117.021c-0.047-3.703-3.441-6.853-7.268-6.739
	c-3.618,0.106-6.765,3.186-6.836,6.686c-0.073,3.601,3.371,7.062,7.041,7.076C103.857,124.06,107.279,120.657,107.232,117.021z
	 M115.562,131.602c-0.102-3.724-3.539-6.886-7.268-6.683c-3.615,0.196-6.595,3.271-6.611,6.821c-0.02,3.839,3.104,6.897,7.012,6.866
	C112.62,138.573,115.667,135.465,115.562,131.602z M91.549,138.628c3.848-0.103,6.965-3.394,6.768-7.146
	c-0.184-3.515-3.355-6.528-6.917-6.576c-3.804-0.051-7.029,3.161-6.987,6.96C84.455,135.713,87.642,138.732,91.549,138.628z
	 M82.731,124.037c3.631,0.127,7.214-3.233,7.292-6.839c0.074-3.407-3.056-6.656-6.65-6.904c-3.771-0.261-7.321,2.814-7.504,6.499
	C75.69,120.376,79.035,123.907,82.731,124.037z M83.043,94.676c3.791-0.044,7.143-3.445,6.977-7.079
	c-0.155-3.393-3.492-6.582-6.958-6.651c-3.717-0.074-7.163,3.22-7.201,6.883C75.823,91.495,79.206,94.721,83.043,94.676z
	 M124.366,116.986c-0.052-3.792-3.302-6.835-7.16-6.7c-3.67,0.129-6.621,3.107-6.647,6.716c-0.029,3.77,3.197,7.065,6.914,7.065
	C121.159,124.067,124.416,120.722,124.366,116.986z M133.141,102.346c-0.084-3.701-3.478-6.807-7.303-6.687
	c-3.789,0.12-7.061,3.563-6.829,7.188c0.22,3.436,3.531,6.44,7.083,6.431C129.943,109.266,133.227,106.037,133.141,102.346z
	 M91.653,109.283c3.915-0.061,6.94-3.178,6.82-7.028c-0.121-3.866-3.3-6.738-7.26-6.556c-3.712,0.171-6.565,3.089-6.598,6.751
	C84.58,106.244,87.771,109.342,91.653,109.283z M81.278,102.65c0.108-3.778-3.022-6.95-6.903-6.994
	c-3.857-0.043-7.081,3.092-7.056,6.863c0.024,3.58,2.999,6.594,6.666,6.752C77.823,109.438,81.171,106.396,81.278,102.65z
	 M117.23,80.975c-3.826,0.127-6.836,3.393-6.666,7.232c0.168,3.785,3.523,6.718,7.383,6.452c3.666-0.251,6.492-3.298,6.431-6.928
	C124.312,83.958,121.023,80.85,117.23,80.975z M99.831,153.207c3.767,0.104,7.235-3.129,7.261-6.768
	c0.025-3.436-3.104-6.628-6.684-6.823c-3.831-0.21-7.303,2.8-7.487,6.49C92.74,149.729,96.022,153.103,99.831,153.207z
	 M109.375,95.701c-3.867-0.271-7.316,2.617-7.574,6.344c-0.252,3.645,2.942,7.077,6.738,7.239c3.807,0.163,7.24-2.938,7.361-6.646
	C116.011,99.191,112.966,95.952,109.375,95.701z M77.803,59.643c-5.057-0.143-7.653,1.65-7.681,4.936
	c-0.027,3.228,3.035,6.252,6.413,6.336c3.582,0.088,10.02-4.938,9.141-7.654C84.44,59.443,80.324,60.373,77.803,59.643z"/>
<text transform="matrix(1 0 0 1 78.0117 176.8789)"><tspan x="0" y="0" font-family="'NanumPen'" font-size="23">경성</tspan><tspan x="28.29" y="0" font-family="'AppleGothic'" font-size="18">♡</tspan></text>
</svg>
