<?xml version="1.0" encoding="utf-8"?>
<!-- Generator: Adobe Illustrator 16.0.0, SVG Export Plug-In . SVG Version: 6.00 Build 0)  -->
<!DOCTYPE svg PUBLIC "-//W3C//DTD SVG 1.1//EN" "http://www.w3.org/Graphics/SVG/1.1/DTD/svg11.dtd">
<svg version="1.1" id="Layer_1" xmlns="http://www.w3.org/2000/svg" xmlns:xlink="http://www.w3.org/1999/xlink" x="0px" y="0px"
	 width="595px" height="842px" viewBox="10 -24 595 842" enable-background="new 10 -24 595 842" xml:space="preserve">
<g>
	<path fill="#693193" d="M143.848,224.052c1.84-1.651,3.681-3.302,5.521-4.953c0.728-0.367,1.493-0.677,2.179-1.11
		c22.771-14.375,52.42-9.053,68.079,13.045c3.126,4.412,5.423,9.41,7.991,13.941c3.594-7.312,8.675-13.908,15.692-18.92
		c2.269-1.62,4.497-3.297,6.743-4.947c1.09-0.271,2.18-0.541,3.27-0.811c5.938-1.468,11.877-2.935,17.815-4.401
		c4.425,0.399,8.85,0.8,13.737,1.241c-0.752-1.965-1.275-3.484-1.908-4.956c-9.309-21.666-2.896-47.274,17.904-61.696
		c7.289-5.055,15.534-7.26,24.118-8.596c1.317-0.015,2.637-0.029,3.956-0.044c2.448,0.235,4.898,0.451,7.346,0.709
		c7.497,0.789,14.131,3.979,20.652,7.469c7.521,5.696,13.904,12.373,17.812,21.099c1.283,2.865,2.257,5.868,3.623,9.473
		c8.577-16.161,21.494-25.727,39.119-28.207c12.874-1.812,24.881,1.211,35.448,8.792c12.729,9.131,19.889,21.597,21.093,37.355
		c1.199,15.703-4.374,28.917-15.469,40.647c23.655-0.332,41.483,8.753,50.982,30.001c9.363,20.947,4.539,40.206-10.951,57.201
		c35.483,0.848,54.312,29.895,51.329,55.923c-1.675,14.624-8.403,26.49-20.261,35.282c-11.728,8.695-25.062,10.926-39.981,8.906
		c0.916,1.742,1.461,2.846,2.064,3.916c10.025,17.746,10.37,35.729-0.422,52.983c-10.821,17.302-27.262,24.935-47.562,23.318
		c-5.526-0.439-10.907-2.7-16.355-4.125c-0.366-0.115-0.731-0.23-1.097-0.348c0.169,0.309,0.339,0.617,0.508,0.926
		c2.519,5.03,5.664,9.848,7.452,15.125c10.734,31.691-12.521,64.873-45.956,65.804c-4.106,0.114-8.229-0.332-12.728-0.537
		c8.847,14.802,11.093,30.209,4.854,46.386c-4.771,12.364-13.231,21.497-25.179,27.108c-14.735,6.923-29.742,6.856-44.265-0.424
		c-14.283-7.161-23.142-19.03-26.846-35.117c-19.411,30.781-53.593,31.372-74.041,16.786c-18.742-13.369-32.331-45.773-6.986-76.572
		c-23.278,0.573-41.316-8.341-51.036-29.578c-9.673-21.137-4.87-40.492,11.06-57.93c-20.888-2.619-36.527-12.521-44.209-32.271
		c-7.624-19.601-3.365-37.485,10.682-53.854c-17.544-0.856-31.542-7.344-41.662-21.066c-7.075-9.593-10.174-20.521-9.579-32.35
		c1.162-23.076,20.038-49.866,57.146-47.681c-1.808-4.732-4.034-9.368-5.344-14.249c-2.373-8.844-1.713-17.81,0.166-26.7
		c2.853-6.894,5.868-13.688,11.063-19.243c0.396-0.422,0.422-1.188,0.62-1.797l-0.054,0.029
		C142.608,224.709,143.228,224.381,143.848,224.052z M429.335,534.527c0.967-22.644-17.892-43.305-42.059-43.504
		c-24.186-0.199-43.393,18.628-43.604,42.582c-0.212,23.726,19.246,43.549,42.944,43.342
		C412.196,576.725,429.886,555.457,429.335,534.527z M259.62,476.128c23.9,0.069,43.613-19.253,43.316-42.956
		c-0.31-24.727-19.483-42.893-42.886-42.891c-25.686,0.002-42.996,20.665-43.047,42.692
		C216.949,456.655,236.104,476.06,259.62,476.128z M463.719,246.869c-23.729-0.51-42.945,19.729-42.938,42.677
		c0.007,20.714,15.479,42.838,42.703,43.035c25.016,0.182,43.007-18.611,43.161-42.536
		C506.833,261.126,482.395,245.869,463.719,246.869z M405.87,456.539c-0.209,21.542,16.344,43.221,43.117,43.096
		c25.684-0.121,42.594-20.146,42.747-42.495c0.186-27.058-22.241-43.192-42.396-43.385
		C426.442,413.537,405.979,431.996,405.87,456.539z M324.879,277.959c0.056,23.819,19.515,43.153,43.313,43.035
		c23.436-0.116,42.762-19.702,42.659-43.234c-0.101-23.514-19.529-42.787-43.1-42.754
		C344.224,235.039,324.824,254.474,324.879,277.959z M197.469,554.129c21.177,0.465,43.021-16.082,43.185-42.499
		c0.158-25.53-19.549-43.38-42.92-43.33c-26.568,0.057-42.707,21.861-42.957,42.312C154.483,534.599,174.212,554.33,197.469,554.129
		z M219.899,389.336c22.08,0.331,42.795-17.322,42.813-42.794c0.019-25.771-21.284-43.24-43.335-42.914
		c-23.765,0.353-42.576,19.39-42.528,43.169C176.898,370.862,197.14,389.921,219.899,389.336z M423.532,245.13
		c22.479,0.652,43.471-17.936,43.388-42.819c-0.076-23.021-17.485-42.895-42.785-42.965c-26.403-0.073-43.049,21.113-43.119,42.624
		C380.938,225.748,399.994,245.057,423.532,245.13z M328.799,235.13c23.591,0.101,43.112-19.161,43.198-42.602
		c0.084-23.006-17.827-42.836-42.494-43.322c-23.716-0.468-43.507,19.248-43.489,42.877
		C286.032,216.955,306.933,235.236,328.799,235.13z M336.333,521.979c0.122-23.658-18.979-43.003-42.604-43.102
		c-25.14-0.104-43.034,20.807-43.207,42.543c-0.176,22.145,17.39,42.965,42.38,43.384
		C316.759,565.203,336.211,545.821,336.333,521.979z M282.336,597.929c0.779-23.607-18.865-43.542-42.617-43.585
		c-25.588-0.047-43.051,20.576-43.087,42.646c-0.038,23.436,18.556,42.499,41.401,43.257
		C261.847,641.035,282.457,621.6,282.336,597.929z M178.801,303.13c20.434,0.748,42.934-16.019,43.061-42.618
		c0.11-23.036-17.089-43.136-43.095-43.132c-26.438,0.003-42.839,21.506-42.805,42.93C136,284.492,156.282,303.671,178.801,303.13z
		 M376.337,611.546c0.64-24.24-20.896-42.983-42.752-42.841c-22.308,0.146-42.901,18.432-42.925,42.86
		c-0.021,21.447,16.189,42.838,42.707,43.06C360.79,654.854,377.349,631.668,376.337,611.546z M273.104,309.335
		c23.736,0.037,42.982-19.004,43.014-42.656c0.035-26.108-21.85-43.27-42.603-43.091c-23.943,0.206-43.433,19.039-43.32,42.939
		C230.312,291.383,250.775,309.591,273.104,309.335z M165.226,466.337c21.517,0.848,43.379-16.2,43.424-42.638
		c0.045-26.292-21.145-42.952-42.715-43.046c-25.376-0.11-43.025,21.12-43.182,42.574
		C122.579,447.05,142.542,466.772,165.226,466.337z M457.006,376.642c-0.357,23.298,18.684,43.42,42.941,43.286
		c24.08-0.133,42.849-18.882,42.908-42.867c0.062-24.68-19.562-42.825-42.732-43.028
		C476.504,333.825,457.045,353.16,457.006,376.642z M313.617,397.994c23.896-0.197,43.012-18.549,43.097-42.64
		c0.088-24.899-19.315-43.125-42.979-43.296c-23.584-0.169-42.851,19.329-42.864,42.919
		C270.856,378.62,290.099,397.984,313.617,397.994z M407.206,322.006c-23.799-0.021-43.029,19.013-43.233,42.503
		c-0.193,22.43,17.331,43.325,42.893,43.342c24.445,0.017,42.938-19.042,42.988-42.771
		C449.91,339.043,428.6,321.889,407.206,322.006z M354.477,486.128c21.07,0.809,43.423-16.375,43.374-42.785
		c-0.043-23.646-17.785-42.91-42.747-42.959c-27.229-0.054-42.816,21.694-43.112,42.076
		C311.613,468.472,333.409,486.615,354.477,486.128z M129.64,380.327c7,0.138,14.567-1.783,21.188-6.213
		c10.556-7.062,19.108-15.613,18.55-29.73c-0.026-0.646,0.272-1.299,0.344-1.956c0.443-4.107,1.796-8.38,1.115-12.296
		c-1.938-11.147-6.664-20.813-17.36-26.438c-2.334-1.227-4.364-3.023-6.582-4.484c-1.233-0.812-2.503-1.637-3.868-2.169
		c-7.34-2.861-15.027-3.233-22.583-1.722c-21.254,4.255-37.042,23.294-34.354,47.231C88.585,364.778,107.612,380.504,129.64,380.327
		z"/>
	<path fill="#8B5F3C" d="M271.14,215.896c-5.938,1.467-11.877,2.934-17.815,4.401c-1.09,0.27-2.18,0.54-3.27,0.811
		c-3.373-4.436-6.609-8.983-10.153-13.277c-4.172-5.053-8.61-9.885-12.933-14.813c-4.594-4.726-8.877-9.808-13.837-14.111
		c-16.231-14.081-34.701-23.888-56.101-27.349c-8.008-1.295-16.158-1.713-24.24-2.558c-2.139-0.224-4.262-0.595-6.401-0.813
		c-3.996-0.409-6.764-2.413-8.249-6.161c0.618,0.179,1.351,0.2,1.834,0.559c4.304,3.192,5.55,3.272,9.21-0.334
		c2.335-2.301,4.556-4.784,6.444-7.458c4.543-6.434,9.218-12.829,11.69-20.451c0.933-2.878,0.201-4.311-2.53-5.278
		c-0.884-0.313-1.796-0.549-2.695-0.82c12.752-1.858,24.308,1.767,35.328,7.762c15.947,8.677,29.507,20.426,41.76,33.608
		c10.605,11.41,20.527,23.456,30.751,35.221c2.972,4.169,6.021,8.285,8.897,12.52C262.998,203.488,267.042,209.71,271.14,215.896z"
		/>
	<path fill="#8CC540" d="M226.968,193.017c4.323,4.929,8.761,9.761,12.933,14.813c3.544,4.294,6.781,8.842,10.153,13.277
		c-2.247,1.65-4.475,3.327-6.743,4.947c-7.018,5.012-12.099,11.608-15.692,18.92c-2.568-4.531-4.865-9.529-7.991-13.941
		c-15.659-22.098-45.309-27.42-68.079-13.045c-0.687,0.434-1.451,0.743-2.179,1.11c-4.789-1.262-9.684-2.228-14.336-3.875
		c-3.985-1.412-7.908-3.822-7.599-8.751c0.288-4.584,4.11-6.401,8.068-7.755c6.038-2.065,12.251-2.803,18.583-2.829
		c3.79-0.016,7.581-0.003,12.315-0.003c-3.357-3.323-6.302-5.915-8.848-8.853c-2.367-2.732-4.478-5.729-6.383-8.807
		c-1.503-2.429-1.403-5.15,0.477-7.448c1.705-2.083,4.201-2.046,6.461-1.434c8.615,2.333,17.341,4.399,25.726,7.403
		c12.932,4.632,25.611,9.97,38.416,14.96C223.764,192.298,225.393,192.588,226.968,193.017z"/>
	<path fill="#8CC540" d="M271.14,215.896c-4.098-6.186-8.142-12.407-12.312-18.544c-2.876-4.234-5.925-8.351-8.897-12.52
		c5.375-12.823,10.562-25.729,16.178-38.447c5.152-11.669,10.167-23.445,17.615-33.939c0.096-0.135,0.162-0.292,0.265-0.421
		c1.737-2.184,3.255-5.02,6.585-4.468c3.596,0.596,5.042,3.627,5.825,6.772c1.371,5.499,1.827,11.094,0.992,16.748
		c-0.167,1.134-0.218,2.284-0.394,4.204c4.594-4.173,8.636-7.948,12.794-11.592c4.131-3.62,8.508-6.896,13.788-8.731
		c3.083-1.071,6.144-1.819,8.86,0.785c2.736,2.623,3.15,5.826,1.633,9.132c-1.997,4.35-4.229,8.593-6.438,12.84
		c-0.757,1.456-1.756,2.786-2.644,4.174c-8.584,1.336-16.829,3.541-24.118,8.596c-20.799,14.422-27.213,40.03-17.904,61.696
		c0.633,1.472,1.155,2.991,1.908,4.956C279.99,216.695,275.565,216.295,271.14,215.896z"/>
	<path fill="#B47B4E" d="M142.093,108.241c0.899,0.271,1.811,0.507,2.695,0.82c2.73,0.968,3.463,2.4,2.53,5.278
		c-2.472,7.622-7.147,14.018-11.69,20.451c-1.888,2.674-4.109,5.157-6.444,7.458c-3.66,3.606-4.906,3.526-9.21,0.334
		c-0.483-0.358-1.216-0.38-1.834-0.559c-3.14-7.577-1.868-14.447,3.524-20.509C127.245,115.243,133.758,110.317,142.093,108.241z"/>
	<path fill="#8EC545" d="M356.945,150.022c-6.521-3.491-13.155-6.68-20.652-7.469c-2.446-0.258-4.896-0.474-7.346-0.709
		c5.343-3.493,11.254-5.574,17.508-6.499c2.209-0.326,4.688-0.067,6.823,0.615c4.398,1.406,6.336,5.397,5.158,9.86
		C358.06,147.254,357.449,148.624,356.945,150.022z"/>
	<path fill="#8EC545" d="M142.042,225.008c-0.198,0.607-0.225,1.375-0.62,1.797c-5.196,5.556-8.211,12.35-11.063,19.243
		c-5.25-4.198-5.812-8.718-1.323-13.425C132.599,228.887,136.759,225.924,142.042,225.008z"/>
	<path fill="#8EC545" d="M143.848,224.052c-0.62,0.329-1.24,0.657-1.86,0.985C142.608,224.709,143.228,224.381,143.848,224.052z"/>
</g>
</svg>
