<?xml version="1.0" encoding="utf-8"?>
<!-- Generator: Adobe Illustrator 16.0.0, SVG Export Plug-In . SVG Version: 6.00 Build 0)  -->
<!DOCTYPE svg PUBLIC "-//W3C//DTD SVG 1.1//EN" "http://www.w3.org/Graphics/SVG/1.1/DTD/svg11.dtd">
<svg version="1.1" id="Layer_1" xmlns="http://www.w3.org/2000/svg" xmlns:xlink="http://www.w3.org/1999/xlink" x="0px" y="0px"
	 width="117.333px" height="118px" viewBox="0 0 117.333 118" enable-background="new 0 0 117.333 118" xml:space="preserve">
<g>
	<path fill="#3D3D95" d="M58.641,4.373c30.104-0.006,54.402,24.32,54.65,54.11c0.253,30.505-24.396,55.328-54.997,55.144
		c-29.91-0.182-54.84-24.633-54.244-55.795C4.614,28.379,28.698,4.41,58.641,4.373z M58.723,12.373
		c-25.492-0.1-46.678,20.696-46.689,46.557c-0.014,25.961,20.98,46.263,45.777,46.689c26.368,0.453,47.023-20.967,47.483-45.673
		C105.782,33.764,84.429,12.291,58.723,12.373z"/>
	<path fill="none" d="M58.723,12.373c25.706-0.082,47.059,21.391,46.571,47.573c-0.46,24.706-21.115,46.126-47.483,45.673
		C33.014,105.191,12.02,84.891,12.034,58.93C12.045,33.069,33.231,12.273,58.723,12.373z M101.083,69.559
		c-0.174,0.083-0.389,0.128-0.516,0.257c-0.768,0.771-1.527,0.86-2.334,0.062c-0.104-0.103-0.293-0.119-0.44-0.174
		c-0.005,0.176-0.022,0.354-0.011,0.53c0.011,0.128,0.052,0.257,0.095,0.38c0.335,0.956,0.41,0.83-0.487,1.5
		c-0.332,0.248-0.636,0.53-0.951,0.797c0.428,0.041,0.857,0.104,1.287,0.117c0.834,0.023,0.834,0.012,1.113,0.766
		c0.104,0.275,0.184,0.561,0.307,0.826c0.06,0.131,0.188,0.229,0.283,0.344c0.057-0.116,0.145-0.229,0.163-0.351
		c0.196-1.265,0.87-1.868,2.187-1.628c0.106,0.02,0.23-0.056,0.347-0.086c-0.052-0.109-0.076-0.249-0.16-0.322
		c-0.192-0.174-0.418-0.312-0.626-0.471c-0.747-0.566-0.73-0.562-0.479-1.421c0.107-0.37,0.143-0.761,0.209-1.142
		c0.021-0.019,0.041-0.035,0.062-0.052C101.114,69.515,101.098,69.535,101.083,69.559z M85.282,80.26
		c-0.014-0.098-0.028-0.193-0.039-0.293c-0.067-0.67,0.178-0.92,0.816-0.766c0.242,0.059,0.457,0.238,0.687,0.359
		c0.347,0.184,0.687,0.387,1.047,0.538c0.381,0.161,0.765,0.02,0.96-0.288c0.15-0.238,0.15-0.596,0.145-0.896
		c-0.004-0.182-0.135-0.367-0.233-0.537c-1.167-2.008-2.793-3.448-5.063-4.09c-0.816-0.229-0.937-0.49-0.599-1.277
		c0.013-0.029,0.026-0.06,0.04-0.09c0.945-2.059,1.486-4.133,0.326-6.308c-0.165-0.31-0.049-0.567,0.359-0.62
		c0.812-0.104,1.627-0.205,2.435-0.346c1.272-0.223,1.771-0.916,1.598-2.215c-0.057-0.418-0.146-0.84-0.28-1.24
		c-0.348-1.021-0.688-2.051-1.104-3.045c-0.479-1.145-0.959-2.302-1.582-3.37c-0.688-1.18-2.05-1.542-3.089-0.295
		c-0.715,0.854-1.458,1.687-2.221,2.5c-0.684,0.731-1.229,0.735-1.91,0.003c-0.354-0.381-0.631-0.835-0.93-1.266
		c-0.629-0.908-1.469-1.534-2.565-1.655c-1.327-0.146-2.55-0.547-3.74-1.129c-0.703-0.345-1.472-0.627-2.274-0.437
		c-1.687,0.403-3.386,0.778-5.037,1.301c-2.844,0.904-4.736,2.729-5.152,5.813c-0.114,0.841-0.168,1.688-0.271,2.535
		c-0.02,0.166-0.139,0.319-0.213,0.479c-0.123-0.09-0.267-0.164-0.369-0.273c-0.397-0.432-0.723-0.956-1.187-1.295
		c-1.056-0.771-2.185-1.442-3.265-2.182c-0.281-0.192-0.565-0.442-0.735-0.731c-1.644-2.81-3.854-5.058-6.662-6.687
		c-2.796-1.621-5.786-2.285-8.976-1.39c-2.617,0.735-5.02,1.933-7.073,3.731c-2.748,2.408-4.21,5.472-4.453,9.113
		c-0.147,2.25,0.123,4.447,0.774,6.607c0.099,0.32,0.158,0.729,0.047,1.025c-0.508,1.354-0.285,2.666,0.209,3.936
		c0.781,2.005,2.203,3.218,4.441,3.297c0.098,0.002,0.196,0.004,0.295,0.004c0.506-0.005,0.791,0.168,1.01,0.705
		c0.433,1.062,1.024,2.074,1.938,2.811c2.554,2.053,5.326,3.695,8.577,4.404c1.305,0.283,2.545,0.135,3.716-0.488
		c2.302-1.223,3.871-3.077,4.771-5.522c0.484-1.312,0.606-2.678,0.686-4.053c0.066-1.179,0.135-2.357,0.137-3.535
		c0.002-1.149,0.518-2.302-0.002-3.449c-0.025-0.055-0.002-0.131,0.002-0.194c0.153-1.906,0.159-1.883,2.039-2.308
		c1.189-0.271,2.519-0.303,3.209-1.596c0.014-0.025,0.043-0.058,0.071-0.062c0.12-0.022,0.242-0.035,0.364-0.053
		c-0.002,0.114,0.047,0.279-0.01,0.335c-0.314,0.302-0.33,0.591-0.104,0.961c0.415,0.681,0.354,1.22-0.229,1.786
		c-0.252,0.246-0.594,0.403-0.908,0.583c-0.426,0.245-0.861,0.472-1.293,0.705c-0.463,0.254-0.559,0.619-0.521,1.149
		c0.048,0.67,0.021,1.377-0.147,2.021c-0.237,0.903-0.113,1.716,0.396,2.434c0.46,0.646,0.907,1.252,1.002,2.078
		c0.038,0.332,0.267,0.67,0.478,0.952c0.816,1.093,1.791,2.019,3.066,2.548c0.495,0.203,0.771,0.541,1.036,0.971
		c0.308,0.494,0.615,1.052,1.067,1.382c1.484,1.079,3.01,2.104,4.562,3.08c2.066,1.295,4.236,1.184,6.395,0.239
		c1.426-0.621,2.671-1.555,3.805-2.6c0.562-0.518,1.012-0.58,1.645-0.229c0.752,0.418,1.58,0.692,2.444,0.602
		c1.17-0.121,2.331-0.328,3.491-0.525c0.77-0.129,1.288-0.621,1.648-1.281C85.176,81.897,85.323,81.099,85.282,80.26z M67.76,36.442
		L67.76,36.442c-0.014,0.229-0.062,0.462-0.031,0.685c0.021,0.168,0.146,0.32,0.224,0.479c0.146-0.11,0.337-0.194,0.429-0.339
		c0.155-0.247,0.303-0.521,0.357-0.803c0.354-1.797,0.689-3.599,1-5.402c0.031-0.18-0.096-0.494-0.239-0.572
		c-0.429-0.228-0.896-0.384-1.36-0.527c-0.119-0.039-0.285,0.07-0.429,0.112c0.069,0.14,0.104,0.349,0.218,0.405
		c0.77,0.395,0.686,1.011,0.516,1.689c-0.149,0.603-0.271,1.213-0.361,1.828c-0.059,0.39-0.168,0.629-0.615,0.504
		c-0.363-0.102-0.824-0.08-0.705-0.695c0.148-0.771,0.23-1.555,0.404-2.32c0.15-0.67,0.15-0.809-0.424-1.089
		c-0.35-0.171-0.729-0.29-1.107-0.39c-0.139-0.037-0.311,0.045-0.467,0.072c0.059,0.142,0.086,0.307,0.18,0.418
		c0.122,0.147,0.295,0.258,0.448,0.379c0.351,0.279,0.325,0.66,0.133,0.965c-0.071,0.115-0.45,0.068-0.685,0.041
		c-0.484-0.055-0.965-0.15-1.446-0.225c-0.866-0.133-1.735-0.253-2.603-0.398c-0.514-0.088-1.021-0.227-1.536-0.311
		c-0.142-0.023-0.302,0.066-0.453,0.104c0.087,0.16,0.132,0.377,0.267,0.469c0.481,0.333,0.975,0.643,1.616,0.621
		c0.285-0.01,0.817,0.133,0.826,0.236c0.04,0.539-0.485,0.402-0.789,0.484c-0.858,0.235-1.149,0.559-1.249,1.396
		c-0.102,0.854,0.232,1.467,0.939,1.9c0.223,0.137,0.47,0.231,0.701,0.354c0.84,0.448,0.993,1.071,0.422,1.805
		c-0.611,0.785-1.352,1.427-2.254,1.865c-0.175,0.086-0.369,0.144-0.521,0.258c-0.083,0.062-0.161,0.242-0.128,0.319
		c0.035,0.082,0.23,0.179,0.312,0.15c0.67-0.248,1.332-0.517,1.989-0.795c0.429-0.181,0.707-0.886,1.216-0.613
		c0.391,0.209,0.611,0.748,0.877,1.16c0.064,0.103,0.031,0.293-0.007,0.428c-0.046,0.162-0.146,0.31-0.221,0.464
		c0.214,0.003,0.468,0.082,0.634-0.007c0.662-0.349,1.311-0.727,1.938-1.135c0.615-0.402,0.627-0.426,1.053,0.201
		c0.352,0.514,0.66,1.057,1.037,1.551c0.113,0.15,0.383,0.184,0.58,0.269c0.078-0.205,0.275-0.459,0.213-0.606
		c-0.194-0.47-0.458-0.918-0.748-1.338c-0.162-0.234-0.43-0.396-0.648-0.588c-0.322-0.281-0.404-0.55-0.066-0.904
		c0.67-0.705,0.629-1.08-0.422-1.772c-0.234-0.155-0.68-0.224-0.713-0.396c-0.057-0.279,0.146-0.611,0.239-0.918
		c0.038-0.125,0.089-0.25,0.115-0.377c0.085-0.371,0.321-0.441,0.665-0.381c0.663,0.117,0.738,0.2,0.705,0.896
		C67.778,36.181,67.768,36.312,67.76,36.442z M82.804,43.264c0.019,0.096,0.044,0.191,0.05,0.29c0.008,0.146,0.002,0.293,0.004,0.44
		c-0.119-0.046-0.242-0.085-0.356-0.138c-0.119-0.056-0.228-0.134-0.349-0.179c-0.084-0.03-0.248-0.051-0.265-0.021
		c-0.05,0.102-0.108,0.276-0.06,0.34c0.461,0.575-0.008,0.986-0.254,1.411c-0.422,0.729-0.534,0.734-1.196,0.238
		c-0.653-0.491-1.306-0.988-1.97-1.463c-0.114-0.081-0.297-0.066-0.448-0.095c0.008,0.182-0.052,0.412,0.036,0.539
		c0.52,0.75,0.992,1.541,1.979,1.811c0.398,0.109,0.768,0.365,1.113,0.607c1.745,1.222,3.477,2.461,5.213,3.692
		c0.213,0.151,0.419,0.343,0.659,0.415c0.179,0.053,0.405-0.058,0.612-0.095c-0.043-0.179-0.025-0.423-0.139-0.527
		c-0.429-0.399-0.891-0.764-1.357-1.12c-0.324-0.248-0.678-0.461-1.018-0.688c0.262-0.33,0.53-0.654,0.781-0.992
		c0.209-0.283,0.623-0.675,0.551-0.858c-0.264-0.647,0.111-0.619,0.521-0.677c1.524-0.218,2.963-2.259,1.526-3.804
		c-0.256-0.273-0.451-0.561-0.279-1.049c0.158-0.447-0.299-0.75-0.668-0.973c-0.354-0.213-0.531-0.058-0.637,0.311
		c-0.02,0.066-0.293,0.109-0.434,0.08c-0.286-0.06-0.566-0.159-0.841-0.27c-0.861-0.345-1.531-0.013-2.104,0.6
		C82.905,41.697,82.661,42.424,82.804,43.264z M72.625,34.153c-1.695-0.376-2.716,1.528-2.538,2.64
		c0.326,2.058,2.727,3.514,4.834,2.389c0.99-0.528,0.967-0.572,2.102-0.227c0.063,0.02,0.131,0.025,0.191,0.043
		c0.58,0.176,0.623,0.25,0.41,0.818c-0.092,0.244-0.229,0.471-0.336,0.709c-0.653,1.462-1.307,2.924-1.951,4.391
		c-0.077,0.176-0.159,0.373-0.157,0.559c0.003,0.291,0.201,0.445,0.454,0.264c0.232-0.167,0.439-0.4,0.584-0.648
		c0.411-0.707,0.814-1.42,1.166-2.157c1.154-2.418,2.273-4.851,3.43-7.269c0.17-0.354,0.174-0.625-0.131-0.865
		c-0.335-0.26-0.673-0.521-1.039-0.729c-0.176-0.099-0.422-0.071-0.637-0.101c0.062,0.193,0.068,0.443,0.197,0.57
		c0.479,0.469,0.496,0.938,0.171,1.5c-0.263,0.451-0.472,0.936-0.679,1.416c-0.449,1.043-0.234,1.271-1.688,0.615
		c-0.09-0.04-0.174-0.095-0.267-0.126c-0.432-0.146-0.627-0.423-0.584-0.894c0.062-0.682-0.312-1.18-0.764-1.631
		c-0.269-0.27-0.551-0.449-0.41-0.974c0.123-0.46-1.018-1.098-1.156-0.763C73.541,34.371,73.063,34.133,72.625,34.153z
		 M53.977,29.39c-0.26,0-0.399-0.03-0.521,0.006c-0.226,0.069-0.438,0.178-0.657,0.271c0.161,0.131,0.307,0.334,0.489,0.381
		c0.709,0.183,0.843,0.711,0.94,1.328c0.226,1.42,0.471,2.84,0.758,4.248c0.09,0.438,0.031,0.715-0.41,0.814
		c-0.7,0.156-1.403,0.314-2.113,0.411c-0.939,0.127-1.889,0.182-2.828,0.3c-0.163,0.021-0.305,0.201-0.458,0.309
		c0.138,0.115,0.257,0.285,0.415,0.34c0.499,0.174,0.99,0.203,1.534,0.06c1.04-0.274,2.106-0.455,3.168-0.636
		c0.187-0.032,0.489,0.056,0.591,0.195c0.362,0.506,0.081,1.115-0.547,1.193c-1.329,0.166-2.664,0.294-3.995,0.448
		c-0.257,0.028-0.517,0.084-0.76,0.165c-0.104,0.035-0.179,0.167-0.267,0.254c0.086,0.081,0.17,0.229,0.26,0.232
		c0.533,0.031,0.697,0.309,0.753,0.821c0.122,1.154,0.342,1.337,1.534,1.208c1.267-0.138,2.523-0.363,3.785-0.556
		c0.422-0.064,0.848-0.115,1.258-0.222c0.267-0.07,0.674-0.16,0.541-0.533c-0.065-0.187-0.453-0.368-0.688-0.359
		c-0.447,0.016-0.934,0.084-1.326,0.283c-1.062,0.535-2.232,0.445-3.346,0.673c-0.287,0.06-0.471-0.047-0.572-0.375
		c-0.246-0.794-0.138-0.976,0.686-1.084c1.232-0.161,2.464-0.343,3.691-0.534c0.381-0.059,0.645-0.175,0.274-0.633
		c-0.158-0.198-0.151-0.538-0.195-0.816c-0.081-0.525,0.333-1.14-0.288-1.576c-0.041-0.028,0.006-0.185,0.01-0.28
		c0.016-0.425,0.074-0.854,0.031-1.276c-0.053-0.529,0.206-0.703,0.662-0.759c0.486-0.06,0.982-0.094,1.448-0.231
		c0.185-0.055,0.297-0.353,0.442-0.541c-0.183-0.111-0.354-0.297-0.547-0.324c-0.603-0.084-1.164,0.043-1.677,0.41
		c-0.272,0.195-0.487,0.123-0.54-0.256c-0.117-0.875-0.291-1.746-0.354-2.625c-0.033-0.462-0.194-0.662-0.623-0.695
		C54.307,29.408,54.079,29.396,53.977,29.39z M34.676,34.191c-0.605,0.249-1.117,0.448-1.619,0.674
		c-0.098,0.044-0.148,0.188-0.222,0.286c0.125,0.082,0.271,0.253,0.375,0.231c1.006-0.217,1.376,0.465,1.789,1.166
		c0.748,1.27,1.511,2.531,2.325,3.759c0.486,0.735,0.546,0.81-0.196,1.25c-1.153,0.685-2.342,1.312-3.51,1.97
		c-0.28,0.159-0.554,0.339-0.796,0.548c-0.036,0.031,0.133,0.402,0.16,0.396c0.815-0.173,1.069,0.463,1.426,0.958
		c0.382,0.531,0.744,1.08,1.16,1.585c0.304,0.368,0.697,0.358,0.756-0.009c0.104-0.643,0.602-0.813,1.029-1.074
		c0.924-0.562,1.871-1.084,2.791-1.649c0.528-0.323,0.508-0.409,0.016-0.745c-0.151-0.104-0.311-0.25-0.379-0.414
		c-0.284-0.688-0.524-1.396-0.805-2.086c-0.062-0.147-0.229-0.365-0.336-0.357c-0.434,0.027-0.451-0.266-0.537-0.551
		c-0.111-0.375-0.217-0.764-0.404-1.101c-0.239-0.427-0.092-0.671,0.269-0.883c0.449-0.267,0.919-0.508,1.337-0.819
		c0.139-0.103,0.145-0.385,0.211-0.585c-0.201-0.058-0.427-0.202-0.604-0.157c-0.58,0.143-1.092,0.412-1.424,0.959
		c-0.202,0.332-0.439,0.342-0.651-0.029c-0.519-0.909-1.039-1.819-1.583-2.715C35.123,34.578,34.897,34.418,34.676,34.191z
		 M49.878,31.933c0.622-0.037,0.72,0.086,0.539,0.506c-0.155,0.358-0.351,0.702-0.554,1.038c-0.803,1.333-1.851,2.449-3.053,3.43
		c-0.111,0.09-0.16,0.254-0.238,0.385c0.177,0.023,0.377,0.114,0.521,0.059c0.271-0.106,0.533-0.268,0.749-0.459
		c0.684-0.606,1.363-1.219,2.008-1.867c0.518-0.521,0.588-0.564,1.254-0.213c0.231,0.122,0.455,0.261,0.686,0.387
		c0.429,0.234,0.848,0.495,1.297,0.68c0.164,0.066,0.404-0.053,0.609-0.088c-0.043-0.207-0.02-0.475-0.142-0.615
		c-0.385-0.439-0.784-0.881-1.454-0.898c-0.252-0.007-0.509-0.118-0.75-0.212c-0.326-0.128-0.457-0.329-0.232-0.676
		c0.303-0.468,0.607-0.938,0.846-1.438c0.128-0.271,0.121-0.605,0.175-0.912c-0.284-0.037-0.567-0.091-0.854-0.104
		c-0.157-0.007-0.321,0.044-0.479,0.085c-0.566,0.146-1.125,0.343-1.699,0.443c-0.738,0.129-1.492,0.172-2.236,0.278
		c-0.139,0.021-0.262,0.16-0.391,0.245c0.099,0.123,0.174,0.32,0.295,0.354c0.558,0.156,1.104,0.338,1.703,0.047
		C48.969,32.149,49.528,32.043,49.878,31.933z M35.6,41.539c0.025,0,0.1,0.021,0.155-0.002c0.224-0.094,0.44-0.199,0.659-0.299
		c-0.141-0.193-0.237-0.471-0.426-0.568c-0.547-0.283-1.108-0.603-1.76-0.205c-0.149,0.094-0.383,0.086-0.574,0.076
		c-0.508-0.028-0.602-0.172-0.502-0.695c0.078-0.417,0.191-0.833,0.218-1.254c0.021-0.332-0.071-0.672-0.113-1.008
		c-0.358,0.103-0.718,0.203-1.073,0.312c-0.057,0.018-0.092,0.094-0.146,0.129c-1.011,0.66-2.021,1.321-3.032,1.977
		c-0.161,0.104-0.359,0.16-0.501,0.285c-0.075,0.065-0.086,0.235-0.071,0.353c0.004,0.048,0.148,0.112,0.231,0.114
		c0.637,0.012,1.22-0.101,1.713-0.575c0.375-0.361,0.813-0.659,1.246-0.953c0.29-0.198,0.503-0.119,0.497,0.271
		c-0.004,0.229-0.018,0.461-0.057,0.687c-0.254,1.467-0.773,2.835-1.516,4.125c-0.148,0.26-0.211,0.569-0.312,0.856
		c0.554,0.195,0.697-0.332,0.856-0.597c0.544-0.89,1.017-1.826,1.468-2.769c0.211-0.442,0.396-0.68,0.955-0.543
		C34.182,41.42,34.878,41.447,35.6,41.539z M56.114,18.856c0.166-0.092,0.258-0.13,0.334-0.187c0.345-0.25,0.69-0.498,1.022-0.762
		c0.298-0.236,0.569-0.252,0.878-0.014c0.36,0.279,0.736,0.542,1.117,0.796c0.087,0.06,0.219,0.054,0.33,0.076
		c-0.014-0.091-0.014-0.185-0.041-0.271c-0.145-0.434-0.279-0.871-0.449-1.295c-0.13-0.324-0.066-0.57,0.196-0.779
		c0.181-0.142,0.374-0.267,0.543-0.42c0.235-0.215,0.457-0.451,0.685-0.679c-0.297-0.039-0.596-0.087-0.895-0.114
		c-0.195-0.017-0.395-0.018-0.589,0c-0.414,0.037-0.667-0.111-0.816-0.523c-0.172-0.466-0.42-0.904-0.633-1.355
		c-0.174,0.454-0.385,0.898-0.515,1.364c-0.112,0.414-0.301,0.589-0.748,0.569c-0.477-0.022-0.955,0.046-1.434,0.074
		c0.356,0.348,0.691,0.724,1.08,1.033c0.371,0.293,0.436,0.588,0.256,1.016c-0.15,0.357-0.225,0.748-0.32,1.128
		C56.093,18.604,56.114,18.707,56.114,18.856z M30.36,87.621c-0.193-0.115-0.295-0.211-0.41-0.235
		c-0.35-0.073-0.705-0.138-1.062-0.175c-0.561-0.058-0.793-0.332-0.746-0.905c0.026-0.354-0.045-0.72-0.092-1.075
		c-0.013-0.085-0.128-0.23-0.158-0.225c-0.104,0.031-0.205,0.106-0.283,0.188c-0.066,0.068-0.104,0.166-0.149,0.253
		c-0.702,1.264-0.702,1.264-2.142,0.979c-0.03-0.007-0.062-0.021-0.095-0.021c-0.161,0.001-0.319,0.007-0.481,0.011
		c0.062,0.17,0.117,0.344,0.186,0.511c0.023,0.059,0.08,0.104,0.123,0.151c0.889,1.041,0.889,1.041,0.303,2.213
		c-0.031,0.06-0.082,0.108-0.099,0.17c-0.04,0.146-0.065,0.3-0.097,0.449c0.146-0.029,0.32-0.02,0.438-0.096
		c0.989-0.631,1.81-0.525,2.466,0.498c0.074,0.117,0.26,0.162,0.396,0.24c0.037-0.143,0.109-0.287,0.104-0.428
		c-0.021-0.358-0.061-0.719-0.129-1.071c-0.059-0.312,0.049-0.501,0.325-0.627c0.417-0.188,0.831-0.384,1.244-0.582
		C30.102,87.795,30.194,87.726,30.36,87.621z M99.225,47.012c0.239,0.152,0.449,0.303,0.678,0.426
		c0.354,0.193,0.722,0.368,1.084,0.55c-0.084-0.373-0.125-0.761-0.262-1.112c-0.199-0.522-0.197-0.93,0.319-1.277
		c0.335-0.227,0.604-0.545,0.905-0.822c-0.413-0.066-0.825-0.134-1.238-0.197c-0.062-0.011-0.131-0.007-0.195-0.003
		c-0.392,0.023-0.58-0.175-0.699-0.54c-0.15-0.461-0.371-0.899-0.562-1.348c-0.204,0.452-0.451,0.891-0.599,1.359
		c-0.133,0.428-0.36,0.568-0.782,0.535c-0.358-0.028-0.722-0.014-1.082,0c-0.118,0.004-0.233,0.063-0.351,0.098
		c0.072,0.128,0.14,0.26,0.221,0.382c0.035,0.052,0.101,0.085,0.15,0.125c0.363,0.274,0.928,0.489,1.035,0.843
		c0.12,0.399-0.177,0.921-0.281,1.393c-0.056,0.244-0.09,0.492-0.133,0.74c0.213-0.119,0.437-0.225,0.641-0.358
		C98.458,47.553,98.829,47.285,99.225,47.012z M86.856,92.392c-0.115-0.043-0.221-0.127-0.311-0.111
		c-1.366,0.242-2.184-0.239-2.312-1.692c-0.006-0.084-0.174-0.154-0.269-0.23c-0.062,0.102-0.142,0.199-0.179,0.309
		c-0.102,0.312-0.199,0.623-0.276,0.939c-0.116,0.473-0.351,0.734-0.89,0.676c-0.422-0.045-0.854-0.012-1.278-0.002
		c-0.081,0.002-0.214,0.051-0.229,0.104c-0.02,0.068,0.033,0.193,0.096,0.242c0.281,0.224,0.562,0.455,0.874,0.633
		c0.499,0.279,0.702,0.628,0.493,1.205c-0.141,0.39-0.187,0.81-0.274,1.216c0.406-0.224,0.849-0.4,1.209-0.683
		c0.384-0.297,0.687-0.301,1.046-0.004c0.278,0.229,0.579,0.432,0.879,0.633c0.071,0.047,0.2,0.076,0.266,0.043
		c0.056-0.028,0.082-0.164,0.074-0.248c-0.012-0.129-0.059-0.254-0.096-0.381c-0.387-1.308-0.386-1.307,0.652-2.102
		c0.129-0.1,0.256-0.203,0.376-0.314C86.753,92.58,86.78,92.515,86.856,92.392z M68.672,20.065c0.053-0.151,0.116-0.246,0.111-0.337
		c-0.014-0.393-0.012-0.79-0.08-1.174c-0.088-0.5,0.054-0.782,0.556-0.959c0.414-0.146,0.782-0.422,1.17-0.641
		c-0.435-0.166-0.858-0.406-1.31-0.478c-0.477-0.075-0.686-0.288-0.749-0.731c-0.063-0.44-0.151-0.879-0.229-1.316
		c-0.291,0.359-0.615,0.697-0.859,1.088c-0.219,0.348-0.432,0.515-0.869,0.415c-0.48-0.108-0.984-0.123-1.479-0.179
		c0.289,0.385,0.553,0.793,0.875,1.146c0.295,0.323,0.328,0.612,0.08,0.96c-0.113,0.159-0.212,0.331-0.301,0.505
		c-0.143,0.282-0.27,0.571-0.402,0.857c0.299-0.088,0.61-0.15,0.897-0.27c1.131-0.472,1.127-0.478,1.978,0.459
		C68.237,19.604,68.417,19.793,68.672,20.065z M79.371,97.521c-0.177-0.063-0.31-0.151-0.45-0.16
		c-1.246-0.076-1.918-0.651-1.756-1.978c0.004-0.03,0.005-0.069-0.01-0.096c-0.061-0.104-0.125-0.209-0.188-0.312
		c-0.099,0.079-0.222,0.139-0.284,0.238c-0.197,0.303-0.393,0.606-0.545,0.933c-0.201,0.433-0.496,0.556-0.951,0.421
		c-0.437-0.131-0.888-0.221-1.334-0.32c-0.058-0.014-0.177,0.004-0.18,0.022c-0.016,0.081-0.018,0.177,0.018,0.247
		c0.041,0.087,0.11,0.169,0.188,0.223c1.097,0.754,1.229,1.641,0.401,2.686c-0.074,0.095-0.032,0.277-0.043,0.42
		c0.123-0.016,0.271,0.007,0.365-0.053c1.032-0.664,1.914-0.623,2.604,0.5c0.067,0.111,0.255,0.148,0.387,0.22
		c0.013-0.13,0.042-0.261,0.035-0.388c-0.026-0.517-0.271-1.162-0.047-1.514c0.257-0.406,0.923-0.553,1.409-0.812
		c0.059-0.03,0.119-0.056,0.174-0.092C79.215,97.67,79.257,97.623,79.371,97.521z M98.102,78.17c-0.146-0.033-0.259-0.1-0.336-0.071
		c-0.308,0.112-0.602,0.258-0.902,0.383c-0.805,0.334-0.856,0.317-1.426-0.324c-0.238-0.271-0.483-0.532-0.742-0.782
		c-0.026-0.023-0.238,0.069-0.237,0.104c0.007,0.193,0.055,0.386,0.086,0.578c0.22,1.345,0.217,1.338-1.015,1.918
		c-0.276,0.131-0.525,0.318-0.787,0.48c0.304,0.096,0.603,0.217,0.912,0.28c1.07,0.22,1.07,0.211,1.25,1.31
		c0.041,0.258,0.082,0.517,0.141,0.771c0.02,0.083,0.098,0.151,0.146,0.228c0.063-0.058,0.146-0.104,0.189-0.174
		c0.223-0.363,0.458-0.722,0.643-1.103c0.174-0.357,0.416-0.478,0.789-0.39c0.19,0.045,0.385,0.092,0.58,0.107
		c0.299,0.025,0.604,0.021,0.904,0.033c-0.182-0.258-0.339-0.539-0.547-0.771c-0.705-0.791-0.713-0.785-0.15-1.729
		C97.75,78.764,97.901,78.51,98.102,78.17z M57,102.801c1.439,0.005,1.23-0.27,1.742,1.119c0.057,0.152,0.113,0.309,0.188,0.451
		c0.037,0.073,0.118,0.183,0.168,0.176c0.08-0.01,0.178-0.086,0.221-0.157c0.063-0.109,0.09-0.242,0.129-0.365
		c0.408-1.289,0.408-1.289,1.717-1.373c0.064-0.006,0.133,0.008,0.195-0.005c0.148-0.03,0.295-0.071,0.441-0.109
		c-0.087-0.125-0.148-0.281-0.263-0.369c-1.177-0.933-1.179-0.931-0.771-2.359c0.019-0.062,0.063-0.121,0.067-0.184
		c0.009-0.127-0.003-0.254-0.006-0.382c-0.113,0.033-0.244,0.041-0.336,0.104c-0.323,0.222-0.655,0.439-0.942,0.703
		c-0.359,0.33-0.674,0.334-1.02,0c-0.116-0.112-0.264-0.193-0.402-0.278c-0.294-0.181-0.589-0.354-0.883-0.531
		c0.062,0.343,0.125,0.683,0.191,1.021c0.012,0.063,0.045,0.122,0.067,0.185c0.312,0.827,0.312,0.827-0.37,1.376
		c-0.127,0.104-0.275,0.183-0.393,0.294c-0.204,0.198-0.391,0.417-0.584,0.627C56.44,102.763,56.719,102.781,57,102.801z
		 M40.44,99.863c0.029,0.312,0.062,0.627,0.092,0.941c0.244-0.188,0.492-0.373,0.73-0.566c0.102-0.082,0.199-0.176,0.273-0.281
		c0.305-0.438,0.688-0.401,1.128-0.235c0.403,0.151,0.825,0.252,1.239,0.375c-0.195-0.404-0.361-0.828-0.599-1.207
		c-0.255-0.408-0.196-0.718,0.13-1.043c0.277-0.277,0.522-0.587,0.77-0.894c0.052-0.063,0.051-0.172,0.072-0.261
		c-0.088-0.022-0.183-0.079-0.263-0.063c-0.383,0.08-0.766,0.178-1.146,0.275c-0.432,0.111-0.752,0.047-0.961-0.414
		c-0.188-0.415-0.451-0.797-0.688-1.188c-0.04-0.066-0.114-0.109-0.173-0.163c-0.027,0.058-0.07,0.114-0.083,0.175
		c-0.04,0.191-0.084,0.383-0.101,0.577c-0.131,1.663,0.142,1.257-1.504,1.771c-0.205,0.063-0.408,0.141-0.611,0.211
		c0.195,0.146,0.391,0.295,0.593,0.435c0.079,0.055,0.175,0.087,0.265,0.127C40.52,98.852,40.52,98.852,40.44,99.863z
		 M20.041,70.451c-0.021-0.084-0.028-0.193-0.054-0.195c-0.082-0.014-0.19-0.02-0.254,0.024c-0.295,0.207-0.58,0.429-0.863,0.649
		c-0.627,0.492-0.622,0.492-1.25,0.062c-0.297-0.202-0.6-0.399-0.908-0.583c-0.066-0.039-0.219-0.055-0.252-0.016
		c-0.051,0.059-0.059,0.186-0.033,0.27c0.115,0.375,0.246,0.744,0.375,1.113c0.137,0.389,0.034,0.676-0.292,0.943
		c-0.36,0.295-0.667,0.652-0.998,0.982c0.447,0.028,0.896,0.1,1.341,0.074c0.479-0.025,0.725,0.152,0.834,0.609
		c0.084,0.35,0.221,0.686,0.348,1.021c0.031,0.081,0.158,0.205,0.178,0.195c0.102-0.056,0.25-0.142,0.259-0.228
		c0.134-1.362,0.906-1.814,2.192-1.6c0.121,0.021,0.27-0.107,0.404-0.167c-0.076-0.101-0.137-0.219-0.23-0.296
		c-0.176-0.145-0.372-0.266-0.561-0.396c-0.862-0.599-0.863-0.599-0.545-1.556C19.835,71.051,19.942,70.742,20.041,70.451z
		 M14.8,57.299c0.065,0.213,0.12,0.381,0.172,0.549c0.13-0.09,0.271-0.164,0.38-0.271c0.256-0.251,0.51-0.508,0.741-0.783
		c0.254-0.299,0.522-0.312,0.871-0.17c0.488,0.199,0.995,0.353,1.494,0.525c-0.246-0.456-0.468-0.93-0.746-1.363
		c-0.26-0.404-0.224-0.713,0.122-1.035c0.262-0.244,0.501-0.517,0.723-0.799c0.082-0.104,0.082-0.275,0.122-0.414
		c-0.124,0.006-0.263-0.021-0.368,0.026c-1.195,0.522-2.041,0.229-2.517-1.026c-0.044-0.117-0.231-0.178-0.353-0.266
		c-0.033,0.124-0.099,0.25-0.095,0.373c0.044,1.197-0.362,1.992-1.713,2.012c-0.114,0.001-0.226,0.182-0.336,0.28
		c0.095,0.079,0.177,0.201,0.285,0.229C14.739,55.463,15.403,56.039,14.8,57.299z M94.258,40.047
		c0.003,0.014,0.035,0.131,0.066,0.248c0.111-0.049,0.248-0.071,0.326-0.152c0.25-0.258,0.51-0.516,0.707-0.811
		c0.295-0.44,0.644-0.5,1.094-0.278c0.352,0.172,0.712,0.329,1.074,0.476c0.074,0.029,0.211,0.008,0.261-0.045
		c0.042-0.044,0.028-0.184-0.011-0.254c-0.17-0.316-0.342-0.633-0.541-0.93c-0.306-0.452-0.256-0.842,0.119-1.228
		c0.25-0.257,0.473-0.54,0.697-0.819c0.059-0.072,0.078-0.178,0.116-0.269c-0.095-0.006-0.192-0.03-0.281-0.013
		c-0.385,0.07-0.78,0.115-1.146,0.244c-0.475,0.168-0.742-0.014-0.959-0.406c-0.172-0.314-0.362-0.62-0.557-0.921
		c-0.048-0.075-0.14-0.122-0.211-0.183c-0.066,0.099-0.197,0.199-0.191,0.293c0.099,1.393-0.646,1.967-1.936,2.041
		c-0.117,0.008-0.232,0.088-0.35,0.133c0.113,0.094,0.216,0.209,0.345,0.275c0.487,0.256,1.21,0.376,1.413,0.771
		C94.528,38.666,94.295,39.353,94.258,40.047z M27.746,28.69c0,0-0.037-0.214-0.074-0.428c-0.176,0.116-0.36,0.22-0.524,0.351
		c-0.125,0.102-0.227,0.236-0.334,0.358c-0.609,0.677-0.604,0.667-1.453,0.341c-0.323-0.125-0.67-0.195-1.006-0.291
		c0.119,0.314,0.232,0.629,0.359,0.939c0.062,0.149,0.137,0.302,0.232,0.431c0.244,0.323,0.182,0.583-0.096,0.854
		c-0.281,0.274-0.533,0.577-0.785,0.877c-0.056,0.064-0.101,0.194-0.069,0.256c0.028,0.059,0.165,0.105,0.245,0.094
		c0.322-0.051,0.647-0.102,0.957-0.197c0.572-0.176,0.943,0.029,1.197,0.542c0.146,0.292,0.312,0.575,0.485,0.851
		c0.045,0.073,0.188,0.172,0.217,0.153c0.093-0.059,0.202-0.164,0.212-0.26c0.049-0.455,0.079-0.913,0.088-1.37
		c0.004-0.316,0.125-0.463,0.448-0.509c0.484-0.068,0.962-0.183,1.438-0.293c0.08-0.019,0.184-0.113,0.197-0.187
		c0.012-0.062-0.074-0.173-0.146-0.216c-0.107-0.065-0.246-0.085-0.365-0.138C27.664,30.279,27.665,30.279,27.746,28.69z
		 M85.509,22.043c-0.157,0.029-0.293,0.019-0.385,0.076c-0.468,0.297-0.935,0.866-1.384,0.852c-0.5-0.016-0.98-0.564-1.478-0.87
		c-0.099-0.062-0.229-0.07-0.346-0.103c0.013,0.121-0.011,0.26,0.043,0.36c0.606,1.149,0.394,2.03-0.817,2.608
		c-0.104,0.05-0.17,0.176-0.252,0.266c0.133,0.057,0.279,0.186,0.396,0.162c1.297-0.256,1.955,0.316,2.134,1.575
		c0.026,0.188,0.146,0.362,0.22,0.544c0.12-0.188,0.26-0.366,0.356-0.566c0.069-0.144,0.067-0.32,0.125-0.473
		c0.382-1.059,0.12-0.921,1.253-0.963c0.359-0.014,0.855,0.211,1.021-0.271c0.043-0.118-0.42-0.415-0.651-0.627
		c-0.072-0.065-0.144-0.145-0.229-0.186c-0.537-0.255-0.545-0.659-0.365-1.15C85.288,22.912,85.373,22.528,85.509,22.043z
		 M98.955,52.824c-0.054,0.012-0.202,0.047-0.351,0.08c0.064,0.139,0.109,0.294,0.201,0.414c0.139,0.182,0.312,0.335,0.467,0.505
		c0.564,0.624,0.565,0.626,0.181,1.323c-0.189,0.343-0.396,0.677-0.581,1.021c-0.039,0.07-0.021,0.172-0.029,0.26
		c0.09-0.006,0.188,0.013,0.264-0.021c0.36-0.153,0.732-0.291,1.063-0.495c0.401-0.248,0.715-0.238,1.028,0.135
		c0.25,0.301,0.533,0.578,0.815,0.849c0.085,0.08,0.224,0.104,0.335,0.155c0.025-0.118,0.1-0.25,0.069-0.351
		c-0.369-1.228-0.091-2.093,1.276-2.395c0.105-0.023,0.185-0.171,0.273-0.261c-0.121-0.076-0.238-0.209-0.363-0.217
		c-1.119-0.076-1.842-0.498-1.647-1.783c0.01-0.06-0.021-0.129-0.048-0.188c-0.049-0.116-0.109-0.229-0.166-0.342
		c-0.111,0.094-0.275,0.167-0.326,0.286c-0.443,1.041-1.105,1.567-2.264,1.043C99.125,52.832,99.087,52.836,98.955,52.824z
		 M69.274,98.285c-0.051-0.105-0.103-0.21-0.15-0.312c-0.107,0.055-0.232,0.089-0.316,0.168c-0.146,0.133-0.26,0.295-0.392,0.44
		c-0.751,0.832-0.751,0.83-1.771,0.402c-0.24-0.102-0.479-0.209-0.728-0.291c-0.108-0.036-0.235-0.018-0.354-0.021
		c0.039,0.117,0.045,0.263,0.119,0.349c0.856,0.985,1.018,1.919-0.177,2.771c-0.026,0.019-0.052,0.045-0.063,0.072
		c-0.041,0.086-0.074,0.174-0.11,0.26c0.11,0.039,0.228,0.123,0.327,0.106c0.547-0.089,1.191-0.435,1.603-0.248
		c0.454,0.207,0.685,0.896,1.028,1.362c0.062,0.084,0.206,0.104,0.312,0.154c0.033-0.086,0.106-0.177,0.096-0.254
		c-0.211-1.431,0.527-2.005,1.846-2.076c0.113-0.009,0.223-0.119,0.332-0.183c-0.1-0.083-0.188-0.21-0.301-0.239
		C69.286,100.392,68.696,99.662,69.274,98.285z M48.975,98.015c-0.041,0.075-0.111,0.143-0.107,0.205
		c0.027,0.391,0.057,0.782,0.113,1.169c0.112,0.761,0.121,0.761-0.588,1.111c-0.293,0.146-0.599,0.267-0.881,0.43
		c-0.121,0.07-0.195,0.22-0.293,0.333c0.112,0.047,0.221,0.108,0.338,0.135c0.383,0.084,0.764,0.179,1.151,0.22
		c0.396,0.042,0.575,0.227,0.601,0.622c0.021,0.356,0.078,0.713,0.146,1.063c0.027,0.144,0.124,0.273,0.189,0.41
		c0.101-0.112,0.215-0.217,0.299-0.34c0.276-0.4,0.457-0.986,0.834-1.164c0.365-0.172,0.926,0.086,1.401,0.131
		c0.177,0.017,0.359-0.034,0.539-0.057c-0.094-0.16-0.157-0.352-0.286-0.473c-0.727-0.668-1.035-1.367-0.303-2.237
		c0.131-0.155,0.148-0.405,0.221-0.612c-0.24,0.035-0.48,0.068-0.721,0.111c-0.062,0.01-0.122,0.045-0.182,0.071
		c-1.012,0.453-1.008,0.45-1.743-0.399c-0.173-0.197-0.357-0.383-0.54-0.57C49.123,98.127,49.069,98.09,48.975,98.015z
		 M31.248,22.512c0.015,0.168-0.009,0.312,0.042,0.427c0.474,1.056,0.456,1.948-0.756,2.498c-0.121,0.055-0.18,0.248-0.268,0.377
		c0.141,0.041,0.291,0.137,0.42,0.114c1.155-0.213,1.883,0.169,2.035,1.402c0.01,0.063,0.023,0.135,0.061,0.186
		c0.072,0.099,0.162,0.186,0.246,0.277c0.08-0.092,0.199-0.17,0.238-0.276c0.107-0.308,0.201-0.622,0.271-0.941
		c0.097-0.452,0.332-0.692,0.819-0.642c0.194,0.021,0.396,0.023,0.588-0.001c0.31-0.039,0.613-0.108,0.918-0.164
		c-0.221-0.218-0.418-0.472-0.668-0.646c-0.973-0.68-0.979-0.67-0.635-1.806c0.02-0.062,0.057-0.121,0.066-0.185
		c0.04-0.245,0.07-0.492,0.105-0.737c-0.215,0.126-0.444,0.235-0.646,0.383c-1.078,0.792-1.075,0.795-2.248,0.052
		c-0.11-0.07-0.213-0.154-0.325-0.222C31.459,22.574,31.393,22.562,31.248,22.512z M18.96,65.465
		c-0.177-0.197-0.284-0.317-0.394-0.44c-0.322-0.366-0.854-0.705-0.908-1.108c-0.053-0.39,0.396-0.841,0.604-1.273
		c0.123-0.256,0.207-0.529,0.31-0.795c-0.264,0.1-0.536,0.178-0.787,0.301c-1.208,0.596-1.202,0.596-2.174-0.352
		c-0.178-0.176-0.406-0.301-0.611-0.447c0.003,0.269-0.021,0.541,0.012,0.806c0.151,1.179,0.153,1.171-0.898,1.72
		c-0.268,0.138-0.504,0.334-0.754,0.504c0.277,0.093,0.551,0.203,0.834,0.271c1.219,0.291,1.148,0.092,1.24,1.335
		c0.018,0.228,0.068,0.453,0.118,0.677c0.019,0.09,0.074,0.17,0.113,0.254c0.075-0.059,0.173-0.102,0.222-0.178
		c0.176-0.275,0.366-0.547,0.494-0.846c0.221-0.512,0.566-0.66,1.098-0.52c0.375,0.1,0.767,0.154,1.152,0.211
		C18.716,65.595,18.815,65.521,18.96,65.465z M39.448,18.908c0.033,0.758,0.033,0.758-0.67,1.088
		c-0.237,0.11-0.483,0.207-0.707,0.34c-0.127,0.076-0.215,0.213-0.321,0.323c0.135,0.062,0.263,0.146,0.403,0.181
		c0.472,0.123,1.093,0.086,1.379,0.38c0.283,0.29,0.23,0.909,0.324,1.384c0.024,0.128,0.029,0.262,0.069,0.385
		c0.029,0.09,0.103,0.164,0.154,0.245c0.065-0.067,0.149-0.126,0.196-0.206c0.222-0.363,0.457-0.72,0.64-1.104
		c0.17-0.357,0.38-0.479,0.774-0.367c0.438,0.124,0.894,0.191,1.345,0.27c0.081,0.014,0.176-0.042,0.265-0.064
		c-0.023-0.09-0.023-0.203-0.078-0.264c-0.219-0.246-0.453-0.473-0.684-0.707c-0.617-0.627-0.608-0.623-0.197-1.386
		c0.198-0.366,0.357-0.756,0.534-1.135c-0.415,0.13-0.847,0.228-1.244,0.397c-0.751,0.319-0.731,0.326-1.331-0.254
		c-0.289-0.279-0.632-0.507-0.951-0.759c0.031,0.386,0.062,0.771,0.092,1.156C39.444,18.842,39.446,18.875,39.448,18.908z
		 M23.287,78.683c-0.069-0.228-0.13-0.425-0.188-0.622c-0.15,0.109-0.312,0.206-0.449,0.33c-0.144,0.132-0.265,0.288-0.395,0.436
		c-0.598,0.682-0.594,0.674-1.457,0.34c-0.378-0.146-0.773-0.246-1.161-0.367c0.193,0.369,0.371,0.748,0.583,1.106
		c0.448,0.765,0.447,0.754-0.115,1.433c-0.248,0.298-0.453,0.629-0.68,0.942c0.375-0.043,0.755-0.06,1.123-0.135
		c0.549-0.113,1.012-0.127,1.312,0.483c0.182,0.367,0.479,0.677,0.727,1.012c0.083-0.403,0.211-0.805,0.238-1.212
		c0.037-0.54,0.271-0.841,0.81-0.935c0.353-0.062,0.698-0.162,1.043-0.266c0.099-0.029,0.181-0.123,0.269-0.188
		c-0.074-0.061-0.145-0.127-0.225-0.179c-0.083-0.051-0.171-0.103-0.265-0.127C23.346,80.465,22.707,79.914,23.287,78.683z
		 M77.252,18.299c-0.061-0.299-0.12-0.598-0.182-0.896c-0.244,0.2-0.487,0.399-0.731,0.601c-0.024,0.021-0.048,0.045-0.065,0.072
		c-0.36,0.516-0.783,0.584-1.346,0.287c-0.352-0.186-0.771-0.238-1.162-0.35c0.178,0.375,0.312,0.779,0.543,1.119
		c0.312,0.459,0.291,0.81-0.104,1.207c-0.312,0.316-0.55,0.707-0.819,1.064c0.443-0.047,0.896-0.055,1.331-0.152
		c0.478-0.106,0.8-0.058,1.046,0.433c0.225,0.442,0.562,0.829,0.848,1.239c0.084-0.512,0.211-1.022,0.233-1.537
		c0.019-0.426,0.237-0.566,0.584-0.648c0.414-0.098,0.83-0.193,1.238-0.312c0.11-0.032,0.196-0.149,0.295-0.228
		c-0.085-0.047-0.168-0.099-0.255-0.142c-0.205-0.103-0.412-0.202-0.62-0.298C77.131,19.316,77.131,19.316,77.252,18.299z
		 M102.45,60.982c-0.022-0.104-0.055-0.253-0.088-0.4c-0.137,0.073-0.297,0.123-0.406,0.226c-0.165,0.155-0.291,0.352-0.443,0.522
		c-0.555,0.623-0.558,0.625-1.316,0.328c-0.273-0.105-0.535-0.244-0.812-0.343c-0.109-0.038-0.244-0.009-0.367-0.01
		c0.012,0.114-0.007,0.243,0.041,0.339c0.115,0.234,0.262,0.453,0.393,0.68c0.447,0.768,0.445,0.805-0.137,1.44
		c-0.267,0.29-0.541,0.569-0.801,0.864c-0.046,0.053-0.031,0.158-0.045,0.238c0.062,0.008,0.127,0.03,0.186,0.021
		c0.129-0.022,0.254-0.069,0.381-0.097c0.509-0.104,1.104-0.41,1.503-0.246c0.397,0.164,0.596,0.807,0.892,1.231
		c0.088,0.123,0.211,0.224,0.315,0.332c0.087-0.155,0.267-0.328,0.243-0.47c-0.2-1.321,0.486-1.821,1.68-1.904
		c0.152-0.011,0.3-0.118,0.449-0.18c-0.123-0.104-0.231-0.258-0.372-0.297C102.583,62.937,101.94,62.322,102.45,60.982z
		 M19.092,36.734c-0.039,0.012-0.152,0.044-0.268,0.077c0.051,0.11,0.068,0.265,0.152,0.328c1.08,0.807,1.155,1.705,0.287,2.717
		c-0.068,0.079-0.046,0.233-0.066,0.354c0.117-0.006,0.248,0.018,0.35-0.024c0.361-0.147,0.729-0.295,1.07-0.485
		c0.359-0.199,0.621-0.1,0.859,0.184c0.125,0.15,0.225,0.33,0.369,0.457c0.241,0.207,0.51,0.38,0.768,0.568
		c0-0.314,0.054-0.643-0.012-0.943c-0.285-1.325-0.102-1.084,0.873-1.565c0.088-0.042,0.193-0.053,0.273-0.104
		c0.208-0.137,0.406-0.287,0.611-0.432c-0.231-0.084-0.457-0.201-0.694-0.248c-1.281-0.25-1.281-0.244-1.466-1.547
		c-0.02-0.129-0.035-0.261-0.08-0.382C22.077,35.572,22,35.47,21.938,35.36c-0.106,0.101-0.271,0.181-0.313,0.304
		c-0.408,1.176-1.192,1.531-2.351,1.119C19.245,36.771,19.212,36.765,19.092,36.734z M89.259,89.582
		c0.046,0.217,0.076,0.361,0.106,0.504c0.132-0.086,0.277-0.158,0.393-0.267c0.189-0.179,0.387-0.362,0.532-0.575
		c0.366-0.539,0.817-0.578,1.362-0.309c0.264,0.131,0.541,0.236,0.824,0.311c0.053,0.015,0.219-0.162,0.225-0.256
		c0.007-0.113-0.1-0.232-0.162-0.35c-0.641-1.195-0.643-1.195,0.244-2.223c0.043-0.049,0.095-0.095,0.127-0.149
		c0.074-0.131,0.142-0.269,0.212-0.403c-0.156,0.002-0.331-0.043-0.466,0.012c-1.164,0.473-1.914,0.086-2.329-1.07
		c-0.05-0.139-0.19-0.24-0.289-0.36c-0.093,0.153-0.237,0.298-0.269,0.463c-0.094,0.507,0.03,1.2-0.26,1.488
		c-0.339,0.336-1.027,0.315-1.562,0.467C87.815,86.901,87.7,87,87.575,87.069c0.123,0.097,0.232,0.239,0.369,0.277
		C89.163,87.672,89.874,88.279,89.259,89.582z M47.758,19.836c0.012,0.058,0.033,0.185,0.059,0.311
		c0.123-0.08,0.265-0.141,0.367-0.241c0.397-0.385,0.733-1.01,1.188-1.11c0.45-0.1,1.015,0.332,1.534,0.516
		c0.138,0.048,0.297,0.039,0.445,0.056c-0.049-0.146-0.056-0.331-0.15-0.436c-0.869-0.941-0.834-1.808,0.16-2.636
		c0.108-0.09,0.136-0.278,0.199-0.42c-0.156-0.009-0.336-0.074-0.463-0.018c-1.137,0.507-1.924,0.221-2.357-0.972
		c-0.037-0.104-0.18-0.169-0.273-0.253c-0.076,0.123-0.193,0.236-0.222,0.367c-0.106,0.508-0.019,1.172-0.312,1.489
		c-0.304,0.324-0.97,0.31-1.477,0.443c-0.062,0.017-0.174,0.021-0.182,0.052c-0.023,0.096-0.053,0.241-0.002,0.296
		c0.082,0.089,0.227,0.121,0.344,0.181c1.293,0.658,1.293,0.658,1.162,2.106C47.776,19.635,47.77,19.699,47.758,19.836z
		 M20.764,45.49c-0.162-0.076-0.257-0.154-0.354-0.16c-0.295-0.016-0.588,0.002-0.883,0.002c-0.908-0.006-0.908-0.008-1.224-0.902
		c-0.097-0.276-0.188-0.557-0.304-0.825c-0.03-0.07-0.148-0.149-0.219-0.144c-0.065,0.009-0.149,0.112-0.176,0.19
		c-0.121,0.372-0.23,0.749-0.332,1.125c-0.119,0.446-0.389,0.638-0.859,0.613c-0.354-0.019-0.715,0.034-1.069,0.069
		c-0.092,0.01-0.178,0.073-0.268,0.113c0.055,0.073,0.097,0.162,0.165,0.217c0.43,0.347,1.109,0.614,1.234,1.045
		c0.137,0.479-0.229,1.104-0.367,1.668c-0.021,0.084,0.015,0.181,0.023,0.271c0.086-0.014,0.188-0.003,0.258-0.046
		c0.276-0.171,0.547-0.356,0.815-0.542c0.668-0.463,0.667-0.465,1.354,0.002c0.27,0.186,0.531,0.378,0.807,0.555
		c0.072,0.047,0.175,0.045,0.265,0.066c0.013-0.092,0.045-0.188,0.033-0.276c-0.013-0.094-0.073-0.181-0.103-0.274
		c-0.144-0.465-0.496-1.006-0.367-1.379c0.146-0.418,0.729-0.686,1.123-1.018C20.444,45.76,20.565,45.658,20.764,45.49z
		 M92.463,31.929c0.189-0.035,0.314-0.058,0.441-0.082c-0.043-0.115-0.062-0.245-0.131-0.343c-0.092-0.133-0.222-0.24-0.332-0.36
		c-0.811-0.877-0.811-0.877-0.276-1.946c0.06-0.117,0.128-0.23,0.175-0.352c0.096-0.25,0.002-0.398-0.262-0.331
		c-0.315,0.081-0.637,0.182-0.92,0.336c-0.434,0.235-0.729,0.108-1.02-0.242c-0.25-0.302-0.533-0.577-0.814-0.853
		c-0.059-0.056-0.168-0.057-0.254-0.082c-0.021,0.086-0.066,0.175-0.061,0.259c0.036,0.423,0.072,0.848,0.137,1.267
		c0.051,0.352-0.104,0.562-0.396,0.708c-0.458,0.228-0.916,0.455-1.374,0.683c0.378,0.535,1.015,0.302,1.515,0.49
		c0.359,0.135,0.555,0.281,0.562,0.674c0.006,0.426,0.041,0.853,0.079,1.276c0.01,0.113,0.078,0.222,0.119,0.332
		c0.101-0.069,0.256-0.118,0.289-0.211C90.401,31.901,91.106,31.178,92.463,31.929z M32.257,95.689
		c0.05,0.18,0.082,0.298,0.115,0.417c0.118-0.043,0.272-0.051,0.353-0.133c0.825-0.854,1.643-0.896,2.471-0.011
		c0.021,0.023,0.051,0.045,0.082,0.054c0.115,0.028,0.231,0.051,0.349,0.073c0.011-0.123,0.073-0.278,0.021-0.366
		c-0.76-1.263-0.09-1.978,0.949-2.571c0.115-0.064,0.182-0.217,0.27-0.329c-0.129-0.016-0.258-0.038-0.387-0.047
		c-0.553-0.026-1.254,0.149-1.615-0.125c-0.396-0.303-0.476-1.021-0.705-1.552c-0.059-0.135-0.161-0.247-0.244-0.37
		c-0.076,0.131-0.17,0.257-0.223,0.397c-0.193,0.513-0.23,1.222-0.598,1.496c-0.373,0.279-1.064,0.133-1.615,0.176
		c-0.127,0.01-0.254,0.035-0.381,0.054c0.088,0.129,0.147,0.31,0.268,0.375C32.423,93.791,33.03,94.513,32.257,95.689z
		 M44.134,38.637c-0.063-0.428-0.19-1.038-0.235-1.654c-0.096-1.3-0.131-2.604-0.227-3.904c-0.023-0.347-0.107-0.725-0.287-1.014
		c-0.13-0.211-0.46-0.416-0.697-0.413c-0.361,0.005-0.562,0.334-0.521,0.701c0.068,0.61,0.141,1.228,0.292,1.821
		c0.256,1.011,0.597,1.998,0.858,3.007c0.153,0.597,0.209,1.22,0.338,1.823c0.037,0.168,0.184,0.312,0.279,0.467
		c0.073-0.184,0.148-0.367,0.221-0.553C44.165,38.893,44.151,38.856,44.134,38.637z M29.313,38.515
		c0.637-0.009,1.883-0.56,2.459-1.13c0.142-0.141,0.185-0.381,0.272-0.577c-0.237-0.031-0.496-0.136-0.706-0.075
		c-0.339,0.1-0.643,0.314-0.969,0.469c-0.473,0.227-0.957,0.428-1.42,0.67c-0.123,0.063-0.189,0.236-0.281,0.358
		c0.148,0.095,0.295,0.196,0.451,0.278C29.17,38.537,29.249,38.514,29.313,38.515z M45.315,41.793
		c0.021-0.446-0.377-0.888-0.83-0.916c-0.471-0.03-0.894,0.34-0.926,0.809c-0.035,0.518,0.367,0.973,0.866,0.98
		C44.842,42.674,45.294,42.23,45.315,41.793z M61.282,29.937c0.125,0.157,0.199,0.264,0.285,0.356
		c0.74,0.779,1.691,0.761,2.651,0.685c0.077-0.007,0.208-0.103,0.209-0.158c0.001-0.11-0.049-0.3-0.118-0.321
		c-0.898-0.268-1.806-0.517-2.716-0.75C61.52,29.729,61.407,29.857,61.282,29.937z"/>
	<path fill="#3D3D95" d="M85.282,80.26c0.041,0.839-0.104,1.638-0.508,2.378c-0.361,0.659-0.881,1.151-1.648,1.28
		c-1.16,0.197-2.321,0.402-3.491,0.525c-0.864,0.09-1.692-0.184-2.444-0.602c-0.633-0.353-1.08-0.291-1.645,0.229
		c-1.134,1.045-2.379,1.979-3.805,2.6c-2.157,0.941-4.327,1.056-6.395-0.239c-1.554-0.976-3.078-2.002-4.562-3.08
		c-0.452-0.33-0.76-0.888-1.067-1.381c-0.267-0.431-0.541-0.769-1.036-0.974c-1.275-0.526-2.25-1.453-3.066-2.546
		c-0.211-0.282-0.438-0.62-0.478-0.952c-0.095-0.828-0.541-1.434-1.002-2.078c-0.51-0.719-0.634-1.529-0.396-2.434
		c0.17-0.645,0.195-1.354,0.147-2.021c-0.038-0.53,0.058-0.896,0.521-1.149c0.432-0.235,0.869-0.461,1.293-0.705
		c0.314-0.18,0.656-0.337,0.908-0.584c0.584-0.567,0.646-1.104,0.229-1.785c-0.226-0.37-0.211-0.659,0.104-0.961
		c0.057-0.056,0.008-0.221,0.01-0.335c-0.122,0.016-0.244,0.029-0.364,0.053c-0.028,0.004-0.06,0.036-0.071,0.062
		c-0.691,1.293-2.02,1.325-3.209,1.595c-1.88,0.426-1.886,0.401-2.039,2.309c-0.004,0.063-0.027,0.141-0.002,0.193
		c0.52,1.148,0.006,2.301,0.002,3.45c-0.002,1.178-0.068,2.356-0.137,3.535c-0.078,1.375-0.199,2.739-0.686,4.053
		c-0.899,2.442-2.471,4.302-4.771,5.522c-1.171,0.623-2.411,0.771-3.716,0.488c-3.251-0.709-6.023-2.353-8.577-4.406
		c-0.913-0.733-1.506-1.746-1.938-2.809c-0.219-0.538-0.504-0.711-1.01-0.705c-0.099,0-0.197-0.002-0.295-0.005
		c-2.238-0.078-3.66-1.291-4.441-3.296c-0.494-1.27-0.715-2.581-0.209-3.936c0.111-0.297,0.052-0.705-0.047-1.027
		c-0.651-2.158-0.924-4.355-0.774-6.605c0.243-3.643,1.704-6.705,4.453-9.113c2.055-1.799,4.457-2.996,7.073-3.731
		c3.188-0.896,6.18-0.229,8.976,1.39c2.808,1.627,5.021,3.877,6.662,6.687c0.17,0.289,0.453,0.539,0.735,0.731
		c1.08,0.736,2.209,1.408,3.265,2.181c0.464,0.34,0.788,0.864,1.187,1.295c0.104,0.11,0.245,0.187,0.369,0.274
		c0.074-0.16,0.193-0.313,0.213-0.481c0.104-0.845,0.157-1.692,0.271-2.533c0.416-3.085,2.309-4.911,5.152-5.813
		c1.65-0.523,3.352-0.897,5.037-1.301c0.803-0.192,1.571,0.092,2.274,0.436c1.19,0.582,2.413,0.982,3.739,1.128
		c1.1,0.122,1.939,0.747,2.566,1.655c0.299,0.431,0.575,0.886,0.93,1.267c0.681,0.731,1.228,0.729,1.91-0.003
		c0.762-0.814,1.506-1.645,2.221-2.5c1.039-1.248,2.4-0.885,3.089,0.294c0.623,1.067,1.103,2.226,1.582,3.37
		c0.416,0.995,0.758,2.021,1.104,3.046c0.135,0.399,0.225,0.822,0.28,1.24c0.175,1.299-0.325,1.991-1.599,2.215
		c-0.807,0.14-1.62,0.239-2.434,0.346c-0.408,0.054-0.525,0.31-0.359,0.62c1.16,2.174,0.619,4.249-0.326,6.309
		c-0.014,0.029-0.027,0.06-0.04,0.09c-0.337,0.785-0.218,1.046,0.599,1.275c2.271,0.643,3.896,2.083,5.063,4.092
		c0.1,0.17,0.229,0.354,0.233,0.535c0.006,0.303,0.008,0.659-0.145,0.896c-0.196,0.308-0.579,0.449-0.96,0.289
		c-0.361-0.151-0.7-0.356-1.047-0.539c-0.229-0.121-0.443-0.301-0.687-0.358c-0.64-0.153-0.885,0.095-0.816,0.767
		C85.253,80.065,85.268,80.162,85.282,80.26z M49.86,74.068c0-0.789-0.041-1.579,0.014-2.363c0.039-0.557-0.217-0.854-0.656-1.078
		c-0.883-0.451-1.686-0.354-2.465,0.276c-0.174,0.142-0.665,0.177-0.771,0.054c-0.24-0.278-0.061-0.621,0.211-0.852
		c0.146-0.125,0.319-0.252,0.502-0.297c0.869-0.215,1.738-0.318,2.611,0.021c0.247,0.099,0.528,0.108,0.795,0.159
		c0.021-0.28,0.051-0.562,0.055-0.844c0.002-0.128-0.047-0.256-0.073-0.386c-0.173-0.829-0.53-1.104-1.374-1.004
		c-0.288,0.033-0.587,0.105-0.848,0.23c-1.397,0.67-2.682,0.536-3.99-0.316c-1.385-0.901-2.934-1.155-4.518-0.545
		c-2.859,1.104-4.99,3.047-6.449,5.744c-0.137,0.252-0.42,0.524-0.683,0.586c-0.358,0.082-0.562-0.233-0.657-0.586
		c-0.221-0.799-0.826-1.303-1.379-1.867c-0.836-0.85-1.688-0.752-2.593,0.062c-1.146,1.028-1.582,3.037-0.905,4.24
		c0.473,0.84,1.194,1.471,2.027,1.959c0.633,0.37,1.266,0.127,1.908-0.003c1.203-0.239,1.652,0.07,1.98,1.291
		c0.025,0.095,0.075,0.188,0.08,0.283c0.033,0.891,0.561,1.523,1.123,2.127c0.947,1.015,2.02,1.859,3.311,2.42
		c1.654,0.718,3.291,1.478,5.119,1.646c1.547,0.143,3.057-0.018,4.258-1.079c1.345-1.188,2.342-2.646,2.81-4.418
		C49.776,77.738,49.84,75.906,49.86,74.068z M79.608,76.189c0.013,0,0.023,0,0.035,0c0-0.361,0.021-0.723-0.002-1.084
		c-0.082-1.23-0.982-1.953-2.197-1.775c-0.16,0.023-0.318,0.103-0.479,0.104c-0.82,0.001-1.23-0.649-0.88-1.389
		c0.14-0.295,0.34-0.565,0.448-0.871c0.084-0.233,0.168-0.553,0.076-0.748c-0.485-1.032-0.928-2.075-2.377-2.143
		c-0.722-0.033-1.351,0.07-1.994,0.319c-1.067,0.413-2.135,0.829-3.213,1.21c-1.639,0.578-3.1,0.227-4.375-0.924
		c-0.597-0.536-1.393-0.703-2.203,0c-0.631,0.547-1.328,0.781-2.166,0.729c-0.803-0.048-1.146,0.317-1.109,1.118
		c0.021,0.488,0.126,0.974,0.17,1.463c0.195,2.152,0.35,4.312,0.592,6.457c0.07,0.634,0.322,1.265,0.59,1.853
		c0.504,1.109,1.471,1.824,2.387,2.57c1.119,0.909,2.252,1.805,3.598,2.373c0.768,0.325,1.555,0.526,2.393,0.354
		c1.689-0.351,3.271-0.931,4.574-2.126c0.264-0.243,0.559-0.469,0.875-0.635c1.045-0.545,1.537-1.463,1.771-2.557
		c0.073-0.35,0.086-0.713,0.108-1.07c0.047-0.701,0.127-0.775,0.807-0.826c0.488-0.034,0.982-0.062,1.46-0.163
		c0.849-0.181,1.083-0.492,1.112-1.355C79.616,76.779,79.608,76.484,79.608,76.189z M40.69,52.166
		c-0.578,0.094-1.174,0.129-1.729,0.295c-0.739,0.225-0.864,0.746-0.396,1.353c0.08,0.104,0.168,0.201,0.26,0.295
		c1.844,1.892,3.313,4.048,4.566,6.363c0.122,0.227,0.28,0.442,0.455,0.633c0.355,0.381,0.754,0.461,1.233,0.179
		c1.426-0.837,2.991-1.292,4.599-1.634c0.907-0.194,0.955-0.328,0.471-1.162c-0.049-0.084-0.097-0.171-0.151-0.252
		c-1.169-1.729-2.597-3.213-4.349-4.353C44.153,52.907,42.551,52.174,40.69,52.166z M32.553,65.424
		c0.031,0.496,0.074,1.442,0.159,2.384c0.058,0.637,0.293,0.772,0.799,0.429c1.568-1.062,3.112-2.166,4.671-3.245
		c0.411-0.282,0.5-0.594,0.312-1.084c-0.723-1.889-1.364-3.811-2.113-5.688c-0.385-0.966-0.904-1.882-1.418-2.79
		c-0.258-0.456-0.557-0.424-0.771,0.054c-0.252,0.563-0.48,1.147-0.648,1.742C32.829,59.756,32.591,62.354,32.553,65.424z
		 M83.927,64.972c0.368-0.043,0.892-0.084,1.406-0.168c1.325-0.216,1.662-0.74,1.339-2.054c-0.029-0.125-0.088-0.246-0.134-0.367
		c-0.435-1.129-0.853-2.262-1.306-3.381c-0.295-0.727-0.594-1.457-0.97-2.143c-0.454-0.828-1.276-1.015-1.862-0.427
		c-0.783,0.788-1.539,1.608-2.238,2.472c-0.547,0.674,0.104,2.318,0.958,2.48c0.215,0.041,0.512-0.086,0.7-0.228
		c0.443-0.332,0.836-0.731,1.269-1.081c0.222-0.179,0.472-0.404,0.774-0.129c0.285,0.26,0.328,0.762,0.082,1.059
		c-0.123,0.148-0.293,0.262-0.426,0.404c-0.418,0.458-0.834,0.918-1.242,1.385c-0.28,0.322-0.324,0.68-0.191,1.098
		C82.378,64.812,82.686,65.025,83.927,64.972z M45.888,65.433c0.548-0.119,1.479-0.285,2.392-0.525
		c1.769-0.465,3.473-1.174,5.31-1.366c0.293-0.031,0.591-0.051,0.874-0.123c0.232-0.062,0.448-0.194,0.672-0.295
		c-0.152-0.201-0.264-0.478-0.465-0.593c-0.82-0.463-1.648-0.928-2.52-1.286c-0.395-0.162-0.906-0.177-1.338-0.099
		c-3.4,0.612-6.654,1.683-9.729,3.271c-0.232,0.121-0.482,0.213-0.698,0.359c-0.144,0.098-0.239,0.264-0.356,0.4
		c0.168,0.016,0.336,0.053,0.502,0.047c0.677-0.023,1.354-0.109,2.029-0.08C43.541,65.186,44.516,65.309,45.888,65.433z
		 M25.813,67.7c0.195,0.679,0.346,1.351,0.59,1.985c0.197,0.513,0.468,0.537,0.906,0.205c0.668-0.506,0.729-1.217,0.627-1.955
		c-0.306-2.239,0.17-4.354,0.948-6.434c0.354-0.948,0.649-1.92,0.955-2.886c0.043-0.137-0.017-0.306-0.026-0.46
		c-0.146,0.035-0.354,0.021-0.433,0.114c-0.354,0.42-0.771,0.83-0.987,1.319c-0.666,1.492-1.33,2.996-1.839,4.547
		C26.182,65.278,26.052,66.498,25.813,67.7z M57.899,71.824c-0.097-0.156-0.146-0.35-0.263-0.404
		c-0.112-0.053-0.315-0.004-0.437,0.07c-0.248,0.152-0.479,0.336-0.696,0.533c-0.47,0.427-0.397,0.764,0.165,1.02
		c0.342,0.158,0.654,0.387,0.995,0.547c0.147,0.07,0.336,0.053,0.505,0.074c0.004-0.199,0.091-0.463-0.004-0.589
		C57.875,72.689,57.417,72.381,57.899,71.824z"/>
	<path fill="#3D3D95" d="M67.76,36.442c0.008-0.131,0.018-0.262,0.023-0.394c0.033-0.695-0.041-0.778-0.704-0.896
		c-0.345-0.062-0.58,0.009-0.664,0.381c-0.028,0.128-0.078,0.25-0.116,0.376c-0.094,0.31-0.296,0.641-0.24,0.92
		c0.035,0.17,0.479,0.24,0.713,0.396c1.051,0.694,1.092,1.067,0.422,1.772c-0.336,0.354-0.254,0.625,0.066,0.904
		c0.221,0.192,0.486,0.355,0.648,0.588c0.291,0.42,0.555,0.869,0.75,1.338c0.061,0.147-0.135,0.4-0.213,0.606
		c-0.198-0.086-0.469-0.117-0.582-0.267c-0.375-0.496-0.688-1.037-1.037-1.552c-0.426-0.626-0.436-0.604-1.053-0.202
		c-0.625,0.409-1.274,0.789-1.936,1.135c-0.167,0.089-0.421,0.009-0.635,0.007c0.074-0.154,0.175-0.302,0.22-0.464
		c0.038-0.135,0.072-0.326,0.008-0.428c-0.266-0.412-0.487-0.951-0.877-1.16c-0.509-0.272-0.786,0.433-1.216,0.615
		c-0.658,0.276-1.32,0.545-1.991,0.793c-0.079,0.028-0.274-0.067-0.312-0.15c-0.033-0.077,0.045-0.258,0.128-0.319
		c0.151-0.114,0.347-0.172,0.521-0.258c0.901-0.438,1.643-1.08,2.254-1.865c0.572-0.733,0.418-1.356-0.423-1.805
		c-0.229-0.123-0.479-0.218-0.7-0.354c-0.705-0.435-1.041-1.048-0.938-1.9c0.099-0.84,0.389-1.162,1.248-1.397
		c0.302-0.083,0.827,0.054,0.789-0.483c-0.009-0.104-0.541-0.248-0.827-0.236c-0.643,0.021-1.133-0.288-1.616-0.622
		c-0.133-0.092-0.179-0.31-0.265-0.468c0.15-0.038,0.312-0.125,0.451-0.104c0.517,0.084,1.022,0.223,1.537,0.309
		c0.865,0.146,1.734,0.267,2.604,0.399c0.48,0.075,0.961,0.171,1.445,0.226c0.232,0.027,0.611,0.072,0.685-0.041
		c0.192-0.305,0.218-0.686-0.133-0.965c-0.154-0.121-0.325-0.23-0.448-0.379c-0.093-0.111-0.121-0.277-0.179-0.418
		c0.155-0.027,0.325-0.109,0.466-0.072c0.377,0.101,0.758,0.219,1.107,0.39c0.574,0.281,0.574,0.419,0.424,1.09
		c-0.172,0.765-0.256,1.55-0.405,2.32c-0.118,0.614,0.343,0.594,0.706,0.694c0.447,0.125,0.559-0.114,0.615-0.504
		c0.091-0.613,0.212-1.226,0.361-1.828c0.17-0.679,0.254-1.295-0.516-1.689c-0.111-0.059-0.146-0.268-0.218-0.404
		c0.144-0.043,0.31-0.15,0.43-0.115c0.464,0.146,0.933,0.302,1.358,0.528c0.146,0.078,0.271,0.394,0.24,0.572
		c-0.311,1.805-0.646,3.606-1,5.403c-0.056,0.281-0.203,0.557-0.357,0.803c-0.092,0.145-0.282,0.229-0.43,0.339
		c-0.077-0.159-0.201-0.312-0.223-0.479C67.696,36.904,67.745,36.672,67.76,36.442C67.76,36.442,67.76,36.442,67.76,36.442z
		 M65.791,33.049c-0.027-0.034-0.12-0.279-0.265-0.315c-0.633-0.155-1.276-0.262-1.922-0.356c-0.135-0.02-0.402,0.076-0.41,0.141
		c-0.019,0.165,0.025,0.39,0.137,0.503c0.152,0.157,0.39,0.229,0.588,0.343c0.5,0.29,0.717,0.729,0.719,1.303
		c0.006,0.959-0.52,1.506-1.369,1.801c-0.383,0.133-0.451,0.25-0.105,0.562c0.669,0.605,0.654,0.635,0.109,1.321
		c-0.174,0.218-0.365,0.424-0.094,0.666c0.459,0.409,0.941,0.79,1.414,1.183c0.393-0.374,0.787-0.746,1.178-1.123
		c0.045-0.043,0.065-0.111,0.104-0.164c0.648-0.925,0.71-1.013-0.105-1.701c-0.509-0.429-0.508-0.848-0.429-1.367
		C65.473,34.975,65.618,34.105,65.791,33.049z M62.233,35.888c0.768,0.007,1.389-0.548,1.379-1.233
		c-0.012-0.705-0.7-1.361-1.428-1.357c-0.703,0.004-1.312,0.625-1.302,1.328C60.895,35.338,61.473,35.879,62.233,35.888z"/>
	<path fill="#3D3D95" d="M82.804,43.264c-0.146-0.84,0.101-1.566,0.673-2.174c0.573-0.612,1.244-0.945,2.104-0.6
		c0.272,0.11,0.555,0.21,0.842,0.27c0.14,0.029,0.413-0.014,0.433-0.079c0.105-0.368,0.283-0.524,0.637-0.312
		c0.369,0.223,0.826,0.526,0.669,0.973c-0.173,0.488,0.022,0.774,0.278,1.049c1.437,1.545-0.002,3.586-1.525,3.803
		c-0.408,0.059-0.784,0.029-0.521,0.678c0.074,0.184-0.341,0.575-0.55,0.858c-0.251,0.338-0.521,0.662-0.782,0.992
		c0.342,0.228,0.693,0.44,1.02,0.688c0.467,0.355,0.93,0.721,1.357,1.12c0.111,0.104,0.096,0.349,0.139,0.527
		c-0.206,0.037-0.434,0.147-0.613,0.094c-0.238-0.071-0.445-0.264-0.659-0.415c-1.737-1.23-3.468-2.471-5.212-3.693
		c-0.346-0.242-0.716-0.498-1.113-0.605c-0.986-0.271-1.461-1.061-1.979-1.811c-0.089-0.127-0.028-0.356-0.036-0.539
		c0.151,0.028,0.334,0.014,0.447,0.095c0.665,0.475,1.315,0.972,1.971,1.462c0.662,0.497,0.774,0.49,1.196-0.237
		c0.246-0.425,0.715-0.836,0.253-1.411c-0.05-0.062,0.01-0.238,0.06-0.34c0.018-0.031,0.18-0.009,0.264,0.021
		c0.123,0.044,0.229,0.125,0.35,0.178c0.116,0.054,0.236,0.092,0.357,0.139c-0.002-0.146,0.004-0.294-0.004-0.439
		C82.848,43.457,82.823,43.359,82.804,43.264z M87.905,43.443c0.029-1.083-0.992-2.104-2.131-2.13
		c-1.272-0.032-1.856,0.909-1.957,1.785c-0.117,1.028,1.098,2.213,2.188,2.218C86.962,45.32,87.878,44.42,87.905,43.443z
		 M85.307,46.522c-0.224-0.281-0.384-0.526-0.589-0.724c-0.187-0.18-0.435-0.291-0.636-0.457c-0.227-0.187-0.43-0.4-0.643-0.604
		c-0.203,0.256-0.428,0.496-0.604,0.768c-1.046,1.604-0.991,1.215,0.369,2.197c0.764,0.551,0.784,0.532,1.387-0.217
		C84.833,47.189,85.049,46.873,85.307,46.522z"/>
	<path fill="#3D3D95" d="M72.625,34.153c0.438-0.021,0.916,0.216,1.202-0.469c0.14-0.335,1.279,0.302,1.156,0.762
		c-0.141,0.524,0.142,0.704,0.41,0.974c0.45,0.451,0.825,0.949,0.764,1.631c-0.043,0.471,0.152,0.748,0.584,0.895
		c0.092,0.031,0.176,0.086,0.266,0.126c1.455,0.654,1.239,0.427,1.688-0.616c0.209-0.479,0.418-0.965,0.68-1.416
		c0.324-0.562,0.309-1.033-0.17-1.5c-0.129-0.127-0.137-0.377-0.198-0.57c0.214,0.029,0.46,0.002,0.636,0.101
		c0.366,0.207,0.705,0.47,1.041,0.729c0.305,0.238,0.301,0.511,0.131,0.865c-1.156,2.416-2.276,4.85-3.431,7.268
		c-0.353,0.738-0.756,1.451-1.166,2.158c-0.144,0.248-0.353,0.481-0.584,0.648c-0.253,0.182-0.452,0.027-0.455-0.263
		c-0.001-0.187,0.081-0.382,0.159-0.56c0.645-1.465,1.297-2.928,1.949-4.39c0.105-0.239,0.246-0.465,0.337-0.708
		c0.213-0.57,0.17-0.643-0.41-0.818c-0.062-0.019-0.129-0.024-0.19-0.043c-1.136-0.347-1.111-0.303-2.102,0.227
		c-2.109,1.125-4.508-0.332-4.835-2.389C69.909,35.682,70.928,33.777,72.625,34.153z M73.208,38.66
		c1.006-0.017,1.809-0.822,1.818-1.822c0.008-1.026-1.017-1.989-2.071-1.948c-0.909,0.034-1.759,0.958-1.771,1.927
		C71.171,37.83,72.102,38.679,73.208,38.66z"/>
	<path fill="#3D3D95" d="M53.977,29.39c0.102,0.006,0.33,0.019,0.56,0.036c0.43,0.033,0.592,0.234,0.625,0.695
		c0.062,0.881,0.235,1.752,0.354,2.627c0.051,0.377,0.266,0.451,0.538,0.254c0.511-0.365,1.074-0.494,1.677-0.408
		c0.193,0.027,0.364,0.211,0.547,0.324c-0.146,0.188-0.258,0.485-0.443,0.539c-0.464,0.138-0.961,0.172-1.447,0.231
		c-0.455,0.056-0.715,0.229-0.662,0.759c0.043,0.42-0.017,0.852-0.031,1.276c-0.004,0.096-0.051,0.251-0.01,0.28
		c0.621,0.436,0.207,1.049,0.288,1.574c0.044,0.279,0.036,0.62,0.195,0.817c0.37,0.459,0.104,0.575-0.274,0.634
		c-1.229,0.19-2.459,0.372-3.691,0.534c-0.823,0.108-0.932,0.29-0.684,1.084c0.1,0.328,0.282,0.435,0.57,0.376
		c1.113-0.229,2.283-0.138,3.346-0.674c0.395-0.198,0.879-0.268,1.325-0.283c0.235-0.009,0.624,0.174,0.688,0.359
		c0.133,0.375-0.274,0.464-0.541,0.533c-0.409,0.107-0.836,0.158-1.258,0.223c-1.261,0.191-2.519,0.417-3.785,0.555
		c-1.192,0.13-1.412-0.053-1.535-1.208c-0.055-0.512-0.221-0.79-0.752-0.819c-0.092-0.006-0.174-0.152-0.26-0.234
		c0.088-0.087,0.162-0.219,0.267-0.253c0.245-0.082,0.503-0.136,0.76-0.166c1.331-0.153,2.665-0.282,3.995-0.447
		c0.627-0.079,0.91-0.688,0.547-1.192c-0.1-0.141-0.404-0.229-0.59-0.196c-1.062,0.182-2.129,0.362-3.169,0.637
		c-0.544,0.144-1.035,0.114-1.534-0.06c-0.158-0.056-0.277-0.225-0.414-0.34c0.15-0.107,0.294-0.287,0.457-0.309
		c0.939-0.118,1.891-0.172,2.828-0.3c0.71-0.097,1.413-0.255,2.113-0.411c0.441-0.1,0.5-0.376,0.412-0.814
		c-0.287-1.408-0.533-2.826-0.76-4.248c-0.099-0.617-0.231-1.146-0.94-1.328c-0.185-0.047-0.327-0.25-0.49-0.381
		c0.218-0.092,0.433-0.201,0.658-0.27C53.578,29.359,53.717,29.39,53.977,29.39z"/>
	<path fill="#3D3D95" d="M34.676,34.191c0.221,0.225,0.445,0.387,0.577,0.605c0.544,0.895,1.063,1.804,1.584,2.713
		c0.211,0.371,0.449,0.361,0.649,0.029c0.332-0.547,0.846-0.816,1.425-0.959c0.178-0.045,0.401,0.101,0.604,0.158
		c-0.066,0.2-0.072,0.482-0.211,0.585c-0.419,0.312-0.888,0.554-1.338,0.819c-0.359,0.212-0.507,0.457-0.27,0.883
		c0.188,0.337,0.293,0.727,0.406,1.102c0.086,0.285,0.104,0.578,0.535,0.549c0.106-0.006,0.276,0.212,0.336,0.357
		c0.28,0.691,0.521,1.398,0.807,2.088c0.066,0.162,0.227,0.31,0.377,0.413c0.494,0.337,0.515,0.421-0.014,0.745
		c-0.922,0.565-1.869,1.087-2.791,1.649c-0.429,0.261-0.926,0.432-1.029,1.075c-0.059,0.367-0.452,0.377-0.756,0.009
		c-0.416-0.505-0.779-1.054-1.162-1.585c-0.354-0.495-0.608-1.131-1.424-0.959c-0.027,0.006-0.197-0.364-0.16-0.396
		c0.242-0.208,0.515-0.389,0.795-0.548c1.169-0.66,2.357-1.286,3.51-1.97c0.743-0.44,0.684-0.514,0.195-1.25
		c-0.813-1.227-1.576-2.489-2.324-3.758c-0.413-0.701-0.783-1.385-1.789-1.168c-0.104,0.022-0.249-0.149-0.375-0.23
		c0.072-0.098,0.124-0.242,0.223-0.285C33.559,34.641,34.071,34.44,34.676,34.191z M36.091,45.772
		c0.11-0.024,0.183-0.024,0.233-0.056c0.847-0.489,1.699-0.967,2.521-1.494c0.113-0.072,0.157-0.424,0.089-0.579
		c-0.214-0.474-0.496-0.917-0.755-1.368c-0.155-0.273-0.348-0.34-0.643-0.161c-0.808,0.49-1.624,0.962-2.444,1.431
		c-0.285,0.162-0.361,0.369-0.191,0.64c0.295,0.47,0.599,0.933,0.912,1.389C35.88,45.67,36.016,45.72,36.091,45.772z"/>
	<path fill="#3D3D95" d="M49.878,31.933c-0.351,0.11-0.908,0.218-1.401,0.456c-0.601,0.289-1.146,0.109-1.703-0.047
		c-0.123-0.034-0.197-0.232-0.295-0.355c0.129-0.084,0.25-0.225,0.389-0.245c0.744-0.106,1.498-0.149,2.238-0.278
		c0.574-0.101,1.133-0.297,1.698-0.443c0.158-0.041,0.321-0.094,0.479-0.086c0.285,0.013,0.568,0.066,0.854,0.104
		c-0.054,0.308-0.047,0.643-0.175,0.913c-0.237,0.5-0.543,0.972-0.845,1.438c-0.225,0.347-0.094,0.548,0.232,0.676
		c0.24,0.095,0.496,0.206,0.75,0.212c0.67,0.019,1.068,0.458,1.454,0.899c0.122,0.14,0.099,0.406,0.142,0.615
		c-0.205,0.033-0.445,0.153-0.609,0.086c-0.45-0.185-0.869-0.445-1.298-0.68c-0.229-0.125-0.453-0.265-0.685-0.386
		c-0.666-0.353-0.738-0.308-1.254,0.213c-0.645,0.647-1.324,1.261-2.009,1.868c-0.216,0.191-0.479,0.354-0.748,0.459
		c-0.144,0.056-0.345-0.035-0.521-0.059c0.078-0.131,0.127-0.295,0.238-0.385c1.201-0.979,2.25-2.097,3.053-3.43
		c0.201-0.335,0.396-0.68,0.553-1.038C50.598,32.019,50.5,31.896,49.878,31.933z"/>
	<path fill="#3D3D95" d="M35.6,41.539c-0.723-0.091-1.418-0.119-2.082-0.281c-0.561-0.137-0.746,0.1-0.957,0.543
		c-0.449,0.943-0.923,1.879-1.466,2.769c-0.161,0.265-0.305,0.792-0.856,0.597c0.103-0.287,0.164-0.597,0.312-0.856
		c0.74-1.291,1.26-2.659,1.514-4.126c0.041-0.227,0.053-0.456,0.058-0.686c0.006-0.391-0.207-0.47-0.497-0.271
		c-0.432,0.294-0.87,0.593-1.245,0.953c-0.493,0.475-1.076,0.587-1.714,0.576c-0.082-0.002-0.229-0.067-0.232-0.116
		c-0.014-0.116-0.002-0.287,0.072-0.353c0.141-0.125,0.34-0.181,0.501-0.285c1.013-0.654,2.022-1.315,3.032-1.977
		c0.055-0.035,0.09-0.111,0.146-0.129c0.355-0.109,0.715-0.209,1.072-0.312c0.042,0.336,0.133,0.674,0.113,1.008
		c-0.023,0.42-0.141,0.836-0.219,1.253c-0.098,0.524-0.004,0.668,0.504,0.696c0.191,0.01,0.424,0.017,0.574-0.076
		c0.649-0.398,1.213-0.079,1.758,0.203c0.189,0.099,0.287,0.375,0.427,0.569c-0.22,0.101-0.437,0.206-0.659,0.298
		C35.7,41.559,35.626,41.539,35.6,41.539z"/>
	<path fill="#3D3D95" d="M56.114,18.856c0-0.149-0.021-0.251,0.002-0.342c0.098-0.378,0.171-0.771,0.322-1.128
		c0.18-0.428,0.114-0.723-0.256-1.016c-0.39-0.309-0.725-0.686-1.082-1.033c0.479-0.027,0.959-0.096,1.436-0.074
		c0.445,0.02,0.635-0.156,0.748-0.57c0.129-0.466,0.34-0.91,0.514-1.363c0.213,0.45,0.461,0.89,0.633,1.355
		c0.149,0.412,0.402,0.561,0.816,0.523c0.193-0.018,0.395-0.017,0.589,0c0.299,0.027,0.597,0.075,0.894,0.113
		c-0.227,0.229-0.447,0.463-0.684,0.68c-0.169,0.152-0.363,0.278-0.543,0.42c-0.264,0.207-0.326,0.455-0.195,0.778
		c0.17,0.425,0.305,0.861,0.448,1.296c0.028,0.084,0.026,0.18,0.041,0.271c-0.11-0.024-0.243-0.019-0.33-0.077
		c-0.381-0.254-0.757-0.518-1.118-0.796c-0.308-0.239-0.58-0.222-0.877,0.014c-0.332,0.265-0.679,0.511-1.021,0.763
		C56.372,18.727,56.28,18.765,56.114,18.856z"/>
	<path fill="#3D3D95" d="M30.36,87.621c-0.166,0.104-0.258,0.174-0.358,0.225c-0.413,0.197-0.827,0.394-1.244,0.582
		c-0.276,0.126-0.384,0.314-0.325,0.627c0.068,0.353,0.107,0.713,0.129,1.07c0.008,0.142-0.065,0.285-0.104,0.429
		c-0.135-0.078-0.321-0.123-0.396-0.24c-0.656-1.022-1.477-1.127-2.466-0.498c-0.118,0.076-0.292,0.065-0.438,0.095
		c0.031-0.148,0.057-0.302,0.097-0.447c0.017-0.062,0.067-0.111,0.099-0.17c0.588-1.172,0.586-1.172-0.303-2.213
		c-0.043-0.05-0.1-0.095-0.123-0.152c-0.068-0.168-0.123-0.34-0.186-0.51c0.162-0.004,0.32-0.011,0.482-0.012
		c0.03-0.001,0.061,0.016,0.094,0.021c1.438,0.283,1.438,0.283,2.142-0.979c0.047-0.087,0.083-0.185,0.149-0.253
		c0.078-0.081,0.18-0.156,0.283-0.188c0.03-0.008,0.146,0.139,0.158,0.224c0.047,0.356,0.118,0.72,0.092,1.075
		c-0.047,0.574,0.187,0.849,0.746,0.906c0.356,0.037,0.713,0.101,1.062,0.174C30.067,87.41,30.167,87.506,30.36,87.621z"/>
	<path fill="#3D3D95" d="M99.225,47.012c-0.396,0.273-0.769,0.541-1.15,0.792c-0.203,0.134-0.426,0.239-0.641,0.358
		c0.043-0.248,0.077-0.496,0.133-0.74c0.105-0.472,0.402-0.993,0.283-1.394c-0.107-0.353-0.674-0.567-1.035-0.843
		c-0.053-0.04-0.117-0.072-0.151-0.124c-0.081-0.122-0.147-0.254-0.222-0.382c0.117-0.034,0.232-0.094,0.352-0.098
		c0.359-0.014,0.723-0.028,1.081,0c0.422,0.033,0.651-0.107,0.784-0.535c0.146-0.471,0.394-0.908,0.598-1.36
		c0.189,0.448,0.409,0.887,0.561,1.349c0.119,0.364,0.309,0.562,0.699,0.54c0.065-0.004,0.133-0.008,0.196,0.003
		c0.412,0.063,0.825,0.131,1.237,0.197c-0.299,0.277-0.57,0.596-0.904,0.822c-0.518,0.348-0.521,0.754-0.318,1.277
		c0.135,0.352,0.176,0.739,0.26,1.112c-0.361-0.183-0.729-0.356-1.084-0.55C99.674,47.314,99.463,47.164,99.225,47.012z"/>
	<path fill="#3D3D95" d="M86.856,92.392c-0.076,0.123-0.103,0.188-0.147,0.229c-0.12,0.111-0.247,0.215-0.377,0.314
		c-1.038,0.795-1.038,0.794-0.651,2.102c0.037,0.127,0.084,0.252,0.096,0.381c0.008,0.084-0.02,0.22-0.074,0.248
		c-0.064,0.035-0.194,0.004-0.266-0.043c-0.301-0.201-0.602-0.402-0.879-0.633c-0.359-0.297-0.662-0.293-1.046,0.004
		c-0.36,0.281-0.803,0.459-1.209,0.682c0.089-0.405,0.134-0.827,0.274-1.215c0.209-0.578,0.006-0.924-0.493-1.205
		c-0.312-0.178-0.593-0.409-0.874-0.633c-0.062-0.049-0.114-0.174-0.096-0.242c0.016-0.053,0.147-0.102,0.229-0.104
		c0.428-0.01,0.857-0.043,1.279,0.002c0.54,0.059,0.773-0.203,0.89-0.676c0.077-0.316,0.175-0.629,0.276-0.939
		c0.037-0.11,0.117-0.207,0.179-0.309c0.093,0.076,0.263,0.146,0.269,0.23c0.127,1.453,0.945,1.936,2.312,1.692
		C86.635,92.265,86.741,92.349,86.856,92.392z"/>
	<path fill="#3D3D95" d="M68.672,20.065c-0.256-0.272-0.438-0.461-0.611-0.653c-0.85-0.937-0.846-0.931-1.977-0.459
		c-0.287,0.119-0.6,0.182-0.898,0.27c0.133-0.286,0.262-0.575,0.403-0.857c0.088-0.174,0.187-0.346,0.302-0.505
		c0.247-0.348,0.213-0.638-0.082-0.96c-0.32-0.354-0.584-0.762-0.873-1.146c0.492,0.056,0.996,0.069,1.477,0.179
		c0.439,0.1,0.65-0.067,0.869-0.415c0.244-0.391,0.57-0.729,0.859-1.088c0.078,0.438,0.166,0.875,0.229,1.316
		c0.063,0.444,0.272,0.657,0.749,0.731c0.449,0.069,0.874,0.312,1.31,0.478c-0.389,0.219-0.757,0.493-1.17,0.641
		c-0.503,0.177-0.646,0.459-0.557,0.959c0.067,0.384,0.067,0.781,0.081,1.174C68.789,19.819,68.725,19.914,68.672,20.065z"/>
	<path fill="#3D3D95" d="M79.371,97.521c-0.112,0.104-0.154,0.149-0.206,0.187c-0.055,0.035-0.115,0.062-0.174,0.092
		c-0.486,0.26-1.152,0.406-1.409,0.812c-0.224,0.353,0.021,0.997,0.047,1.515c0.007,0.127-0.022,0.258-0.035,0.389
		c-0.132-0.072-0.317-0.109-0.387-0.221c-0.69-1.121-1.572-1.164-2.604-0.502c-0.095,0.062-0.242,0.039-0.365,0.055
		c0.011-0.143-0.031-0.326,0.043-0.42c0.828-1.045,0.695-1.932-0.401-2.686c-0.077-0.054-0.147-0.137-0.188-0.222
		c-0.035-0.072-0.031-0.168-0.018-0.248c0.003-0.021,0.122-0.037,0.18-0.022c0.446,0.102,0.897,0.188,1.334,0.319
		c0.455,0.136,0.748,0.013,0.951-0.421c0.152-0.325,0.35-0.63,0.545-0.934c0.062-0.098,0.188-0.157,0.284-0.236
		c0.063,0.104,0.13,0.206,0.188,0.312c0.015,0.024,0.014,0.063,0.009,0.096c-0.161,1.324,0.511,1.899,1.757,1.977
		C79.061,97.367,79.194,97.455,79.371,97.521z"/>
	<path fill="#3D3D95" d="M98.102,78.17c-0.201,0.34-0.352,0.594-0.502,0.847c-0.562,0.944-0.555,0.938,0.15,1.729
		c0.208,0.232,0.365,0.514,0.547,0.771c-0.302-0.012-0.605-0.008-0.904-0.033c-0.195-0.018-0.39-0.062-0.58-0.107
		c-0.373-0.088-0.615,0.031-0.789,0.389c-0.185,0.382-0.42,0.738-0.643,1.104c-0.043,0.069-0.126,0.116-0.189,0.174
		c-0.051-0.076-0.127-0.145-0.146-0.228c-0.059-0.255-0.1-0.515-0.141-0.772c-0.18-1.098-0.18-1.088-1.25-1.308
		c-0.311-0.063-0.609-0.187-0.912-0.282c0.262-0.16,0.511-0.349,0.787-0.479c1.23-0.58,1.233-0.573,1.015-1.918
		c-0.031-0.193-0.078-0.387-0.086-0.58c-0.001-0.033,0.211-0.125,0.237-0.102c0.259,0.25,0.504,0.513,0.742,0.782
		c0.567,0.642,0.621,0.658,1.424,0.324c0.304-0.125,0.598-0.271,0.904-0.383C97.843,78.07,97.956,78.137,98.102,78.17z"/>
	<path fill="#3D3D95" d="M57,102.801c-0.28-0.02-0.561-0.038-0.839-0.057c0.192-0.211,0.379-0.429,0.583-0.627
		c0.115-0.113,0.266-0.191,0.393-0.293c0.682-0.551,0.682-0.551,0.37-1.377c-0.022-0.062-0.056-0.121-0.067-0.185
		c-0.067-0.341-0.129-0.681-0.192-1.021c0.294,0.177,0.59,0.351,0.883,0.53c0.14,0.086,0.286,0.168,0.401,0.279
		c0.348,0.334,0.662,0.33,1.021,0c0.287-0.266,0.618-0.482,0.941-0.704c0.093-0.062,0.224-0.071,0.337-0.104
		c0.003,0.127,0.015,0.256,0.006,0.383c-0.005,0.062-0.05,0.119-0.067,0.183c-0.408,1.43-0.406,1.428,0.771,2.358
		c0.114,0.09,0.176,0.246,0.262,0.371c-0.146,0.037-0.292,0.078-0.44,0.109c-0.062,0.013-0.131-0.001-0.196,0.004
		c-1.308,0.084-1.308,0.084-1.716,1.373c-0.038,0.123-0.064,0.256-0.129,0.365c-0.043,0.074-0.141,0.148-0.221,0.158
		c-0.05,0.007-0.131-0.104-0.169-0.174c-0.073-0.146-0.131-0.301-0.188-0.453C58.231,102.531,58.44,102.806,57,102.801z"/>
	<path fill="#3D3D95" d="M40.44,99.863c0.08-1.013,0.08-1.013-0.836-1.43c-0.088-0.041-0.185-0.073-0.265-0.129
		c-0.202-0.139-0.396-0.287-0.593-0.434c0.203-0.07,0.406-0.146,0.613-0.212c1.644-0.512,1.371-0.104,1.502-1.77
		c0.017-0.193,0.062-0.386,0.101-0.576c0.015-0.062,0.056-0.117,0.084-0.176c0.06,0.054,0.133,0.098,0.173,0.163
		c0.236,0.392,0.502,0.772,0.689,1.188c0.209,0.459,0.529,0.525,0.96,0.414c0.38-0.1,0.762-0.195,1.146-0.275
		c0.08-0.016,0.176,0.041,0.264,0.063c-0.022,0.089-0.021,0.195-0.073,0.261c-0.246,0.307-0.491,0.615-0.769,0.893
		c-0.328,0.326-0.386,0.634-0.131,1.044c0.236,0.379,0.402,0.803,0.6,1.207c-0.416-0.123-0.838-0.224-1.241-0.375
		c-0.438-0.166-0.822-0.201-1.127,0.235c-0.074,0.105-0.173,0.199-0.274,0.281c-0.238,0.193-0.484,0.377-0.73,0.564
		C40.501,100.49,40.469,100.178,40.44,99.863z"/>
	<path fill="#3D3D95" d="M20.041,70.451c-0.099,0.291-0.205,0.6-0.31,0.909c-0.318,0.957-0.318,0.957,0.545,1.556
		c0.188,0.131,0.383,0.25,0.561,0.396c0.096,0.077,0.156,0.195,0.23,0.296c-0.135,0.06-0.283,0.188-0.405,0.167
		c-1.285-0.217-2.06,0.236-2.191,1.6c-0.009,0.086-0.157,0.172-0.259,0.228c-0.021,0.01-0.146-0.115-0.178-0.195
		c-0.127-0.336-0.264-0.672-0.348-1.02c-0.109-0.459-0.355-0.638-0.834-0.61c-0.443,0.023-0.895-0.046-1.341-0.074
		c0.33-0.33,0.638-0.688,0.997-0.982c0.327-0.269,0.428-0.555,0.293-0.943c-0.128-0.369-0.26-0.74-0.374-1.113
		c-0.026-0.084-0.017-0.211,0.033-0.27c0.033-0.039,0.185-0.025,0.25,0.016c0.31,0.185,0.612,0.381,0.908,0.583
		c0.628,0.431,0.625,0.431,1.252-0.062c0.282-0.223,0.567-0.443,0.862-0.649c0.062-0.044,0.17-0.038,0.256-0.024
		C20.011,70.258,20.018,70.367,20.041,70.451z"/>
	<path fill="#3D3D95" d="M14.8,57.299c0.603-1.26-0.062-1.834-1.217-2.133c-0.106-0.027-0.19-0.15-0.286-0.229
		c0.111-0.098,0.225-0.278,0.337-0.28c1.349-0.02,1.757-0.813,1.714-2.012c-0.006-0.123,0.061-0.248,0.094-0.373
		c0.121,0.087,0.31,0.149,0.353,0.267c0.476,1.254,1.319,1.549,2.517,1.025c0.106-0.046,0.244-0.02,0.367-0.027
		c-0.037,0.141-0.039,0.311-0.121,0.416c-0.222,0.281-0.459,0.555-0.723,0.799c-0.346,0.321-0.382,0.631-0.123,1.035
		c0.279,0.435,0.5,0.906,0.746,1.362c-0.498-0.173-1.006-0.327-1.493-0.524c-0.347-0.143-0.618-0.129-0.871,0.17
		c-0.231,0.273-0.485,0.53-0.741,0.783c-0.108,0.107-0.252,0.182-0.379,0.271C14.92,57.68,14.868,57.512,14.8,57.299z"/>
	<path fill="#3D3D95" d="M94.258,40.047c0.037-0.695,0.27-1.381,0.039-1.827c-0.203-0.395-0.926-0.515-1.413-0.771
		c-0.129-0.067-0.229-0.182-0.345-0.274c0.115-0.047,0.23-0.127,0.35-0.133c1.289-0.074,2.032-0.65,1.936-2.043
		c-0.008-0.093,0.125-0.193,0.191-0.291c0.071,0.06,0.163,0.106,0.211,0.182c0.193,0.302,0.385,0.607,0.557,0.922
		c0.217,0.395,0.484,0.574,0.959,0.406c0.365-0.129,0.761-0.172,1.146-0.244c0.089-0.018,0.188,0.007,0.281,0.013
		c-0.038,0.09-0.058,0.195-0.116,0.269c-0.226,0.28-0.447,0.562-0.697,0.819c-0.375,0.386-0.426,0.775-0.119,1.228
		c0.199,0.297,0.371,0.613,0.541,0.931c0.039,0.069,0.053,0.21,0.011,0.254c-0.05,0.054-0.187,0.075-0.261,0.045
		c-0.362-0.146-0.724-0.303-1.073-0.476c-0.451-0.221-0.8-0.162-1.095,0.277c-0.197,0.297-0.457,0.555-0.707,0.811
		c-0.078,0.081-0.215,0.104-0.326,0.152C94.294,40.179,94.261,40.061,94.258,40.047z"/>
	<path fill="#3D3D95" d="M27.746,28.69c-0.081,1.589-0.082,1.589,1.225,2.161c0.119,0.053,0.257,0.072,0.365,0.138
		c0.071,0.043,0.157,0.153,0.146,0.216c-0.014,0.073-0.117,0.168-0.197,0.187c-0.477,0.11-0.952,0.225-1.438,0.293
		c-0.324,0.046-0.443,0.192-0.449,0.509c-0.008,0.458-0.039,0.915-0.086,1.37c-0.011,0.097-0.121,0.201-0.213,0.26
		c-0.027,0.019-0.172-0.08-0.217-0.153c-0.173-0.276-0.339-0.56-0.484-0.852c-0.254-0.513-0.625-0.719-1.197-0.542
		c-0.311,0.097-0.637,0.147-0.959,0.197c-0.079,0.012-0.215-0.034-0.244-0.095c-0.03-0.061,0.015-0.189,0.068-0.254
		c0.252-0.301,0.506-0.604,0.785-0.877c0.277-0.271,0.34-0.533,0.098-0.855c-0.098-0.129-0.172-0.28-0.233-0.432
		c-0.127-0.31-0.239-0.625-0.358-0.938c0.336,0.096,0.682,0.167,1.006,0.291c0.848,0.326,0.844,0.335,1.451-0.342
		c0.108-0.122,0.209-0.255,0.336-0.357c0.162-0.131,0.349-0.235,0.523-0.351C27.708,28.477,27.746,28.689,27.746,28.69z"/>
	<path fill="#3D3D95" d="M85.509,22.043c-0.138,0.485-0.223,0.869-0.356,1.235c-0.18,0.491-0.172,0.896,0.365,1.151
		c0.088,0.041,0.157,0.119,0.229,0.185c0.231,0.212,0.694,0.509,0.651,0.627c-0.166,0.48-0.662,0.257-1.021,0.269
		c-1.132,0.041-0.871-0.094-1.253,0.964c-0.058,0.153-0.056,0.329-0.125,0.473c-0.099,0.199-0.236,0.378-0.356,0.565
		c-0.076-0.182-0.191-0.355-0.22-0.543c-0.178-1.258-0.837-1.831-2.134-1.576c-0.117,0.023-0.264-0.104-0.396-0.161
		c0.082-0.09,0.147-0.216,0.252-0.265c1.211-0.579,1.424-1.461,0.817-2.609c-0.054-0.1-0.03-0.24-0.043-0.361
		c0.116,0.033,0.247,0.043,0.347,0.103c0.495,0.306,0.977,0.854,1.477,0.871c0.449,0.015,0.916-0.556,1.384-0.851
		C85.216,22.062,85.352,22.072,85.509,22.043z"/>
	<path fill="#3D3D95" d="M98.955,52.824c0.134,0.014,0.171,0.008,0.198,0.021c1.158,0.524,1.82-0.003,2.265-1.042
		c0.05-0.12,0.215-0.193,0.326-0.287c0.057,0.113,0.116,0.226,0.167,0.342c0.025,0.059,0.056,0.129,0.047,0.189
		c-0.193,1.285,0.527,1.707,1.646,1.783c0.127,0.008,0.244,0.142,0.364,0.215c-0.09,0.09-0.169,0.238-0.272,0.262
		c-1.369,0.303-1.646,1.167-1.277,2.395c0.029,0.102-0.044,0.232-0.068,0.35c-0.113-0.049-0.252-0.074-0.336-0.154
		c-0.283-0.271-0.566-0.548-0.816-0.848c-0.312-0.373-0.625-0.383-1.027-0.135c-0.331,0.203-0.704,0.34-1.062,0.494
		c-0.076,0.033-0.176,0.016-0.265,0.021c0.009-0.089-0.01-0.189,0.029-0.261c0.187-0.344,0.392-0.678,0.581-1.021
		c0.386-0.697,0.385-0.699-0.182-1.323c-0.153-0.17-0.328-0.324-0.465-0.505c-0.093-0.12-0.138-0.274-0.203-0.414
		C98.752,52.871,98.901,52.836,98.955,52.824z"/>
	<path fill="#3D3D95" d="M69.274,98.285c-0.578,1.377,0.012,2.105,1.301,2.459c0.113,0.032,0.201,0.159,0.301,0.241
		c-0.109,0.063-0.219,0.175-0.331,0.181c-1.319,0.074-2.058,0.648-1.847,2.078c0.013,0.078-0.062,0.168-0.096,0.254
		c-0.105-0.051-0.252-0.072-0.312-0.153c-0.346-0.468-0.575-1.156-1.029-1.363c-0.41-0.187-1.056,0.159-1.602,0.249
		c-0.102,0.018-0.219-0.068-0.327-0.105c0.034-0.088,0.069-0.176,0.108-0.261c0.015-0.028,0.039-0.055,0.064-0.073
		c1.193-0.853,1.034-1.783,0.178-2.771c-0.074-0.086-0.082-0.229-0.119-0.349c0.117,0.006,0.246-0.016,0.354,0.021
		c0.248,0.082,0.485,0.189,0.728,0.291c1.02,0.428,1.02,0.43,1.771-0.402c0.131-0.146,0.246-0.309,0.391-0.44
		c0.084-0.079,0.211-0.115,0.316-0.168C69.171,98.075,69.223,98.18,69.274,98.285z"/>
	<path fill="#3D3D95" d="M48.975,98.015c0.094,0.075,0.146,0.112,0.19,0.157c0.183,0.188,0.366,0.373,0.539,0.572
		c0.735,0.851,0.733,0.853,1.743,0.398c0.06-0.026,0.117-0.062,0.183-0.072c0.239-0.041,0.479-0.074,0.72-0.111
		c-0.07,0.207-0.09,0.457-0.221,0.613c-0.732,0.87-0.424,1.569,0.303,2.237c0.131,0.12,0.192,0.313,0.287,0.473
		c-0.181,0.021-0.363,0.073-0.54,0.058c-0.477-0.047-1.036-0.303-1.401-0.131c-0.377,0.177-0.558,0.763-0.832,1.164
		c-0.086,0.123-0.199,0.228-0.301,0.34c-0.064-0.137-0.16-0.268-0.188-0.411c-0.067-0.351-0.124-0.707-0.146-1.062
		c-0.023-0.396-0.205-0.579-0.602-0.623c-0.389-0.04-0.77-0.137-1.152-0.219c-0.115-0.024-0.225-0.09-0.337-0.135
		c0.097-0.115,0.173-0.265,0.294-0.334c0.281-0.164,0.588-0.284,0.881-0.431c0.709-0.35,0.7-0.351,0.588-1.11
		c-0.058-0.388-0.086-0.778-0.113-1.169C48.864,98.156,48.934,98.09,48.975,98.015z"/>
	<path fill="#3D3D95" d="M31.248,22.512c0.146,0.052,0.212,0.062,0.266,0.096c0.112,0.068,0.216,0.15,0.325,0.221
		c1.173,0.746,1.17,0.742,2.248-0.05c0.2-0.147,0.43-0.257,0.646-0.383c-0.035,0.246-0.067,0.493-0.106,0.737
		c-0.011,0.063-0.048,0.123-0.067,0.186c-0.344,1.135-0.337,1.125,0.635,1.805c0.25,0.174,0.447,0.428,0.668,0.646
		c-0.305,0.057-0.607,0.125-0.916,0.165c-0.193,0.023-0.396,0.021-0.59,0.001c-0.486-0.052-0.723,0.188-0.82,0.642
		c-0.066,0.319-0.16,0.635-0.27,0.941c-0.037,0.107-0.158,0.186-0.238,0.277c-0.084-0.092-0.174-0.179-0.246-0.277
		c-0.036-0.051-0.051-0.122-0.06-0.186c-0.151-1.233-0.88-1.617-2.034-1.402c-0.131,0.023-0.281-0.073-0.422-0.114
		c0.088-0.129,0.146-0.322,0.268-0.377c1.213-0.55,1.229-1.442,0.757-2.498C31.239,22.824,31.261,22.68,31.248,22.512z"/>
	<path fill="#3D3D95" d="M18.96,65.465c-0.146,0.056-0.243,0.13-0.328,0.117c-0.388-0.056-0.778-0.11-1.153-0.211
		c-0.529-0.141-0.877,0.01-1.098,0.521c-0.128,0.297-0.318,0.568-0.494,0.844c-0.049,0.076-0.146,0.119-0.221,0.178
		c-0.039-0.084-0.096-0.164-0.114-0.254c-0.05-0.224-0.101-0.449-0.116-0.676c-0.094-1.244-0.023-1.045-1.242-1.336
		c-0.283-0.066-0.556-0.18-0.832-0.271c0.25-0.17,0.484-0.365,0.752-0.504c1.054-0.549,1.051-0.541,0.898-1.72
		c-0.033-0.265-0.009-0.537-0.011-0.806c0.205,0.146,0.433,0.271,0.61,0.447c0.972,0.946,0.965,0.946,2.174,0.352
		c0.252-0.123,0.523-0.201,0.787-0.301c-0.103,0.266-0.186,0.539-0.31,0.795c-0.208,0.434-0.657,0.885-0.604,1.275
		c0.055,0.401,0.587,0.741,0.91,1.106C18.675,65.147,18.784,65.268,18.96,65.465z"/>
	<path fill="#3D3D95" d="M39.448,18.908c-0.002-0.033-0.004-0.064-0.008-0.098c-0.028-0.387-0.06-0.771-0.09-1.156
		c0.318,0.251,0.66,0.479,0.95,0.76c0.599,0.578,0.58,0.572,1.331,0.252c0.398-0.17,0.829-0.267,1.244-0.396
		c-0.178,0.379-0.336,0.768-0.534,1.135c-0.412,0.762-0.42,0.758,0.197,1.387c0.229,0.233,0.465,0.461,0.683,0.705
		c0.057,0.062,0.055,0.174,0.078,0.264c-0.088,0.023-0.184,0.08-0.266,0.065c-0.449-0.077-0.905-0.146-1.344-0.27
		c-0.396-0.112-0.604,0.01-0.774,0.368c-0.181,0.383-0.417,0.74-0.638,1.103c-0.049,0.08-0.131,0.138-0.197,0.206
		c-0.053-0.081-0.125-0.155-0.154-0.245c-0.04-0.123-0.046-0.256-0.07-0.385c-0.093-0.476-0.041-1.095-0.324-1.384
		c-0.285-0.295-0.906-0.258-1.379-0.379c-0.141-0.036-0.27-0.119-0.403-0.182c0.106-0.109,0.194-0.249,0.321-0.324
		c0.224-0.134,0.47-0.229,0.707-0.341C39.481,19.664,39.481,19.664,39.448,18.908z"/>
	<path fill="#3D3D95" d="M23.287,78.683c-0.58,1.231,0.062,1.782,1.169,2.056c0.094,0.023,0.182,0.075,0.265,0.127
		c0.08,0.051,0.15,0.118,0.226,0.178c-0.09,0.063-0.17,0.157-0.27,0.188c-0.343,0.103-0.689,0.203-1.042,0.265
		c-0.538,0.094-0.771,0.395-0.81,0.936c-0.027,0.406-0.155,0.807-0.239,1.21c-0.246-0.335-0.544-0.644-0.726-1.011
		c-0.301-0.609-0.765-0.596-1.312-0.482c-0.369,0.074-0.749,0.091-1.124,0.134c0.226-0.315,0.433-0.646,0.679-0.942
		c0.564-0.68,0.564-0.668,0.116-1.433c-0.211-0.358-0.39-0.737-0.583-1.108c0.389,0.121,0.783,0.224,1.161,0.367
		c0.863,0.334,0.858,0.342,1.457-0.338c0.131-0.146,0.251-0.305,0.396-0.436c0.138-0.125,0.299-0.223,0.449-0.33
		C23.157,78.258,23.216,78.455,23.287,78.683z"/>
	<path fill="#3D3D95" d="M77.252,18.299c-0.12,1.018-0.12,1.018,0.832,1.461c0.208,0.096,0.415,0.197,0.62,0.298
		c0.087,0.043,0.17,0.094,0.255,0.142c-0.098,0.078-0.184,0.195-0.295,0.229c-0.408,0.119-0.824,0.213-1.238,0.312
		c-0.347,0.082-0.564,0.224-0.583,0.648c-0.022,0.515-0.151,1.024-0.233,1.538c-0.287-0.411-0.625-0.797-0.848-1.24
		c-0.246-0.49-0.568-0.539-1.046-0.432c-0.435,0.097-0.888,0.104-1.332,0.151c0.271-0.356,0.509-0.749,0.82-1.063
		c0.396-0.399,0.416-0.75,0.104-1.209c-0.229-0.34-0.365-0.743-0.543-1.118c0.391,0.112,0.812,0.165,1.162,0.35
		c0.562,0.298,0.985,0.228,1.346-0.286c0.02-0.027,0.041-0.053,0.065-0.074c0.244-0.2,0.487-0.4,0.731-0.601
		C77.131,17.703,77.192,18.002,77.252,18.299z"/>
	<path fill="#3D3D95" d="M102.45,60.982c-0.51,1.34,0.133,1.953,1.293,2.277c0.142,0.037,0.25,0.193,0.373,0.296
		c-0.149,0.062-0.297,0.169-0.449,0.18c-1.193,0.083-1.88,0.583-1.678,1.904c0.021,0.142-0.158,0.313-0.246,0.47
		c-0.105-0.109-0.229-0.209-0.313-0.332c-0.296-0.426-0.495-1.068-0.893-1.232c-0.399-0.164-0.994,0.145-1.503,0.246
		c-0.129,0.027-0.252,0.074-0.381,0.098c-0.059,0.011-0.123-0.014-0.186-0.02c0.014-0.082-0.002-0.188,0.044-0.24
		c0.261-0.295,0.536-0.573,0.802-0.863c0.582-0.637,0.584-0.674,0.137-1.44c-0.131-0.227-0.277-0.444-0.393-0.68
		c-0.048-0.097-0.029-0.226-0.041-0.339c0.122,0.001,0.258-0.028,0.367,0.01c0.275,0.1,0.538,0.236,0.812,0.343
		c0.759,0.298,0.762,0.296,1.316-0.327c0.151-0.173,0.277-0.367,0.444-0.523c0.108-0.104,0.269-0.151,0.405-0.227
		C102.395,60.73,102.426,60.879,102.45,60.982z"/>
	<path fill="#3D3D95" d="M19.092,36.734c0.119,0.031,0.15,0.036,0.184,0.047c1.156,0.413,1.941,0.059,2.351-1.117
		c0.042-0.123,0.206-0.203,0.313-0.304c0.062,0.108,0.14,0.211,0.182,0.328c0.045,0.121,0.062,0.254,0.08,0.383
		c0.184,1.304,0.185,1.298,1.466,1.546c0.237,0.047,0.463,0.164,0.694,0.249c-0.205,0.146-0.403,0.296-0.612,0.431
		c-0.079,0.053-0.187,0.062-0.272,0.105c-0.976,0.48-1.158,0.24-0.873,1.564c0.063,0.302,0.012,0.629,0.012,0.943
		c-0.258-0.188-0.526-0.361-0.768-0.568c-0.146-0.125-0.244-0.305-0.371-0.455c-0.236-0.283-0.498-0.383-0.857-0.184
		c-0.344,0.189-0.708,0.338-1.07,0.484c-0.104,0.042-0.23,0.018-0.35,0.023c0.021-0.121-0.002-0.275,0.066-0.354
		c0.868-1.013,0.793-1.91-0.287-2.717c-0.086-0.063-0.104-0.216-0.151-0.329C18.94,36.778,19.053,36.746,19.092,36.734z"/>
	<path fill="#3D3D95" d="M89.259,89.582c0.613-1.303-0.098-1.91-1.313-2.235c-0.137-0.037-0.246-0.183-0.369-0.277
		c0.125-0.067,0.24-0.167,0.373-0.204c0.533-0.15,1.224-0.13,1.562-0.467c0.29-0.289,0.165-0.98,0.26-1.488
		c0.03-0.164,0.176-0.31,0.269-0.463c0.098,0.119,0.239,0.223,0.289,0.36c0.415,1.155,1.163,1.543,2.329,1.069
		c0.134-0.055,0.309-0.01,0.465-0.012c-0.07,0.137-0.137,0.272-0.213,0.404c-0.031,0.057-0.084,0.1-0.127,0.148
		c-0.885,1.026-0.885,1.026-0.243,2.225c0.062,0.113,0.169,0.236,0.161,0.348c-0.004,0.096-0.17,0.271-0.225,0.258
		c-0.281-0.076-0.561-0.182-0.822-0.312c-0.545-0.271-0.996-0.231-1.362,0.308c-0.146,0.213-0.343,0.396-0.533,0.576
		c-0.114,0.107-0.261,0.18-0.394,0.268C89.336,89.943,89.305,89.799,89.259,89.582z"/>
	<path fill="#3D3D95" d="M47.758,19.836c0.012-0.138,0.018-0.203,0.021-0.268c0.129-1.449,0.129-1.449-1.164-2.107
		c-0.116-0.06-0.26-0.09-0.344-0.181c-0.049-0.055-0.021-0.2,0.004-0.296c0.008-0.031,0.117-0.035,0.181-0.052
		c0.507-0.134,1.173-0.119,1.476-0.443c0.295-0.317,0.206-0.981,0.312-1.489c0.027-0.131,0.146-0.244,0.222-0.367
		c0.095,0.084,0.237,0.148,0.274,0.252c0.434,1.193,1.221,1.48,2.357,0.974c0.125-0.058,0.307,0.008,0.461,0.017
		c-0.062,0.144-0.091,0.332-0.197,0.422c-0.996,0.828-1.03,1.693-0.162,2.635c0.097,0.104,0.104,0.288,0.15,0.436
		c-0.147-0.017-0.308-0.008-0.443-0.057c-0.521-0.184-1.086-0.615-1.535-0.516c-0.454,0.101-0.79,0.727-1.188,1.11
		c-0.104,0.101-0.244,0.162-0.369,0.241C47.792,20.021,47.77,19.895,47.758,19.836z"/>
	<path fill="#3D3D95" d="M101.067,69.543c-0.066,0.381-0.101,0.771-0.209,1.143c-0.254,0.857-0.27,0.854,0.479,1.421
		c0.207,0.157,0.432,0.297,0.626,0.472c0.083,0.072,0.106,0.213,0.159,0.321c-0.115,0.03-0.239,0.104-0.346,0.086
		c-1.317-0.239-1.992,0.363-2.188,1.628c-0.02,0.122-0.105,0.233-0.162,0.35c-0.098-0.112-0.227-0.211-0.285-0.342
		c-0.121-0.268-0.203-0.552-0.306-0.828c-0.278-0.752-0.28-0.739-1.113-0.765c-0.431-0.014-0.858-0.075-1.288-0.116
		c0.315-0.267,0.621-0.55,0.952-0.798c0.897-0.67,0.823-0.544,0.487-1.5c-0.043-0.123-0.084-0.252-0.094-0.38
		c-0.014-0.176,0.004-0.354,0.01-0.529c0.148,0.055,0.337,0.07,0.439,0.174c0.808,0.797,1.566,0.707,2.334-0.062
		c0.129-0.129,0.342-0.174,0.517-0.257L101.067,69.543z"/>
	<path fill="#3D3D95" d="M20.764,45.49c-0.199,0.167-0.322,0.27-0.445,0.373c-0.393,0.333-0.976,0.6-1.121,1.02
		c-0.131,0.371,0.224,0.912,0.367,1.377c0.027,0.095,0.088,0.181,0.102,0.274c0.012,0.089-0.021,0.185-0.033,0.275
		c-0.09-0.021-0.191-0.019-0.266-0.065c-0.272-0.177-0.536-0.371-0.807-0.555c-0.686-0.468-0.686-0.466-1.354-0.002
		c-0.27,0.186-0.539,0.371-0.814,0.542c-0.07,0.042-0.173,0.032-0.259,0.046c-0.01-0.09-0.044-0.188-0.022-0.271
		c0.137-0.564,0.504-1.188,0.365-1.67c-0.125-0.431-0.805-0.697-1.234-1.043c-0.067-0.057-0.109-0.146-0.164-0.219
		c0.09-0.039,0.176-0.104,0.268-0.113c0.355-0.035,0.715-0.086,1.069-0.068c0.472,0.023,0.739-0.167,0.858-0.612
		c0.103-0.378,0.213-0.754,0.334-1.126c0.024-0.078,0.108-0.183,0.176-0.189c0.068-0.008,0.188,0.072,0.218,0.143
		c0.116,0.27,0.206,0.548,0.304,0.825c0.314,0.895,0.314,0.896,1.225,0.901c0.293,0.002,0.588-0.016,0.882,0
		C20.508,45.336,20.602,45.414,20.764,45.49z"/>
	<path fill="#3D3D95" d="M92.463,31.929c-1.357-0.751-2.062-0.027-2.523,1.225c-0.033,0.093-0.188,0.142-0.289,0.21
		c-0.041-0.109-0.109-0.218-0.119-0.332c-0.038-0.424-0.073-0.851-0.079-1.275c-0.007-0.395-0.201-0.541-0.562-0.676
		c-0.5-0.188-1.137,0.045-1.515-0.49c0.458-0.228,0.916-0.455,1.374-0.683c0.294-0.146,0.447-0.356,0.396-0.708
		c-0.063-0.42-0.101-0.845-0.137-1.268c-0.007-0.084,0.038-0.174,0.061-0.26c0.086,0.026,0.195,0.027,0.254,0.084
		c0.281,0.274,0.564,0.549,0.814,0.852c0.289,0.352,0.586,0.477,1.02,0.242c0.283-0.154,0.604-0.255,0.92-0.335
		c0.264-0.067,0.357,0.08,0.262,0.331c-0.047,0.121-0.115,0.234-0.175,0.352c-0.533,1.068-0.533,1.068,0.276,1.945
		c0.11,0.121,0.24,0.229,0.332,0.361c0.067,0.098,0.09,0.227,0.131,0.343C92.78,31.871,92.653,31.894,92.463,31.929z"/>
	<path fill="#3D3D95" d="M32.257,95.689c0.772-1.177,0.166-1.896-0.892-2.462c-0.12-0.063-0.18-0.246-0.269-0.375
		c0.128-0.019,0.253-0.043,0.38-0.054c0.551-0.043,1.243,0.104,1.616-0.176c0.366-0.273,0.403-0.981,0.597-1.496
		c0.053-0.142,0.147-0.266,0.224-0.397c0.083,0.123,0.187,0.235,0.245,0.37c0.229,0.531,0.307,1.249,0.703,1.552
		c0.361,0.274,1.063,0.101,1.617,0.127c0.129,0.006,0.258,0.029,0.387,0.045c-0.09,0.112-0.154,0.265-0.271,0.33
		c-1.04,0.595-1.709,1.312-0.948,2.57c0.053,0.088-0.012,0.243-0.021,0.368c-0.116-0.024-0.232-0.047-0.35-0.075
		c-0.03-0.009-0.061-0.029-0.082-0.054c-0.828-0.885-1.645-0.844-2.469,0.011c-0.08,0.082-0.234,0.09-0.354,0.133
		C32.339,95.986,32.307,95.867,32.257,95.689z"/>
	<path fill="#3D3D95" d="M44.134,38.637c0.017,0.219,0.029,0.256,0.021,0.283c-0.07,0.186-0.146,0.369-0.221,0.553
		c-0.096-0.155-0.242-0.299-0.279-0.467c-0.129-0.604-0.185-1.228-0.338-1.823c-0.263-1.009-0.604-1.997-0.858-3.007
		c-0.151-0.594-0.224-1.209-0.292-1.821c-0.041-0.367,0.158-0.696,0.521-0.701c0.237-0.003,0.568,0.202,0.697,0.413
		c0.18,0.289,0.264,0.667,0.287,1.014c0.096,1.301,0.131,2.604,0.227,3.904C43.944,37.599,44.071,38.209,44.134,38.637z"/>
	<path fill="#3D3D95" d="M29.313,38.515c-0.064,0-0.143,0.022-0.192-0.005c-0.156-0.082-0.302-0.185-0.452-0.279
		c0.093-0.123,0.159-0.294,0.281-0.359c0.464-0.24,0.947-0.443,1.421-0.668c0.325-0.156,0.629-0.371,0.969-0.47
		c0.21-0.062,0.47,0.044,0.706,0.075c-0.089,0.195-0.132,0.436-0.273,0.578C31.196,37.955,29.95,38.506,29.313,38.515z"/>
	<path fill="#3D3D95" d="M45.315,41.793c-0.021,0.438-0.473,0.881-0.89,0.875c-0.499-0.009-0.901-0.465-0.866-0.981
		c0.032-0.47,0.455-0.838,0.926-0.81C44.938,40.905,45.336,41.347,45.315,41.793z"/>
	<path fill="#3D3D95" d="M61.282,29.937c0.125-0.079,0.238-0.208,0.312-0.188c0.91,0.233,1.816,0.483,2.717,0.75
		c0.068,0.021,0.118,0.211,0.117,0.321c-0.001,0.056-0.132,0.151-0.209,0.158c-0.96,0.076-1.912,0.095-2.65-0.685
		C61.481,30.2,61.407,30.092,61.282,29.937z"/>
	<path fill="#3D3D95" d="M101.083,69.559c0.016-0.021,0.031-0.044,0.047-0.064c-0.021,0.016-0.041,0.032-0.062,0.051L101.083,69.559
		z"/>
	<path fill="none" d="M49.86,74.068c-0.02,1.838-0.084,3.67-0.559,5.463c-0.468,1.771-1.465,3.229-2.809,4.418
		c-1.202,1.062-2.711,1.221-4.258,1.08c-1.83-0.17-3.465-0.93-5.119-1.646c-1.293-0.561-2.362-1.405-3.312-2.42
		c-0.562-0.604-1.09-1.236-1.122-2.127c-0.005-0.096-0.056-0.188-0.08-0.283c-0.328-1.221-0.777-1.53-1.981-1.29
		c-0.644,0.129-1.274,0.372-1.907,0.002c-0.833-0.488-1.557-1.119-2.027-1.959c-0.678-1.203-0.24-3.211,0.904-4.24
		c0.902-0.813,1.756-0.91,2.592-0.062c0.555,0.564,1.159,1.068,1.379,1.867c0.098,0.353,0.301,0.668,0.658,0.586
		c0.264-0.062,0.547-0.334,0.684-0.586c1.459-2.697,3.588-4.64,6.449-5.744c1.582-0.61,3.133-0.356,4.516,0.545
		c1.311,0.854,2.595,0.986,3.992,0.316c0.26-0.125,0.559-0.197,0.847-0.23c0.844-0.1,1.202,0.175,1.375,1.005
		c0.026,0.129,0.075,0.257,0.073,0.385c-0.004,0.281-0.035,0.562-0.055,0.844c-0.268-0.051-0.549-0.062-0.796-0.159
		c-0.872-0.341-1.743-0.236-2.612-0.021c-0.182,0.045-0.354,0.172-0.5,0.297c-0.271,0.229-0.451,0.572-0.211,0.852
		c0.105,0.123,0.599,0.088,0.771-0.054c0.78-0.632,1.582-0.728,2.465-0.276c0.44,0.225,0.695,0.521,0.656,1.078
		C49.819,72.489,49.86,73.279,49.86,74.068z M46.348,79.488c0.014-1.142-0.353-1.514-1.181-1.414
		c-1.749,0.209-3.498,0.41-5.248,0.609c-0.962,0.111-1.342,0.746-0.854,1.574c0.569,0.971,1.35,1.769,2.369,2.281
		c0.646,0.323,1.334,0.309,2.002,0.055c1.215-0.463,2.068-1.348,2.705-2.448C46.282,79.9,46.317,79.595,46.348,79.488z
		 M45.85,75.856c-0.137-0.418-0.373-1.129-0.589-1.844c-0.045-0.148-0.036-0.453,0.007-0.466c0.926-0.252,1.729-0.975,2.783-0.75
		c0.155,0.033,0.327,0.007,0.489-0.016c0.396-0.052,0.712-0.236,0.694-0.676c-0.017-0.418-0.385-0.504-0.711-0.532
		c-1.146-0.096-2.277,0.095-3.139,0.853c-0.535,0.472-0.836,0.832-1.477,0.199c-0.139-0.138-0.637-0.047-0.865,0.102
		c-0.107,0.07-0.057,0.572,0.072,0.788C43.35,73.9,43.704,74.213,44,74.56c0.816,0.959,0.738,1.418-0.344,2.062
		c-0.135,0.082-0.281,0.178-0.364,0.307c-0.224,0.339-0.052,0.746,0.342,0.843C44.354,77.945,45.864,77.269,45.85,75.856z
		 M39.883,71.08c0.262,0,0.542,0.058,0.779-0.02c0.183-0.057,0.38-0.26,0.439-0.441c0.043-0.128-0.092-0.419-0.221-0.479
		c-0.314-0.146-0.68-0.29-1.016-0.271c-0.682,0.037-1.379,0.112-2.029,0.303c-0.582,0.17-1.15,0.463-1.658,0.802
		c-0.507,0.338-0.627,0.864-0.352,1.164c0.41,0.45,0.787,0.1,1.117-0.136C37.831,71.373,38.801,71.056,39.883,71.08z M40.35,72.088
		c-1.246,0.101-2.16,0.569-2.968,1.273c-0.093,0.081-0.146,0.214-0.2,0.332c-0.207,0.449-0.018,0.795,0.471,0.799
		c0.211,0.002,0.477-0.062,0.625-0.197c0.67-0.606,1.457-0.844,2.336-0.875c0.291-0.011,0.591-0.043,0.865-0.129
		c0.159-0.052,0.369-0.219,0.39-0.356c0.019-0.142-0.136-0.394-0.272-0.449C41.149,72.301,40.675,72.187,40.35,72.088z
		 M30.696,75.858c0.013-1.165-1.1-2.593-2.065-2.808c-0.239-0.055-0.539-0.057-0.752,0.043c-0.202,0.094-0.408,0.332-0.459,0.545
		c-0.031,0.129,0.19,0.396,0.36,0.484c0.705,0.361,1.178,0.914,1.479,1.631c0.052,0.119,0.085,0.285,0.181,0.342
		c0.237,0.138,0.551,0.361,0.752,0.297C30.436,76.313,30.595,75.976,30.696,75.858z"/>
	<path fill="none" d="M79.608,76.189c0,0.294,0.008,0.59-0.002,0.884c-0.029,0.864-0.265,1.177-1.113,1.356
		c-0.477,0.102-0.971,0.127-1.459,0.162c-0.68,0.051-0.758,0.127-0.805,0.828c-0.023,0.356-0.037,0.721-0.111,1.068
		c-0.231,1.096-0.725,2.012-1.771,2.559c-0.315,0.166-0.61,0.391-0.875,0.633c-1.302,1.195-2.884,1.775-4.573,2.126
		c-0.838,0.173-1.625-0.03-2.393-0.354c-1.346-0.568-2.479-1.463-3.598-2.373c-0.916-0.746-1.883-1.459-2.387-2.57
		c-0.268-0.588-0.519-1.219-0.59-1.852c-0.24-2.148-0.396-4.305-0.592-6.459c-0.044-0.488-0.146-0.973-0.17-1.461
		c-0.035-0.802,0.307-1.168,1.109-1.117c0.838,0.051,1.535-0.184,2.166-0.729c0.812-0.703,1.607-0.537,2.203,0
		c1.276,1.149,2.736,1.502,4.375,0.924c1.078-0.381,2.146-0.798,3.213-1.21c0.646-0.249,1.272-0.354,1.994-0.319
		c1.449,0.066,1.893,1.109,2.377,2.144c0.092,0.195,0.008,0.514-0.074,0.746c-0.109,0.307-0.311,0.578-0.45,0.873
		c-0.353,0.737,0.062,1.389,0.881,1.387c0.159,0,0.317-0.078,0.479-0.102c1.213-0.181,2.113,0.545,2.194,1.774
		c0.023,0.358,0.005,0.722,0.005,1.084C79.631,76.189,79.621,76.189,79.608,76.189z M65.225,77.476
		c0.021,0.002,0.045,0.003,0.065,0.004c0,0.394-0.039,0.791,0.008,1.177c0.099,0.801,0.409,1.112,1.226,1.092
		c0.711-0.021,1.422-0.166,2.125-0.293c0.211-0.039,0.443-0.162,0.588-0.318c0.137-0.149,0.271-0.432,0.217-0.588
		c-0.053-0.146-0.356-0.281-0.549-0.277c-0.385,0.008-0.769,0.141-1.155,0.176c-0.983,0.096-1.228-0.191-1.104-1.176
		c0.084-0.68,0.116-1.367,0.156-2.051c0.025-0.467-0.181-0.805-0.592-1.047c-0.977-0.578-3.723-0.178-4.426,0.691
		c-0.137,0.172-0.117,0.469-0.17,0.706c0.229,0.043,0.479,0.162,0.686,0.111c0.312-0.076,0.578-0.328,0.889-0.402
		c0.529-0.128,1.076-0.222,1.619-0.243c0.491-0.021,0.684,0.299,0.616,0.784C65.348,76.371,65.291,76.924,65.225,77.476z
		 M68.554,84.129c1.654,0.023,3.198-1.703,2.948-3.297c-0.105-0.678-0.4-0.891-1.074-0.801c-1.517,0.197-3.033,0.393-4.552,0.578
		c-0.671,0.083-0.849,0.311-0.708,0.963C65.489,83.066,66.866,84.106,68.554,84.129z M71.858,71.606
		c-0.832,0.269-1.652,0.483-2.431,0.803c-0.448,0.185-0.618,0.832-0.377,1.177c0.315,0.444,0.644,0.102,0.938-0.054
		c0.777-0.405,1.578-0.629,2.457-0.42c0.222,0.054,0.44,0.188,0.656,0.175c0.229-0.013,0.623-0.13,0.641-0.246
		c0.033-0.236-0.062-0.634-0.236-0.734C73.013,72.019,72.453,71.848,71.858,71.606z M71.578,75.345
		c0.682,0.209,1.331,0.405,1.979,0.606c0.315,0.098,0.674,0.239,0.86-0.143c0.204-0.417-0.101-0.67-0.433-0.859
		c-0.756-0.436-1.588-0.639-2.443-0.566c-0.602,0.054-1.21,0.228-1.771,0.455c-0.324,0.132-0.561,0.5-0.316,0.9
		c0.246,0.404,0.589,0.293,0.941,0.119C70.763,75.674,71.151,75.527,71.578,75.345z M63.518,72.989
		c0.473,0.069,0.957,0.118,1.435,0.218c0.407,0.084,0.794,0.158,1.009-0.309c0.154-0.336-0.062-0.609-0.648-0.788
		c-0.373-0.114-0.769-0.269-1.145-0.246c-0.841,0.05-1.682,0.163-2.507,0.325c-0.359,0.068-0.665,0.359-0.539,0.799
		c0.132,0.463,0.522,0.281,0.825,0.245C62.464,73.17,62.977,73.075,63.518,72.989z"/>
	<path fill="none" d="M40.69,52.166c1.861,0.01,3.463,0.742,4.961,1.717c1.752,1.14,3.179,2.621,4.348,4.352
		c0.056,0.082,0.104,0.168,0.15,0.253c0.486,0.833,0.438,0.968-0.47,1.16c-1.606,0.344-3.173,0.798-4.599,1.635
		c-0.48,0.281-0.878,0.203-1.232-0.179c-0.176-0.188-0.334-0.405-0.455-0.633c-1.254-2.314-2.724-4.473-4.568-6.363
		c-0.09-0.094-0.18-0.191-0.26-0.294c-0.467-0.606-0.344-1.128,0.396-1.353C39.516,52.295,40.112,52.26,40.69,52.166z"/>
	<path fill="none" d="M32.553,65.424c0.038-3.069,0.274-5.668,0.989-8.199c0.168-0.596,0.396-1.178,0.649-1.743
		c0.215-0.478,0.513-0.509,0.771-0.053c0.515,0.907,1.033,1.823,1.418,2.79c0.749,1.878,1.392,3.8,2.112,5.688
		c0.189,0.49,0.101,0.799-0.311,1.084c-1.56,1.079-3.104,2.18-4.672,3.245c-0.506,0.345-0.74,0.208-0.799-0.429
		C32.628,66.866,32.585,65.92,32.553,65.424z"/>
	<path fill="none" d="M83.927,64.972c-1.241,0.055-1.55-0.159-1.841-1.078c-0.133-0.417-0.089-0.774,0.191-1.099
		c0.408-0.467,0.824-0.926,1.242-1.383c0.133-0.145,0.303-0.257,0.426-0.406c0.248-0.295,0.203-0.799-0.082-1.058
		c-0.305-0.276-0.553-0.05-0.774,0.13c-0.433,0.348-0.823,0.748-1.267,1.08c-0.19,0.141-0.486,0.268-0.701,0.227
		c-0.854-0.161-1.504-1.807-0.958-2.479c0.7-0.862,1.456-1.684,2.239-2.472c0.584-0.588,1.406-0.401,1.86,0.427
		c0.378,0.685,0.677,1.416,0.97,2.144c0.453,1.119,0.871,2.252,1.306,3.381c0.047,0.121,0.104,0.242,0.134,0.367
		c0.324,1.312-0.012,1.838-1.338,2.053C84.819,64.889,84.295,64.929,83.927,64.972z"/>
	<path fill="none" d="M45.888,65.433c-1.374-0.124-2.349-0.247-3.327-0.289c-0.675-0.029-1.354,0.057-2.029,0.08
		c-0.166,0.006-0.334-0.031-0.502-0.048c0.117-0.137,0.213-0.303,0.356-0.399c0.216-0.146,0.466-0.237,0.698-0.358
		c3.074-1.59,6.327-2.658,9.729-3.271c0.432-0.078,0.943-0.064,1.338,0.098c0.869,0.359,1.697,0.824,2.52,1.287
		c0.201,0.115,0.312,0.391,0.465,0.592c-0.224,0.102-0.438,0.233-0.672,0.295c-0.283,0.073-0.581,0.093-0.874,0.123
		c-1.837,0.193-3.542,0.902-5.31,1.367C47.368,65.147,46.436,65.313,45.888,65.433z"/>
	<path fill="none" d="M25.813,67.7c0.239-1.202,0.369-2.422,0.742-3.562c0.508-1.55,1.172-3.054,1.838-4.546
		c0.219-0.489,0.633-0.899,0.988-1.32c0.078-0.093,0.284-0.079,0.432-0.114c0.012,0.154,0.069,0.324,0.026,0.46
		c-0.306,0.967-0.601,1.938-0.955,2.885c-0.776,2.08-1.254,4.193-0.948,6.435c0.102,0.737,0.041,1.449-0.627,1.955
		c-0.438,0.332-0.709,0.308-0.906-0.205C26.159,69.051,26.008,68.379,25.813,67.7z"/>
	<path fill="none" d="M57.899,71.824c-0.481,0.557-0.023,0.865,0.267,1.251c0.095,0.126,0.008,0.39,0.004,0.589
		c-0.169-0.021-0.356-0.005-0.505-0.074c-0.342-0.16-0.652-0.389-0.995-0.547c-0.563-0.256-0.634-0.594-0.165-1.02
		c0.217-0.197,0.448-0.381,0.695-0.533c0.121-0.074,0.324-0.123,0.438-0.07C57.752,71.476,57.802,71.668,57.899,71.824z"/>
	<path fill="none" d="M65.791,33.049c-0.173,1.056-0.317,1.925-0.45,2.796c-0.079,0.52-0.081,0.938,0.428,1.366
		c0.815,0.688,0.754,0.775,0.105,1.701c-0.037,0.053-0.061,0.12-0.104,0.164c-0.391,0.377-0.783,0.75-1.177,1.123
		c-0.473-0.393-0.956-0.773-1.414-1.183c-0.272-0.242-0.081-0.449,0.093-0.666c0.545-0.687,0.56-0.716-0.109-1.321
		c-0.346-0.312-0.276-0.429,0.105-0.562c0.853-0.295,1.375-0.842,1.369-1.801c-0.002-0.572-0.219-1.013-0.718-1.303
		c-0.198-0.115-0.437-0.188-0.588-0.343c-0.11-0.113-0.155-0.338-0.138-0.503c0.009-0.064,0.275-0.16,0.41-0.141
		c0.646,0.095,1.289,0.201,1.922,0.356C65.67,32.77,65.762,33.016,65.791,33.049z"/>
	<path fill="none" d="M62.233,35.888c-0.76-0.007-1.338-0.55-1.351-1.263c-0.012-0.703,0.599-1.324,1.302-1.328
		c0.728-0.004,1.416,0.652,1.428,1.357C63.622,35.338,63,35.895,62.233,35.888z"/>
	<path fill="none" d="M87.905,43.443c-0.026,0.977-0.941,1.877-1.898,1.873c-1.092-0.006-2.307-1.189-2.188-2.218
		c0.1-0.876,0.684-1.817,1.955-1.785C86.913,41.34,87.934,42.36,87.905,43.443z"/>
	<path fill="none" d="M85.307,46.522c-0.258,0.351-0.476,0.667-0.716,0.964c-0.603,0.749-0.623,0.768-1.387,0.217
		c-1.36-0.981-1.415-0.593-0.369-2.197c0.178-0.271,0.401-0.513,0.604-0.768c0.213,0.203,0.416,0.417,0.643,0.604
		c0.199,0.166,0.447,0.277,0.636,0.457C84.923,45.996,85.084,46.241,85.307,46.522z"/>
	<path fill="none" d="M73.208,38.66c-1.104,0.02-2.035-0.83-2.021-1.844c0.012-0.969,0.859-1.893,1.77-1.927
		c1.056-0.041,2.08,0.922,2.07,1.948C75.016,37.838,74.212,38.644,73.208,38.66z"/>
	<path fill="none" d="M36.091,45.772c-0.075-0.052-0.211-0.103-0.276-0.199c-0.315-0.456-0.619-0.919-0.912-1.389
		c-0.172-0.271-0.096-0.479,0.189-0.642c0.82-0.467,1.639-0.938,2.445-1.429c0.295-0.18,0.486-0.112,0.643,0.161
		c0.258,0.452,0.54,0.895,0.754,1.368c0.068,0.157,0.025,0.507-0.088,0.58c-0.822,0.526-1.675,1.004-2.521,1.493
		C36.274,45.748,36.204,45.748,36.091,45.772z"/>
	<path fill="#3D3D95" d="M46.348,79.488c-0.033,0.105-0.066,0.412-0.209,0.657c-0.636,1.103-1.488,1.985-2.703,2.448
		c-0.668,0.254-1.355,0.27-2.002-0.055c-1.021-0.514-1.801-1.312-2.369-2.281c-0.486-0.826-0.107-1.463,0.854-1.574
		c1.75-0.199,3.499-0.4,5.247-0.609C45.997,77.976,46.362,78.348,46.348,79.488z M44.412,79.496
		c-1.416,0.104-2.618,0.188-3.819,0.283c-0.342,0.027-0.393,0.243-0.178,0.459c0.412,0.413,0.826,0.836,1.299,1.174
		c0.779,0.562,1.01,0.531,1.73-0.047c0.381-0.307,0.771-0.609,1.113-0.956c0.16-0.163,0.346-0.474,0.288-0.634
		C44.78,79.601,44.453,79.52,44.412,79.496z"/>
	<path fill="#3D3D95" d="M45.85,75.856c0.014,1.414-1.496,2.09-2.214,1.914c-0.396-0.097-0.563-0.504-0.343-0.843
		c0.084-0.129,0.23-0.225,0.365-0.307c1.082-0.645,1.16-1.104,0.343-2.062c-0.296-0.347-0.647-0.659-0.884-1.045
		c-0.131-0.216-0.182-0.718-0.073-0.788c0.229-0.146,0.729-0.238,0.866-0.102c0.64,0.633,0.939,0.271,1.476-0.199
		c0.86-0.758,1.992-0.947,3.14-0.853c0.326,0.028,0.693,0.116,0.711,0.532c0.017,0.439-0.299,0.624-0.695,0.676
		c-0.162,0.02-0.334,0.049-0.488,0.016c-1.056-0.225-1.857,0.498-2.783,0.75c-0.045,0.013-0.052,0.316-0.007,0.466
		C45.477,74.728,45.713,75.438,45.85,75.856z"/>
	<path fill="#3D3D95" d="M39.883,71.08c-1.081-0.024-2.054,0.293-2.938,0.922c-0.332,0.234-0.707,0.586-1.118,0.138
		c-0.275-0.302-0.155-0.828,0.352-1.166c0.509-0.339,1.075-0.632,1.658-0.802c0.651-0.189,1.349-0.266,2.03-0.303
		c0.335-0.019,0.699,0.127,1.015,0.271c0.129,0.06,0.263,0.352,0.222,0.479c-0.062,0.182-0.259,0.385-0.44,0.441
		C40.425,71.138,40.145,71.08,39.883,71.08z"/>
	<path fill="#3D3D95" d="M40.35,72.088c0.324,0.099,0.799,0.213,1.245,0.396c0.138,0.057,0.291,0.309,0.272,0.449
		c-0.02,0.139-0.229,0.306-0.389,0.355c-0.274,0.088-0.576,0.119-0.867,0.131c-0.879,0.03-1.666,0.268-2.334,0.875
		c-0.149,0.135-0.414,0.199-0.625,0.196c-0.488-0.004-0.678-0.35-0.471-0.799c0.055-0.117,0.106-0.251,0.2-0.332
		C38.19,72.657,39.104,72.188,40.35,72.088z"/>
	<path fill="#3D3D95" d="M30.696,75.858c-0.101,0.116-0.26,0.454-0.504,0.534c-0.203,0.064-0.515-0.159-0.752-0.297
		c-0.097-0.057-0.129-0.223-0.181-0.342c-0.303-0.717-0.774-1.269-1.479-1.631c-0.17-0.088-0.393-0.355-0.36-0.484
		c0.051-0.213,0.256-0.451,0.459-0.545c0.213-0.1,0.513-0.098,0.751-0.043C29.596,73.267,30.708,74.693,30.696,75.858z"/>
	<path fill="#3D3D95" d="M65.225,77.476c0.064-0.552,0.122-1.104,0.197-1.654c0.066-0.485-0.126-0.805-0.617-0.782
		c-0.542,0.021-1.089,0.113-1.617,0.241c-0.312,0.074-0.578,0.326-0.89,0.402c-0.207,0.051-0.456-0.068-0.687-0.111
		c0.054-0.237,0.033-0.534,0.172-0.705c0.701-0.87,3.447-1.271,4.425-0.692c0.411,0.242,0.616,0.582,0.591,1.047
		c-0.039,0.686-0.072,1.371-0.156,2.051c-0.121,0.984,0.121,1.271,1.105,1.177c0.388-0.036,0.771-0.167,1.156-0.177
		c0.189-0.004,0.496,0.133,0.548,0.277c0.055,0.156-0.08,0.438-0.218,0.589c-0.144,0.157-0.377,0.278-0.588,0.317
		c-0.703,0.127-1.414,0.272-2.123,0.293c-0.816,0.021-1.129-0.291-1.227-1.091c-0.047-0.387-0.008-0.784-0.008-1.178
		C65.27,77.479,65.248,77.478,65.225,77.476z"/>
	<path fill="#3D3D95" d="M68.554,84.129c-1.688-0.022-3.065-1.062-3.386-2.558c-0.141-0.651,0.037-0.88,0.708-0.962
		c1.519-0.186,3.035-0.381,4.552-0.578c0.676-0.09,0.969,0.123,1.074,0.801C71.753,82.426,70.209,84.152,68.554,84.129z
		 M69.514,81.197c-0.699,0.072-1.478,0.128-2.246,0.24c-0.561,0.082-0.623,0.33-0.258,0.794c0.87,1.099,2.82,0.817,3.408-0.491
		c0.12-0.264,0.04-0.451-0.245-0.508C69.985,81.195,69.787,81.209,69.514,81.197z"/>
	<path fill="#3D3D95" d="M71.858,71.606c0.595,0.24,1.155,0.412,1.648,0.699c0.176,0.102,0.271,0.498,0.236,0.733
		c-0.018,0.117-0.411,0.234-0.641,0.248c-0.216,0.012-0.436-0.121-0.656-0.176c-0.879-0.209-1.68,0.014-2.457,0.42
		c-0.295,0.154-0.623,0.498-0.938,0.053c-0.241-0.344-0.071-0.992,0.377-1.176C70.206,72.09,71.026,71.875,71.858,71.606z"/>
	<path fill="#3D3D95" d="M71.578,75.345c-0.427,0.184-0.813,0.329-1.185,0.514c-0.353,0.174-0.693,0.285-0.939-0.119
		c-0.243-0.399-0.008-0.77,0.314-0.899c0.562-0.229,1.172-0.402,1.773-0.455c0.855-0.072,1.688,0.131,2.443,0.565
		c0.332,0.189,0.637,0.443,0.433,0.859c-0.188,0.381-0.545,0.239-0.86,0.144C72.909,75.75,72.258,75.554,71.578,75.345z"/>
	<path fill="#3D3D95" d="M63.518,72.989c-0.541,0.086-1.054,0.181-1.568,0.244c-0.303,0.036-0.694,0.218-0.827-0.245
		c-0.126-0.439,0.181-0.73,0.539-0.799c0.825-0.162,1.667-0.275,2.507-0.325c0.376-0.022,0.771,0.132,1.146,0.246
		c0.584,0.179,0.801,0.452,0.647,0.788c-0.216,0.467-0.603,0.393-1.01,0.309C64.475,73.107,63.989,73.06,63.518,72.989z"/>
	<path fill="none" d="M44.412,79.496c0.041,0.022,0.37,0.104,0.435,0.279c0.059,0.159-0.128,0.471-0.289,0.634
		c-0.342,0.347-0.73,0.649-1.111,0.956c-0.724,0.578-0.953,0.607-1.731,0.047c-0.472-0.338-0.887-0.761-1.299-1.174
		c-0.216-0.216-0.164-0.432,0.178-0.459C41.793,79.685,42.996,79.601,44.412,79.496z"/>
	<path fill="none" d="M69.514,81.197c0.271,0.012,0.471-0.002,0.659,0.035c0.285,0.057,0.365,0.244,0.245,0.508
		c-0.588,1.309-2.538,1.59-3.408,0.491c-0.365-0.464-0.303-0.712,0.258-0.794C68.038,81.325,68.815,81.271,69.514,81.197z"/>
</g>
</svg>
