<?xml version="1.0" encoding="utf-8"?>
<!-- Generator: Adobe Illustrator 16.0.0, SVG Export Plug-In . SVG Version: 6.00 Build 0)  -->
<!DOCTYPE svg PUBLIC "-//W3C//DTD SVG 1.1//EN" "http://www.w3.org/Graphics/SVG/1.1/DTD/svg11.dtd">
<svg version="1.1" id="Layer_1" xmlns="http://www.w3.org/2000/svg" xmlns:xlink="http://www.w3.org/1999/xlink" x="0px" y="0px"
	 width="348px" height="329px" viewBox="0 0 348 329" enable-background="new 0 0 348 329" xml:space="preserve">
<path fill="#FED079" d="M173.727,104.452c1.693-0.153,2.459,0.911,3.119,2.258c5.301,10.797,10.711,21.541,15.896,32.394
	c1.291,2.704,2.928,3.897,5.953,4.289c12.016,1.555,23.992,3.443,35.988,5.17c1.469,0.212,2.467,0.805,2.918,2.273
	c0.441,1.439-0.23,2.407-1.186,3.34c-8.783,8.594-17.504,17.251-26.373,25.755c-1.932,1.853-2.418,3.629-1.945,6.213
	c2.16,11.862,4.15,23.756,6.156,35.646c0.24,1.419,0.48,3.009-1.025,3.971c-1.438,0.92-2.883,0.527-4.309-0.227
	c-10.686-5.652-21.41-11.235-32.053-16.966c-2.248-1.211-4-1.22-6.307,0.028c-10.684,5.791-21.49,11.353-32.248,17.007
	c-1.365,0.718-2.764,1.081-4.098,0.113c-1.363-0.987-1.301-2.376-1.025-3.937c2.213-12.559,4.391-25.124,6.418-37.713
	c0.162-1-0.607-2.468-1.4-3.255c-7.152-7.086-14.408-14.065-21.629-21.082c-1.816-1.767-3.586-3.583-5.428-5.322
	c-1.1-1.04-1.762-2.209-1.277-3.713c0.49-1.521,1.725-1.94,3.238-2.157c9.871-1.422,19.73-2.937,29.596-4.4
	c2.559-0.38,5.123-0.742,7.695-1.022c1.846-0.201,2.885-1.197,3.682-2.83c5.473-11.207,11.018-22.378,16.527-33.565
	C171.26,105.399,172.006,104.269,173.727,104.452z"/>
</svg>
