<?xml version="1.0" encoding="utf-8"?>
<!-- Generator: Adobe Illustrator 16.0.0, SVG Export Plug-In . SVG Version: 6.00 Build 0)  -->
<!DOCTYPE svg PUBLIC "-//W3C//DTD SVG 1.1//EN" "http://www.w3.org/Graphics/SVG/1.1/DTD/svg11.dtd">
<svg version="1.1" id="Layer_1" xmlns="http://www.w3.org/2000/svg" xmlns:xlink="http://www.w3.org/1999/xlink" x="0px" y="0px"
	 width="612px" height="792px" viewBox="0 0 612 792" enable-background="new 0 0 612 792" xml:space="preserve">
<g>
	<g>
		<path fill="#76381A" d="M300.533,218.823c7.593,1.104,14.136-3.268,20.911,0.354c0.147,1.331,0.308,2.759,0.438,3.946
			c-3.364,4.156-6.302,8.18-9.657,11.819c-3.239,3.515-6.91,6.632-10.465,9.993c2.988,3.684,6.709,3.814,10.285,3.969
			c3.821,0.164,7.743,0.413,11.465-0.251c3.389-0.604,6.567-2.382,9.972-3.694c1.011,2.197,0.545,3.956-1.067,5.061
			c-2.156,1.476-4.437,3.146-6.899,3.729c-8.092,1.913-16.275,3.413-24.654,1.514c-1.602-0.363-3.337-0.102-4.974-0.359
			c-1.369-0.215-2.684-0.768-4.025-1.172c0.103-5.597,0.986-9.959,6.284-12.366c4.117-1.871,6.934-5.54,9.994-8.739
			c1.408-1.473,2.137-3.598,3.687-6.335c-2.65-0.04-4.386-0.239-6.079-0.055c-3.458,0.376-6.88,1.14-10.344,1.418
			c-7.321,0.589-14.518,0.135-21.39-2.924c-3.914-1.743-6.137-4.398-5.927-8.823c0.03-0.654-0.156-1.318-0.218-1.793
			c1.212-5.38,5.595-5.041,10.11-5.424c-0.861-5.088-1.979-9.854-2.396-14.682c-0.404-4.692-0.088-9.446-0.088-14.645
			c-6.171-1.648-12.346-3.298-18.771-5.015c-1.737-1.356-3.85-2.883-5.821-4.574c-2.853-2.447-3.041-6.13-3.921-9.41
			c-0.691-2.579-0.757-5.327-1.177-8.596c1.606-0.807,3.413-1.715,4.799-2.411c3.055,1.162,5.495,2.091,7.534,2.866
			c3.661,3.484,6.955,6.912,10.568,9.958c2.529,2.131,5.766,2.931,8.983,3.868c9.277,2.703,18.845,3.466,28.325,4.749
			c4.52,0.61,9.016,2.286,13.777,0.695c1.29-0.432,3.101,0.691,4.903,1.162c0,1.657,0,3.069,0,4.477
			c-2.324,1.734-4.565,2.839-7.449,1.916c-0.896-0.286-2.044-0.221-2.96,0.062c-5.381,1.657-10.896,0.809-16.352,1.037
			c-3.696,0.154-7.387,0.443-10.843,0.658c-0.307,0.838-0.589,1.202-0.509,1.447c1.818,5.529,1.033,10.907-0.238,16.47
			c-0.861,3.765-2.106,7.763-0.528,11.766c0.661,1.676-1.575,3.977,1.398,5.397c3.826-0.062,7.966,0.087,11.871-2.3
			c2.8-4.69,4.038-9.904,4.114-15.504c0.037-2.702,0.562-5.396,0.897-8.384c4.31,0.75,6.542,2.84,7.919,6.64
			C308.69,203.668,309.566,213.204,300.533,218.823z"/>
		<path fill="#76391A" d="M461.663,279.047c2.251-8.372,4.477-15.625,6.112-23.01c1.756-7.925,3.394-15.925,4.291-23.979
			c1.101-9.877-1.854-13.63-11.126-16.56c-7.888-2.491-15.902-3.255-24.09-2.29c-1.769,0.209-3.504,0.695-5.144,1.032
			c-4.562-4.45-4.052-9.256,1.336-12.119c-2.412-10.536-3.777-21.179-0.388-32.019c6.406,3.043,7.584,5.209,6.771,12.144
			c3.321,0.116,6.788-1.987,9.896,0.062c2.854,1.885,5.477,4.125,7.907,5.985c-0.115,3.686-1.815,5.675-4.093,7.186
			c-4.821,3.199-9.717,6.29-14.659,9.475c-1.036-0.207-2.076-0.414-3.19-0.636c0.047,0.57,0.036,1.1,0.1,1.109
			c1.442,0.208,2.892,0.452,4.344,0.506c8.774,0.325,17.487,1.038,25.801,4.161c2.169,0.815,4.335,1.723,6.345,2.864
			c5.161,2.931,8.397,9.889,6.964,15.785c-2.023,8.332-3.528,16.782-6.714,24.854c-2.353,5.959-3.721,12.317-5.357,18.542
			C465.731,276.084,465.465,276.761,461.663,279.047z M451.3,190.192c-2.755-0.46-5.032-0.84-6.992-1.167
			c-2.709,2.239-2.856,4.775-3.195,7.659C444.783,194.894,448.54,194.121,451.3,190.192z"/>
		<path fill="#76391A" d="M139.837,209.235c0,1.301,0,2.203,0,3.022c-3.156,2.109-6.327,3.207-9.885,3.586
			c-8.221,0.877-16.399,2.17-24.627,2.952c-4.615,0.439-9.296,0.162-13.946,0.279c-2.437,0.062-4.87,0.278-7.379,1.027
			c-4.313-1.081-8.625-2.172-12.941-3.243c-8.349-2.07-12.517-7.785-14.159-15.894c-0.753-3.719-1.757-7.424-2.581-11.103
			c-1.145-5.108-0.935-10.551,1.536-16.368c1.283-0.891,3.15-2.188,4.856-3.371c4.437,1.188,7.053,4.05,9.453,6.982
			c0.594,2.233,1.145,4.309,1.696,6.385c-0.157-0.014-0.313-0.026-0.47-0.039c-0.315,6.076-0.63,12.152-0.987,19.046
			c2.34,5.22,8.22,6.285,13.584,7.525c9.898,2.289,20.05,3.321,30.19,2.611c7.227-0.506,14.544-0.863,21.617-2.838
			C137.008,209.457,138.312,209.438,139.837,209.235z"/>
		<path fill="#232020" d="M166.138,339.116c0.921-1.036,2.127-2.394,3.437-3.867c1.766,0,3.557,0,5.389,0
			c3.879,5.068,4.022,10.552,1.723,15.96c-1.744,4.103-1.415,8.426-2.313,12.595c-0.233,1.078,0.69,2.405,1.071,3.583
			c6.543-1.478,14.191-11.887,16.633-22.228c3.283-3.446,3.283-3.446,6.355-4.521c0.384,0.213,0.863,0.393,1.228,0.705
			c0.371,0.317,0.628,0.768,1.078,1.342c-0.623,3.712-4.486,7.302-0.814,11.912c1.968,0.796,4.371,1.768,7.028,2.842
			c1.833-8.175,3.556-15.857,5.261-23.458c2.84-1.551,5.209-1.77,7.105,0.785c-1.759,7.768-3.726,15.289-5.115,22.916
			c-1.349,7.406-2.104,14.92-3.182,22.841c-4.292-2.328-3.307-6.092-3.738-9.076c-0.467-3.234-0.105-6.59-0.105-10.507
			c-3.498,0.312-6.537,0.583-10.228,0.912c-0.144,4.17-0.276,8.016-0.403,11.713c-2.703,1.333-3.833,0.145-4.178-1.998
			c-0.448-2.783-0.675-5.602-0.987-8.406c-0.14-1.254-0.253-2.511-0.46-4.572c-2.504,3.388-5.034,5.925-6.45,8.979
			c-1.374,2.962-3.732,4.649-6.013,6.431c-3.155,2.465-6.715,1.473-9.53-1.644c-2.642-2.925-3.293-6.516-3.785-10.067
			c-0.629-4.555-0.936-9.196-0.854-13.791C164.34,345.651,165.368,342.823,166.138,339.116z"/>
		<path fill="#76391A" d="M433.701,283.803c1.787,5.843-3.398,9.436-3.062,14.603c3.222,0.747,5.77-0.441,7.66-2.497
			c2.573-2.796,5.165-5.743,6.948-9.056c2.219-4.124,3.621-8.688,4.657-13.526c1.692-1.191,3.388-2.382,5.145-3.618
			c2.471,2.214,2.24,4.541,1.451,7.04c-1.599,5.07-3.03,10.178-2.435,16.072c0.827-0.594,1.433-0.975,1.979-1.425
			c6.677-5.515,14.576-6.923,22.891-6.58c6.292,0.261,12.583,0.738,18.845,1.405c2.229,0.237,4.367,1.319,6.317,1.942
			c0.646,4.562,0.001,5.87-3.452,5.747c-4.283-0.152-8.534-1.085-12.817-1.489c-5.603-0.529-11.217-0.918-16.833-1.256
			c-1.125-0.068-2.283,0.34-3.42,0.562c-6.05,1.186-9.876,4.649-10.622,10.9c-0.339,2.84-1.585,5.015-3.617,6.948
			c-1.193-0.529-2.408-1.068-3.584-1.59c-2.759-4.326-1.521-9.349-2.642-14.66c-5.74,7.922-12.099,13.185-22.64,9.519
			c0.205-1.857,0.218-3.625,0.63-5.294c0.514-2.079,1.221-4.139,2.092-6.096c1.069-2.405,0.77-4.513-1.345-7.31
			c-2.513-0.881-5.776-2.012-9.033-3.169c-4.268-1.517-5.678-3.563-5.573-8.037C417.85,270.901,426.376,275.075,433.701,283.803z"/>
		<path fill="#76391A" d="M125.25,297.999c0.893-0.985,1.555-1.716,2.29-2.527c0.941,0.275,1.903,0.498,2.817,0.848
			c0.448,0.171,0.806,0.575,1.17,0.849c1.454,2.413,0.366,4.367-1.466,5.629c-2.167,1.492-4.583,3.049-7.094,3.533
			c-6.289,1.216-12.671,2.195-19.058,2.575c-3.899,0.231-7.972-0.429-11.796-1.379c-7.93-1.97-12.819-7.408-15.244-15.053
			c-2.412-7.607-4.011-15.22-3.347-23.441c0.447-5.547,1.343-10.717,3.673-15.944c1.086-0.23,2.333-0.496,4.045-0.859
			c2.057,3.729,4.101,7.436,6.203,11.247c-2.73,5.819-2.868,12.052-2.05,18.343c0.319,2.449,0.939,4.885,1.669,7.251
			c2.338,7.582,7.824,11.301,15.688,10.769c3.795-0.257,7.59-0.512,11.38-0.82C117.759,298.722,121.38,298.356,125.25,297.999z"/>
		<path fill="#232020" d="M179.865,550.657c-3.829,3.382-8,5.323-13.184,3.245c-2.738-1.099-4.883-2.784-5.964-5.625
			c-1.288-3.386-2.587-6.768-3.822-9.995c1.728-4.531,3.012-5.395,6.923-4.364c3.815,1.004,7.574,2.224,10.233,3.015
			c3.006,0.195,5.248-0.298,6.676,0.562c3.333,2.007,6.681,1.575,10.128,1.146c1.9-0.235,1.892-0.308,4.296,0.922
			c-0.467,1.271-0.952,2.593-1.532,4.173c4.428,0,9.105,0,14.076,0c0-6.243,0-12.132,0-18.733c1.667,0.283,3.703,0.02,4.521,0.893
			c1.834,1.959,3.397,4.044,3.32,7.337c-0.267,11.418-2.487,22.403-6.196,33.131c-0.627,1.812-1.69,3.508-2.75,5.126
			c-0.397,0.605-1.362,0.84-2.122,1.274c-0.591-0.712-1.115-1.341-1.689-2.03c1.518-7.463,4.155-14.673,4.284-22.994
			c-3.649,1.364-6.821,2.552-10.118,3.783c-5.323,7.711-11.094,8.286-15.978,1.479c0-1.809,0-3.618,0-5.312
			c-1.881-1.179-3.413-2.137-5.077-3.178c-2.283,0.712-4.911,0.56-6.518,3.446c2.964,4.208,6.811,1.167,10.161,0.996
			C179.679,549.705,179.772,550.182,179.865,550.657z M190.354,545.108c-3.37,2.661-3.797,3.318-4.484,6.906
			c3.306,2.304,6.056,0.779,8.743-1.021C193.148,548.971,191.829,547.148,190.354,545.108z"/>
		<path fill="#232020" d="M179.663,392.666c-1.483-2.992-2.791-5.629-3.909-7.884c2.184-5.333,3.872-6.354,8.506-5.276
			c3.531,0.821,7.013,1.854,10.213,2.712c2.324,2.049,4.496,3.848,6.537,5.784c4.538,4.305,7.95,9.266,8.903,15.642
			c0.763,5.106-1.383,9.374-4.263,14.013c7.464,0.938,14.332-0.638,21.755-1.301c-0.554,0.979-0.715,1.737-1.158,1.978
			c-5.06,2.727-9.81,6.133-15.845,6.637c-9.743,0.812-19.238-0.152-28.455-3.479c-0.604-0.22-1.112-0.7-1.616-1.027
			c-1.568-5.344-0.219-8.791,4.605-10.677c1.038,1.604,2.142,3.309,3.68,5.686c2.987,0.751,6.646,1.672,10.227,2.572
			c4.836-8.886,1.539-18.111-5.992-20.289C188.421,396.472,184.204,394.446,179.663,392.666z"/>
		<path fill="#232020" d="M75.881,383.289c2.823,0.447,5.071,0.803,7.656,1.213c2.588,1.789,2.99,4.615,2.606,8.067
			c-2.732,2.689-4.621,6.017-4.929,10.24c-0.427,5.85,3.288,9.735,9.068,8.935c4.922-0.684,9.245-2.621,12.366-6.742
			c1.306-7.025,2.676-14.037,9.817-18.243c1.147,0.962,2.12,1.777,3.452,2.894c-1.419,3.707-2.793,7.298-4.377,11.435
			c3.837,0.584,7.219,1.098,10.875,1.653c2.619-5.941,2.029-12.485,2.858-18.478c5.579-0.516,5.915-0.344,7.599,3.34
			c-3.966,9.338-5.213,19.093-5.345,29.11c-0.047,3.596-0.869,7.192-1.492,10.763c-0.146,0.838-0.921,1.566-1.978,3.261
			c-3.133-8.542-0.911-16.514-1.584-24.655c-4.308,0.613-8.336,1.188-12.77,1.819c-0.378,3.075-0.711,5.782-1.067,8.68
			c-4.67,0.069-4.021-4.692-6.051-6.31c-3.668,1.854-7.093,3.866-10.73,5.361c-7.957,3.271-15.322-0.173-17.66-8.393
			c-0.842-2.961-0.98-6.239-0.815-9.34c0.227-4.277,1.023-8.526,1.637-12.778C75.104,384.525,75.544,383.981,75.881,383.289z"/>
		<path fill="#77391A" d="M98.245,271.006c0.928-0.641,1.986-1.37,2.853-1.968c3.095,1.017,6.117,1.516,8.628,2.924
			c8.967,5.027,18.768,7.267,28.695,9.14c4.545,0.858,9.128,1.753,13.795,0.906c0.801-0.146,1.567-0.487,2.601-0.818
			c0.481-1.861,0.972-3.762,1.518-5.875c3.521-0.925,6.945-3.765,11.206-0.974c0.052,0.919,0.442,2.031,0.105,2.841
			c-2.021,4.861-0.598,9.836-0.692,14.754c-0.08,4.152,0.005,8.315-0.283,12.453c-0.22,3.158-1.676,5.631-5.577,6.44
			c-0.684-1.734-1.325-3.358-1.944-4.928c2.473-7.071-0.89-13.668-0.44-21.155c-1.8,0.588-2.769,0.727-3.55,1.186
			c-8.877,5.205-18.483,5.117-28.039,3.217c-7.452-1.482-14.775-3.785-21.997-6.2C100.051,281.252,97.483,277.361,98.245,271.006z"
			/>
		<path fill="#773A1B" d="M484.15,224.291c-0.884-3.509-3.917-6.28-0.133-9.654c1.63,0.533,3.307,1.081,5.578,1.824
			c0.463-1.607,1.139-3.085,1.28-4.612c0.396-4.237,2.062-8.417,0.353-12.789c-0.416-1.067,0.456-2.579,0.473-3.889
			c0.038-3.222-0.077-6.444-0.884-9.714c0.421-0.708,0.843-1.417,1.302-2.188c4.907-1.229,8.658,1.011,12.348,3.978
			c1.025,4.092,1.014,8.122-1.505,11.983c3.677,1.132,5.094,4.17,7.064,6.68c-0.996,5.65-5.421,8.706-9.215,12.971
			c8.344,0.179,15.999,0.228,23.685-0.723c7.815-0.967,15.693-1.437,23.534-2.222c2.049-0.206,4.062-0.785,6.565-1.288
			c-0.104,0.81,0.092,1.956-0.361,2.347c-1.715,1.475-3.473,3.138-5.521,3.926c-3.357,1.29-6.912,2.483-10.461,2.778
			c-10.92,0.907-21.87,1.685-32.82,1.892C498.37,225.723,491.287,224.765,484.15,224.291z M496.292,192.998
			c0,0,0.552,4.471,2.021,4.033c0.75-0.562,0.863-1.732,1.031-2.656c0.451-2.468,0.661-4.332-0.546-6.253
			c-0.532-3.296,2.718-0.926,0,0c-0.348-0.706-2.714,0.001-2.547,2.543 M498.692,203.255c-1.111,4.883-2.033,8.933-2.959,13.001
			c4.399-0.891,6.626-3.389,6.997-8.118c0.158-2.03-0.096-4.092-0.18-6.684C500.619,202.355,499.459,202.897,498.692,203.255z"/>
		<path fill="#232020" d="M101.823,440.358c-3.233-1.89-6.204-1.579-9.2-1.217c-1.607,0.194-3.306,0.597-4.834,0.279
			c-4.086-0.847-7.859,0.131-11.674,1.389c-3.795-1.331-6.762-3.429-7.142-8.274c0.451-1.047,1.035-2.401,1.479-3.432
			c2.958-2.559,6.048-3.158,9.53-3.142c8.293,0.042,15.871,2.585,23.25,6.01c0.597,0.276,1.247,0.602,1.66,1.084
			c4.179,4.896,10.104,5.113,15.795,6.049c3.267,0.536,6.631,0.938,9.709,2.062c6.054,2.215,8.059,6.049,7.023,12.488
			c-0.551,3.429-1.299,6.825-2.008,10.493c-1.046,0.425-2.194,0.893-3.167,1.289c-1.96-1.612-0.729-3.012-0.342-4.339
			c0.601-2.062,1.626-4.039,1.957-6.134c0.916-5.798-2.35-10.018-8.222-9.894c-4.712,0.1-9.401,1.286-14.149,1.998
			c-1.778,6.204-2.391,12.392-7.667,16.806c-0.725,0-1.825,0-2.801,0c-1.932-2.193-1.613-4.459-0.938-6.754
			c0.888-3.02,1.834-6.02,2.697-9.043C103.546,445.401,103.194,442.849,101.823,440.358z"/>
		<path fill="#76391A" d="M334.277,184.404c3.392-0.781,6.564-0.311,9.253,1.431c6.545,4.239,13.653,6.656,22.157,7.489
			c-0.967,1.656-1.723,2.953-2.342,4.015c-7.062,1.618-13.985-0.271-20.678,1.361c-1.146,4.466-4.403,8.686,1.134,12.253
			c5.03,0.822,10.097,1.868,15.31,0.031c2.454,0.889,5.71,0.455,6.893,4.208c-3.648,2.983-7.728,5.742-8.794,11.369
			c3.457,2.55,7.337,2.521,11.105,1.265c3.687-1.229,7.157-3.101,10.947-4.79c0.325,3.79-1.962,6.196-4.676,7.442
			c-7.023,3.226-14.383,4.874-22.283,2.014c-0.77-1.427-1.543-2.859-2.413-4.473c1.667-3.103,3.292-6.123,5.12-9.525
			c-6.858-0.974-13.999-0.013-19.991-6.01c-0.323-2.141-1.22-5.062-1.104-7.942c0.203-5.001-0.27-9.812-1.702-14.6
			C331.611,187.925,332.157,185.98,334.277,184.404z"/>
		<path fill="#77391A" d="M196.453,270.51c0.551,1.397,1.093,2.771,1.649,4.18c-0.644,2.606-1.28,5.178-1.972,7.979
			c3.306,0.591,7.104,0.337,8.717,4.279c-0.457,8.28-9.262,13.312-16.997,9.581c-1.211-2.612-1.337-5.265-0.11-8.063
			c0.859-1.959,1.4-4.06,2.058-6.104c0.738-2.294,0.876-4.534-0.784-6.793c-4.944-1.335-10.006-2.702-14.893-4.021
			c-5.092-5.056-5.092-5.056-4.796-9.413c3.321-0.72,6.506-1.405,9.772,0.96c1.475,1.068,3.657,1.161,5.473,1.683
			c1.516-2.352-0.156-3.55-1.375-4.83c-3.019-3.172-5.304-6.817-6.562-10.984c-0.882-2.922-1.715-6.009,0.25-9.276
			c10.723,4.258,13.251,13.496,15.682,22.928c-0.958,1.27-1.733,2.296-2.8,3.711C191.916,267.669,193.952,268.943,196.453,270.51z
			 M198.239,288.955c-0.752-0.778-1.305-1.86-2.062-2.031c-1.716-0.386-2.657,0.642-2.789,2.447
			C194.874,290.819,196.271,290.309,198.239,288.955z"/>
		<path fill="#232020" d="M95.567,372.408c7.313-0.259,13.879-0.518,20.342-3.527c0.204,0.783,0.397,1.526,0.614,2.362
			c-5.018,4.313-11.388,5.153-17.435,6.469c-6.648,1.445-13.427,1.494-20.114-0.47c-4.427-1.3-5.88-4.536-3.631-9.333
			c4.812,2.562,9.813,4.628,15.948,4.271c2.344-5.239,2.615-10.719,1.117-16.271c-1.585-5.876-6.472-8.218-13.507-9.815
			c-3.274,1.183-5.852-2.795-9.252-5.408c0.687-1.689,1.301-3.202,1.93-4.749c1.345-0.705,2.66-1.396,3.758-1.972
			c7.688-1.654,17.444,3.915,22.643,12.665C103.058,355.177,101.54,365.454,95.567,372.408z"/>
		<path fill="#232020" d="M111.409,538.076c4.813,3.631-1.015,6.506-1.026,9.479c5.323,1.337,10.356,2.604,15.395,3.869
			c-0.625,3.436-2.827,5.423-7.03,5.696c-3.628,0.236-7.284,0.049-11.516,0.049c-0.283,1.569-0.647,3.291-0.891,5.029
			c-0.248,1.769-0.153,3.67-2.377,4.576c-2.528-2.354-2.403-5.646-3.038-8.413c-3.045,1.915-5.797,4.063-8.882,5.501
			c-7.219,3.363-12.852,0.329-14.351-7.439c-0.251-1.301-0.62-2.64-0.536-3.936c0.481-7.429,1.001-14.855,1.688-22.268
			c0.242-2.618,1.363-4.849,4.645-5.004c3.496,1.33,4.688,4.321,5.176,7.076c-1.869,6.414-3.836,12.198-5.172,18.124
			c-0.752,3.338-0.614,6.954,2.878,9.678c6.464-0.221,10.882-3.973,14.268-9.148c1.705-2.607,2.918-5.537,4.349-8.323
			C106.297,540.079,108.396,538.646,111.409,538.076z"/>
		<path fill="#232020" d="M198.608,451.931c0.15-0.642,0.3-1.282,0.451-1.925c0.328-0.832,0.656-1.663,0.983-2.494
			c-0.261-0.163-0.521-0.326-0.782-0.488c-0.42,0.321-0.84,0.646-1.26,0.968c-3.468,0.926-6.936,1.852-10.475,2.796
			c0.664,4.47,3.772,7.41,9.043,7.989c5.633,0.617,11.26,0.85,16.861-0.417c1.433-0.324,2.932-0.353,4.693-0.549
			c0.506,1.78,0.984,3.461,1.552,5.457c-1.877,1.122-3.821,2.285-5.242,3.136c-3.175-0.13-5.788-0.471-8.367-0.298
			c-6.553,0.436-12.168-2.639-17.979-4.762c-3.411-1.245-4.16-3.985-3.357-7.835c0.128-0.616,0.197-1.245,0.357-2.283
			c-3.246,0.158-6.352,2.036-9.5-0.304c-0.374-1.141-0.82-2.503-1.339-4.089c-2.588,0.804-5.097,1.582-7.326,2.274
			c-2.053,1.777-0.795,5.171-4.213,6.589c0-2.037,0.055-3.582-0.012-5.122c-0.127-2.965-0.426-5.927-0.448-8.892
			c-0.011-1.516,0.423-3.034,0.771-5.299c1.871,1.418,3.003,2.277,4.128,3.13c0,1.82,0,3.408,0,5.45
			c2.521-0.138,4.938-0.269,7.927-0.432c0.418-3.98,0.807-7.685,1.197-11.403c4.417-1.08,4.257,4.992,8.492,4.702
			c4.018-1.91,8.583,0.438,13.155,0.21c0.394,3.028-1.6,3.52-3.932,3.889c-1.958,0.312-4.389-0.226-5.569,2.31
			c3.862,1.32,6.709,1.361,11.3,0.146c0.066-2.79,1.083-5.688-0.683-8.466c0-1.396,0-2.794,0-4.336
			c1.026,0.089,1.563-0.006,1.944,0.195c1.007,0.53,1.947,1.189,3.087,1.909c0,6.04,0.092,11.956-3.251,17.283
			c-0.236,0.382-0.473,0.763-0.709,1.145l0.009-0.008C199.613,452.05,199.111,451.99,198.608,451.931z M183.752,447.829
			c-0.155-4.231-0.155-4.231-4.496-4.99c0,1.581,0,3.108,0,4.99C180.999,447.829,182.371,447.829,183.752,447.829z"/>
		<path fill="#232020" d="M230.925,501.163c1.225-1.657,2.111-2.856,3.162-4.278c0-3.226-0.007-6.673,0.002-10.12
			c0.007-2.572-0.851-4.771-2.394-6.863c-1.371-1.858-2.465-3.995-0.955-6.358c2.564-1.551,4.05,0.412,6.102,1.482
			c0.667,3.399,1.333,6.794,2.035,10.378c2.461,3.478,8.024,2.167,11.331,6.556c-2.046,0.726-3.408,1.208-4.776,1.693
			c0.412,0.678,0.916,1.508,1.526,2.514c-0.997,1.697-1.989,3.385-2.979,5.069c2.208,1.959,4.328,3.84,6.825,6.055
			c1.221,2.091-1.188,3.737-2.234,6.443c2.096-0.662,3.542-1.118,4.987-1.574c0.193,0.171,0.387,0.342,0.58,0.514
			c-0.601,0.741-1.057,1.731-1.827,2.183c-3.57,2.087-7.459,3.538-11.551,3.934c-4.433,0.428-8.921,0.456-13.38,0.37
			c-3.526-0.068-6.231-1.972-8.75-5.136c1.477-6.344,3.786-12.509,7.383-18.028c3.803,0.748,2.75,3.838,4.213,5.314
			c-1.921,3.751-5.257,6.265-5.408,10.599c2.853,4.15,7.259,2.916,11.467,3.226c1.719-2.92,3.436-5.836,5.582-9.481
			c-3.218-0.172-5.619-0.3-8.552-0.455C232.591,503.972,231.715,502.494,230.925,501.163z M241.041,493.03
			c-0.57-0.062-1.511-0.165-2.586-0.282c-0.78,2.516-1.503,4.845-2.349,7.57c1.372,0.386,2.515,0.707,4.305,1.209
			C240.641,498.429,240.833,495.844,241.041,493.03z M241.541,511.489c0.196,0.354,0.394,0.711,0.59,1.064
			c2.637,0.025,4.686-0.946,5.906-3.838c-0.747-0.703-1.401-1.317-2.371-2.23C244.144,508.332,242.843,509.911,241.541,511.489z"/>
		<path fill="#76391A" d="M414.704,218.62c6.022,7.004,9.979,7.161,20.42,1.596c-0.832,5.293-4.439,7.799-11.869,8.241
			c-8.115,0.483-12.515-3.037-14.643-12.031c-7.673,7.248-16.913,7.418-26.231,6.36c-4.354-2.343-4.887-6.516-5.179-10.409
			c-0.413-5.521,0.351-11.041,1.774-16.425c0.118-0.443,0.496-0.818,0.74-1.204c4.438,1.387,6.129,4.634,5.009,9.515
			c-0.48,2.094-1.136,4.156-1.471,6.271c-0.229,1.454-0.044,2.974-0.044,5.106c1.396,0.964,3.1,2.142,4.449,3.074
			c5.729-0.496,10.67-1.627,15.123-4.492c4.415-2.84,7.824-6.312,9.58-11.497c0.97-2.864,3.062-5.348,4.745-8.161
			c1.57,0.626,2.562,1.021,3.384,1.349c0.103,0.671,0.232,1,0.188,1.304c-0.665,4.409-1.904,8.553-4.027,12.584
			C415.264,212.438,415.273,215.812,414.704,218.62z"/>
		<path fill="#242121" d="M318.982,605.952c-2.766,5.261-5.679,10.45-8.245,15.806c-1.882,3.926-3.763,7.763-7.394,10.534
			c-2.029-0.719-1.874-2.426-1.28-3.997c3.867-10.245,7.532-20.586,15.44-28.7c1.905-1.955,3.229-4.478,5.265-7.373
			c-0.042,0.021,0.697-0.331,1.646-0.78c0-2.239,0-4.55,0-7.234c-0.683-2.163-2.646-3.345-5.047-3.79
			c-3.267-0.604-6.553-1.186-9.856-1.457c-2.948-0.242-5.935-0.051-9.287-0.051c1.175,3.622-0.025,6.365-1.817,9.023
			c-1.596,2.368-3.718,3.724-6.796,4.13c-0.726-0.633-1.563-1.361-2.623-2.284c1.258-4.905,1.025-10.14,3.91-14.498
			c6.114-0.329,11.889-0.886,17.661-0.863c3.772,0.015,7.575,0.688,11.305,1.386c6.062,1.138,9.942,5.718,6.922,14.183
			c-0.912,2.556-1.614,5.187-1.645,8.242c-1.727,1.255-3.451,2.51-5.179,3.764c-0.299,0.373-0.598,0.746-0.896,1.119l0.044-0.054
			c-0.319,0.385-0.64,0.768-0.959,1.149l0.08-0.074C319.814,604.737,319.398,605.345,318.982,605.952z M295.85,581.123
			c-3.705,3.756-3.998,4.764-2.327,7.375C297.771,584.88,297.771,584.88,295.85,581.123z"/>
		<path fill="#773A1B" d="M144.8,182.933c3.87,4.275,6.733,8.662,5.101,14.67c-0.161,0.592,0.205,1.309,0.217,1.97
			c0.185,9.65,3.845,13.764,13.333,14.219c6.241,0.299,12.571,1.223,18.73-0.908c0.574-0.198,1.3,0.042,2.335,0.099
			c0.225,1.225,0.447,2.432,0.659,3.586c-3.292,3.382-7.545,3.433-11.285,3.737c-6.057,0.494-12.205,0.037-18.307-0.21
			c-6.787-0.275-12.577-4.816-14.038-11.952c-1.247-6.087-1.81-12.313-2.637-18.2C141.114,187.49,141.165,184.104,144.8,182.933z"/>
		<path fill="#773A1A" d="M222.181,318.892c-0.89-3.867-1.698-7.377-2.514-10.92c-14.129,3.771-27.565,3.401-40.613-1.41
			c-4.409-6.198-4.125-10.448,0.761-14.286c0.281,0.146,0.746,0.234,0.814,0.449c1.789,5.639,6.372,7.555,11.508,9.002
			c7.87,2.218,15.784,3.554,23.969,2.382c0.49-0.07,0.983-0.16,1.453-0.311c0.306-0.099,0.571-0.324,1.429-0.835
			c0.155-2.028,0.34-4.442,0.569-7.42c0.965-1.518,1.612-4.211,4.95-4.252c3.032,2.131,3.209,5.48,3.274,8.807
			c0.085,4.42,0.117,8.845,0.004,13.264C227.685,317.216,226.519,318.305,222.181,318.892z"/>
		<path fill="#242020" d="M90.812,484.171c-0.585,2.777-0.749,5.866-1.932,8.498c-1.1,2.447-2.968,4.805-5.071,6.481
			c-2.8,2.232-5.321,1.382-6.911-1.806c-2.054-4.119-2.764-8.492-1.896-13.053c0.497-2.607,1.046-5.206,1.624-7.797
			c1.185-5.316,1.269-5.376,6.311-6.279c9.543,3.587,17.509,9.651,28.018,9.363c0,1.63,0,2.998,0,5.058
			c-3.587-0.167-6.792-0.376-10-0.45C97.675,484.113,94.393,484.171,90.812,484.171z M85.239,484.966
			c-2.534,2.816-2.534,2.816-0.41,5.075C84.973,488.261,85.079,486.95,85.239,484.966z"/>
		<path fill="#77391A" d="M309.49,305.679c0-1.246-0.191-2.531,0.034-3.737c0.822-4.394,1.583-8.815,2.76-13.12
			c0.928-3.396,0.588-6.519-0.852-10.369c-10.009-1.801-20.329-3.658-30.503-5.49c-1.659-2.185-3.902-3.949-2.719-7.297
			c6.968,0.029,13.68,0.058,20.312,2.755c4.514,1.837,9.527,2.619,14.396,3.348c3.744,0.561,6.388,2.51,8.912,4.912
			c1.356,3.776-0.887,6.877-1.809,10.113c-1.532,5.388-3.547,10.64-5.361,15.947C313.823,305.191,313.021,305.689,309.49,305.679z"
			/>
		<path fill="#77391A" d="M247.914,308.403c0-2.538,0-4.82,0-7.354c-3.359-0.51-6.602-1.002-9.942-1.509
			c-2.818-2.573-4.645-5.502-3.836-9.439c1.948-1.614,3.86-1.697,5.627-0.298c5.453,4.321,11.935,4.367,18.393,4.674
			c2.593,0.123,5.174,0.488,8.299,0.796c-2.692,5.865-8.843,4.078-12.384,6.917c0.032,3.278,2.481,4.403,4.611,5.37
			c1.911,0.868,4.151,1.255,6.273,1.369c5.961,0.32,11.957,0.762,18.848-1.57c0.785,0.758,1.796,1.733,2.806,2.709
			c-0.259,0.312-0.519,0.624-0.777,0.937c-0.228,0.412-0.381,0.893-0.693,1.225c-2.149,2.287-5.196,2.134-7.89,2.485
			c-6.963,0.91-13.941,0.397-20.793-1.107C252.128,312.657,251.622,312.165,247.914,308.403z"/>
		<path fill="#242021" d="M341.742,510.226c-1.914,1.215-3.731,2.367-5.547,3.52c-1.667,0-3.302,0-5,0
			c-2.787-2.995-3.542-6.578-2.94-10.234c0.767-4.648,0.441-9.748,4.337-14.417c1.637,2.033,2.82,3.503,3.932,4.882
			c-2.188,4.712-4.269,9.134-3.987,14.187c5.091,0.917,8.964-1.693,9.83-6.376c0.722-3.903,1.384-7.83,2.391-11.663
			c0.581-2.211,1.646-4.34,2.784-6.341c0.548-0.964,1.767-1.546,2.757-2.363c2.797,2.66,3.186,5.093,1.967,8.075
			c-0.932,2.282-1.527,4.718-2.077,7.131c-0.195,0.863,0.188,1.858,0.313,2.85c3.66,1.274,8.078,0.155,10.44,4.161
			c-2.513,4.225-7.083,2.646-11.134,3.85c-0.781,2.518-1.637,5.264-2.813,9.053C344.884,514,343.396,512.212,341.742,510.226z"/>
		<path fill="#76391A" d="M334.413,300.657c-1.545-1.385-2.901-2.601-4.513-4.045c-0.562-9.581,2.838-18.214,6.56-27.022
			c5.182,1.094,5.21,5.1,6.089,7.883c-2.12,4.803-4.037,9.144-5.753,13.029c1.738,4.539,5.239,5.096,8.453,5.201
			c7.104,0.232,14.283,0.651,21.196-1.766c0.438-0.153,0.975-0.021,1.734-0.021c0.574,1.086,1.167,2.207,1.78,3.367
			c-1.724,2.229-3.916,3.466-6.339,3.86C354.288,302.66,344.859,304.308,334.413,300.657z"/>
		<path fill="#242121" d="M239.609,450.554c2.898,2.121,6.088,4.457,9.184,6.724c1.154-0.305,2.067-0.545,2.967-0.781
			c1.717,2.128-0.078,3.465-0.621,4.897c-5.44,3.089-9.287-0.472-13.205-2.734c-4.169-1.219-5.203,3.315-8.588,4.074
			c-0.733-1.378-1.553-2.918-2.397-4.506c0.398-1.677,0.437-3.477,1.219-4.854c3.615-6.365,3.399-13.408,3.724-20.314
			c0.12-2.532,0.625-4.441,2.695-5.78c6.539,2.48,8.111,4.873,7.183,11.187C241.194,442.367,240.389,446.235,239.609,450.554z"/>
		<path fill="#252121" d="M188.342,589.377c0,1.887,0,3.625,0,5.352c2.52,4.265,7.708,0.779,11.104,3.928
			c-1.464,2.715-2.931,5.437-4.545,8.431c4.38,3.601,10.082,1.749,15.026,3.304c-3.664,4.652-10.023,5.014-19.496,1.204
			c-0.446-1.145-0.973-2.498-1.509-3.873c1.211-1.81,2.3-3.437,3.618-5.403c-6.809-2.379-10.875-6.577-9.371-13.871
			c-4.04-2.925-9.14-4.456-8.012-10.91c1.393-0.068,2.768-0.474,3.926-0.136c6.967,2.035,13.892,4.217,20.801,6.439
			c0.466,0.15,0.692,1.047,1.308,2.047C197.588,588.932,193.181,588.533,188.342,589.377z"/>
		<path fill="#77391B" d="M227.509,198.388c-1.857,1.342-3.433,2.482-4.461,3.226c-4.646,0-8.58-0.149-12.498,0.034
			c-5.787,0.271-11.489,0.586-17.314-0.426c-10.119-1.757-14.964-8.295-17.441-17.432c-0.301-1.107-0.475-2.25-0.812-3.888
			c0.896-1.775,1.98-3.922,3.013-5.968c4.888,1.399,7.038,3.339,6.89,7.735c-0.305,9.026,4.839,14.41,15.592,14.332
			c1.978-0.015,3.955,0.397,5.938,0.5c4.938,0.258,9.852,0.972,14.786-0.531C224.538,194.954,224.722,195.257,227.509,198.388z"/>
		<path fill="#242121" d="M140.895,586.276c-0.312,5.122-1.687,9.685-6.398,10.791c-3.66,0.858-7.087,2.632-10.878,2.866
			c-1.126,0.069-2.271-0.152-4.055-0.292c-0.459-1.833-1.347-3.68-1.291-5.497c0.127-4.123,0.742-8.231,1.113-12.351
			c0.292-3.233,1.372-6.114,3.425-8.5c2.826-0.999,4.87-0.142,6.844,1.83c1.594,1.593,3.508,2.942,5.469,4.072
			C138.009,580.859,140.01,583.084,140.895,586.276z M123.759,593.062c8.894,0.008,9.962-0.498,12.084-5.576
			c-2.538-0.191-4.931-0.371-7.269-0.548C126.991,588.953,125.62,590.696,123.759,593.062z"/>
		<path fill="#242121" d="M405.601,600.809c0.111-1.123,0.21-2.248,0.338-3.369c0.679-6.039,1.317-12.082,2.07-18.111
			c0.279-2.236,1.29-4.1,3.856-5.065c0.704,0.752,1.454,1.554,2.442,2.607c-2.103,4.538-3.734,9.173-1.26,14.681
			c5.812-0.595,11.839-1.188,17.854-1.889c0.348-0.04,0.597-0.936,1.176-1.909c1.781,1.472,3.496,2.89,4.986,4.121
			c0.681,2.34,1.263,4.341,2.057,7.071c-9.231-2.839-18.175-1.552-27.521-0.625c0,5.071,0,10.068,0,15.186
			c-3.286,1.29-3.673-2.104-5.662-2.906c0.424-1.414,0.752-2.509,1.079-3.603C408.473,604.025,408.407,603.74,405.601,600.809z"/>
		<path fill="#763A1B" d="M373.044,291.186c2.619-1.251,4.339-2.072,6.483-3.097c-3.584-5.142-9.062-5.381-14.084-7.266
			c-0.726-1.281-1.604-2.835-2.577-4.556c0.713-1.297,1.409-2.562,2.351-4.272c1.238,0.216,2.585,0.159,3.642,0.686
			c3.844,1.915,7.656,3.912,11.343,6.112c1.81,1.079,3.263,2.738,4.965,4.018c4.295,3.229,8.641,6.392,13.616,8.946
			c0.921,1.87,1.842,3.74,2.694,5.474c-3.376,3.295-4.918,3.583-7.47,1.674c-3.209-2.4-6.418-4.8-9.378-7.013
			c-3.439,1.613-6.518,3.056-10.349,4.853C373.773,294.463,373.419,292.871,373.044,291.186z"/>
		<path fill="#773A1B" d="M234.198,247.416c4.729,1.366,4.756,5.749,6.511,7.853c-0.135,4.467-0.428,8.253-0.316,12.027
			c0.121,4.105,2.104,6.974,5.928,8.99c3.905,2.06,8.07,2.792,12.228,3.793c2.483,0.599,4.923,1.377,7.578,2.13
			c-1.82,3.618-4.816,4.412-7.444,3.875c-6.234-1.275-12.669-1.815-18.281-5.691c-2.981-2.06-5.061-4.557-5.823-7.63
			c-1.747-7.04-3.332-14.217-1.652-21.562C233.213,249.939,233.748,248.734,234.198,247.416z"/>
		<path fill="#252222" d="M330.953,529.271c0.6-0.478,1.602-1.273,3.047-2.424c2.324,2.487,4.521,4.836,6.304,6.743
			c-0.798,6.903-1.498,12.954-2.216,19.166c8.854,5.165,16.592,0.29,24.777-1.381c-0.497,0.763-0.716,1.479-1.194,1.775
			c-6.488,4.002-13.085,7.741-21.087,7.498c-6.57-0.2-9.699-2.966-10.356-9.592c-0.292-2.95-0.103-5.961,0.01-8.938
			C330.384,538.168,330.669,534.221,330.953,529.271z"/>
		<path fill="#773A1C" d="M262.053,232.654c-0.3,2.118-1.756,2.782-3.661,3.3c-8.732,2.373-17.658,3.083-26.642,3.104
			c-6.623,0.015-13.312,0.32-19.711-2.016c-0.935-0.342-1.906-0.605-2.802-1.027c-6.22-2.929-6.971-6.395-2.408-12.312
			c5.885,8.224,14.58,9.472,23.715,9.486c6.156,0.011,12.316-0.001,18.467-0.211c2.635-0.089,5.284-0.561,7.866-1.134
			C258.729,231.434,260.418,231.017,262.053,232.654z"/>
		<path fill="#242121" d="M114.346,605.151c0.333,0.27,0.664,0.771,1,0.773c5.446,0.059,10.899-0.114,16.338,0.097
			c10.298,0.399,13.77,4.841,11.536,14.85c-1.926,8.63-5.313,16.768-9.067,24.747c-0.328,0.698-0.914,1.274-1.703,2.349
			c-1.252-3.767,0.102-6.562,1.1-9.467c1.828-5.32,3.604-10.665,5.133-16.076c0.567-2.007,0.38-4.228,0.551-6.537
			c-7.255-5.458-14.902-2.401-22.401-1.971c-3.498-1.214-4.716-4.146-5.308-7.533c-0.509-0.068-1-0.136-1.492-0.203
			C111.05,604.068,112.859,605.285,114.346,605.151z"/>
		<path fill="#252121" d="M157.266,507.617c0.516-4.761,0.971-8.954,1.453-13.404c-1.729,0-2.975,0-4.211,0
			c-2.134,3.797-1.751,8.654-5.908,11.76c-0.684-1.212-1.28-2.267-1.776-3.146c2.158-9.589,3.51-18.873,0.314-28.237
			c-0.433-1.267-0.06-2.808-0.06-4.985c2.211,0.654,3.706,1.099,4.967,1.473c3.758,4.396,3.397,9.533,3.467,14.437
			c0.033,2.311,0.201,3.882,2.797,4.437c2.345-3.46-1.329-7.62,1.426-11.721c1.782,1.463,3.223,2.646,4.916,4.033
			c-0.96,7.059-1.805,13.961-2.878,20.829C161.32,505.986,160.998,506.064,157.266,507.617z"/>
		<path fill="#252121" d="M286.849,604.271c1.747,11.648-3.912,21.676-7.983,32.213c-0.046-0.812-0.289-1.67-0.105-2.427
			c1.216-4.988,2.688-9.923,3.733-14.945c0.533-2.561,0.581-5.281,0.435-7.906c-0.176-3.146-1.672-4.37-4.854-4.388
			c-1.821-0.011-3.642,0.248-5.465,0.34c-5.275,0.265-10.553,0.506-15.516,0.741c-4.949-3.578-5.012-3.689-4.729-8.303
			c2.506-0.799,4.971-0.2,7.571,0.027c5.703,0.499,11.476,0.171,17.215,0.326C281.7,600.074,283.836,601.116,286.849,604.271z"/>
		<path fill="#252221" d="M240.511,387.234c3.987,2.563,2.652,6.353,2.85,9.762c3.92,1.967,8.757,1.144,12.245,4.148
			c-1.623,1.938-1.623,1.938-13.816,2.034c-1.115,2.108-2.311,4.368-3.881,7.337c8.359,0.974,16.097,1.333,23.947-0.189
			c0.375,1.875-0.695,2.943-2.076,3.503c-9.074,3.676-18.245,4.467-27.493,0.591c-0.288-0.12-0.494-0.436-1.192-1.077
			c0-1.805,0-4.023,0-6.528c1.59-0.459,2.946-0.852,4.419-1.276c2.071-3.562,3.406-7.344,2.827-11.715
			C238.036,391.525,238.299,389.172,240.511,387.234z"/>
		<path fill="#252121" d="M272.434,562.165c1.943,2.003,3.273,3.374,4.454,4.591c0,1.832,0,3.311,0,4.294
			c-2.957,3.507-5.599,6.638-7.94,9.415c3.622,3.58,6.817,6.737,10.186,10.065c-0.423,0.705-0.816,1.36-1.284,2.142
			c-2.584-1.429-4.995-2.762-7.44-4.113c-5.303,1.484-5.609,8.543-11.36,9.496c-1.956-3.018-1.423-6.356-0.317-9.34
			c1.953-5.265,4.377-10.361,6.755-15.459c1.187-2.546,2.656-4.968,4.098-7.386C270.226,564.791,271.114,563.859,272.434,562.165z"
			/>
		<path fill="#242121" d="M247.838,543.506c1.087-2.737,1.926-5.609,3.317-8.182c2.493-4.609,5.319-9.038,7.922-13.4
			c3.998,1.021,3.998,1.021,6.029,4.954c-3.506,5.845-7.038,11.732-10.517,17.531c4.598,3.91,4.347,3.755,11.101,3.327
			c-0.482,2.309-1.713,3.365-3.952,3.36c-2.631-0.006-5.263-0.001-8.196-0.001c-1.938,3.203-3.867,6.392-6.129,10.127
			c-3.256-4.643-2.563-8.914-1.314-13.244C246.679,546.488,247.258,544.997,247.838,543.506z"/>
		<path fill="#773A1B" d="M195.022,214.434c-1.238-1.508-2.496-3.042-4.045-4.932c0.157-1.448,0.344-3.167,0.586-5.406
			c5.229,0.329,9.833,1.096,14.211,3.012c8.22,3.596,16.609,6.499,25.719,6.642c0.793,0.012,1.599,0.11,2.37,0.293
			c0.619,0.147,1.194,0.481,1.937,0.795c0,0.846,0,1.616,0,2.813C221.985,218.758,208.474,217.759,195.022,214.434z"/>
		<path fill="#242121" d="M114.346,605.151c-1.487,0.134-3.296-1.083-4.312,1.027c-3.465,1.489-7.051,2.686-8.154,7.1
			c-0.298,1.193-2.044,2.026-3.619,3.48c-0.934-0.871-2.292-1.536-2.51-2.468c-0.436-1.864-0.804-4.062-0.221-5.791
			c2.728-8.096,3.379-16.487,4.171-24.882c0.11-1.174,0.728-2.299,1.278-3.952c2.284,1.295,3.958,2.243,5.931,3.362
			c0.799,6.242-1.61,12.296-1.723,18.695c4.226-1.207,8.422-3.786,11.874,1.66C116.095,604.015,115.221,604.583,114.346,605.151z"/>
		<path fill="#252121" d="M316.607,507.081c3.146-5.062,3.146-9.789,3.365-14.945c-2.154,0.212-4.008,0.395-6.191,0.607
			c-0.825,3.856-1.073,8.218-6.013,10.471c-0.205-1.368-0.754-2.661-0.514-3.784c1.603-7.468,0.832-14.519-3.182-21.117
			c-0.156-0.258-0.1-0.645-0.141-0.971c2.896-1.979,2.896-1.979,7.957,0.699c0.473,2.449,1.026,5.324,1.609,8.353
			c1.982,0.441,4.033,0.897,6.141,1.367c3.774-3.375-2.447-7.122,0.419-10.609c2.801-0.489,4.015,1.784,5.841,3.006
			c0.352,8.016-1.316,15.44-3.957,22.64C321.286,504.585,320.143,506.645,316.607,507.081z"/>
		<path fill="#242220" d="M224.837,484.751c2.373,5.118-1.188,9.387-3.413,13.464c-4.734,0.475-9.014,0.902-13.902,1.393
			c-2.307-1.108-2.16-3.749-1.468-6.124c1.196-4.103,1.15-8.153,0.484-12.273c-0.381-2.36,0.202-4.375,2.392-5.5
			c2.092-1.075,4.103-0.719,5.957,0.861C217.967,479.195,221.135,481.717,224.837,484.751z M220.038,493.966
			c0.321-2.24,0.561-3.913,0.853-5.955c-1.967-0.538-3.494-0.956-4.555-1.246c-3.489,1.587-3.336,4.434-4.36,7.201
			C214.678,493.966,216.918,493.966,220.038,493.966z"/>
		<path fill="#252121" d="M282.038,503.875c-0.517-5.354-0.975-10.076-1.427-14.8c-0.204-2.13-0.54-4.263-0.535-6.395
			c0.003-1.062,0.641-2.125,0.938-3.025c5.973-1.13,6.368-0.896,9.68,5.58c1.413,0.819,2.988,1.74,4.57,2.651
			c5.447,3.141,6.377,6.993,2.964,12.333c-0.362,0.566-0.752,1.114-0.502,0.745c-2.737,0.696-4.404,1.067-6.037,1.55
			c-1.897,0.562-3.729,1.433-5.659,1.767C284.74,504.506,283.329,504.029,282.038,503.875z M296.953,494.458
			c-2.875-2.286-6.02-2.124-9.053,0.86c-0.35,0.767-0.929,2.037-1.553,3.407C291.141,499.271,295.41,497.475,296.953,494.458z"/>
		<path fill="#252121" d="M161.692,610.953c-3.108,1.484-1.501,6.732-5.99,7.206c-1.954-3.475-2.197-6.875-0.465-10.378
			c2.541-5.14,5.026-10.324,10.708-12.988c1.551,3.653,1.551,3.653-1.122,10.788c3.556,2.67,7.25,5.403,10.899,8.196
			c3.39,2.594,7.935,4,9.619,8.634c-2.538,2.095-4.725,1.317-6.774,0.223c-5.676-3.034-11.479-5.909-15.73-11
			C162.542,611.281,162.004,611.132,161.692,610.953z"/>
		<path fill="#252122" d="M229.563,589.575c0.609,2.245,1.218,4.491,1.692,6.239c-4.171,5.649-7.392,7.053-12.054,5.688
			c-1.203-3.076,1.157-4.893,2.506-7.072c1.393-2.248,2.757-4.514,4.159-6.812c-2.841-3.591-5.953-1.061-9.623-0.913
			c-1.273-1.027-3.009-2.426-4.736-3.817c2.479-3.189,2.479-3.189,13.686-2.593c1.304-4.439-2.776-9.349,0.772-13.665
			c3.095-0.027,4.239,2.391,5.902,4.169C233.137,577.42,228.335,583.167,229.563,589.575z M227.776,591.979
			c-1.842,2.255-3.332,3.394-3.562,5.724C227.609,596.162,227.609,596.162,227.776,591.979z"/>
		<path fill="#272323" d="M247.838,543.506c-0.58,1.491-1.159,2.982-1.739,4.475c0-0.5,0-1,0-1.831
			c-3.173,0.756-6.275,1.493-9.77,2.325c-3.138,2.985,2.125,7.586-1.409,10.775c-2.885-1.938-3.201-2.631-3.966-8.804
			c-2.706,1.306-5.405,2.608-7.611,3.674c-4.33-0.901-4.811-3.957-4.902-6.688c-0.15-4.475-0.603-9.221,3.216-13.062
			c2.831,2.314,2.518,4.938,1.769,7.48c-0.719,2.442-1.069,4.788-0.236,7.361c4.085,0.794,6.189-1.915,8.354-4.015
			c2.069-5.332,2.065-11.364,7.363-15.659c0.964,1.402,1.73,2.518,2.419,3.52c-1.375,3.263-2.584,6.132-3.858,9.154
			C241.075,543.961,244.487,543.49,247.838,543.506z"/>
		<path fill="#242121" d="M139.636,502.385c-2.26,0.525-4.155,1.104-6.094,1.376c-1.952,0.273-3.946,0.24-6.112,0.353
			c-2.704-1.453-3.053-3.914-2.227-6.698c1.334-4.492,1.702-9.044,1.54-13.724c-0.069-2.003,0.799-4.039,1.157-5.672
			c3.123-1.503,4.832-1.021,6.494,1.397c1.458,2.123,3.546,3.885,5.582,5.525c2.75,2.217,3.982,4.88,2.948,8.271
			C141.968,496.344,140.723,499.387,139.636,502.385z M133.259,487.204c-1.309,4.399-2.401,8.071-3.648,12.265
			c2.177,0.229,3.574,0.377,4.901,0.519c2.417-3.264,4.107-6.354,3.017-10.511C136.47,488.913,135.356,488.32,133.259,487.204z"/>
		<path fill="#262222" d="M382.414,484.495c1.562-0.519,2.931-0.971,4.23-1.402c2.005,1.617,1.566,3.486,1.013,5.181
			c-2.396,7.306-3.02,14.895-3.905,22.457c-0.216,1.836-1.154,3.586-2.043,6.213c-4.485-5.431-2.192-10.591-2.207-15.941
			c-4.693,4.786-8.263,11.29-16.551,9.661c-2.61-5.353,0.057-10.579-0.741-15.701c2.736-0.916,3.544,0.83,4.551,2.274
			c-0.913,3.042-1.798,5.991-2.686,8.948C372.07,508.367,380.908,497.894,382.414,484.495z"/>
		<path fill="#252222" d="M178.827,594.299c-1.227,2.949-0.842,6.868-4.783,9.975c0.902-3.763,1.354-6.733-1.467-9.965
			c-5.009-3.253-10.925-3.303-16.665-0.852c-2.936,3.445-3.067,8.317-7.915,10.261c0.308-5.397,5.706-9.183,3.672-14.636
			c-1.977-2.929-5.404-2.139-8.091-3.122c-2.123-2.438-2.854-4.84-0.361-7.801c4.84,2.188,9.698,4.146,13.058,8.521
			c2.54,0,5.021-0.134,7.481,0.035c2.958,0.202,5.934,0.482,8.837,1.059C175.941,588.435,178.219,590.438,178.827,594.299z"/>
		<path fill="#242121" d="M393.068,544.848c-4.074-0.473-7.493-0.662-10.806-1.359c-1.26-0.267-2.688-1.492-3.274-2.664
			c-0.534-1.065-0.033-2.649,0.031-4.647c3.61,1.218,6.482,2.187,9.6,3.236c1.48-4.452-1.444-7.59-2.221-11.654
			c0.262-0.594,0.712-1.611,1.138-2.577c6.013,1.162,6.823,3.372,5.456,14.53c1.42,0.803,2.919,1.649,4.591,2.594
			c-0.616,1.824-1.135,3.358-1.653,4.893c0.553,0.998,1.104,1.997,1.701,3.073c-0.305,1.459-0.605,2.903-0.875,4.192
			c-2.738,3.331-6.044,4.052-9.838,3.293c-2.119-3.067-0.037-5.318,1.261-7.412C389.421,548.343,391.328,546.754,393.068,544.848z
			 M394.316,551.336c-0.304-0.279-0.604-0.559-0.907-0.838c-1.396,0.701-2.508,1.567-1.929,4.494
			C392.778,553.318,393.547,552.327,394.316,551.336z"/>
		<path fill="#252121" d="M344.314,543.433c2.14-0.88,3.565-1.692,5.101-2.058c6.631-1.577,13.344-2.649,20.155-1.46
			c5.998,1.048,9.368,5.016,9.33,11.061c-0.021,2.957-0.479,5.938-1.018,8.857c-0.54,2.938-2.322,4.991-5.782,6.153
			c-0.744-6.172,4.277-11.361,1.486-18.389c-1.928-2.319-5.746-2.406-9.586-2.113c-3.794,0.289-7.607,0.618-11.339,1.319
			C349.5,547.399,347.212,546.354,344.314,543.433z"/>
		<path fill="#242121" d="M445.99,541.367c2.899,1.625,4.896,2.745,7.299,4.091c-1.989,1.216-3.696,2.258-5.671,3.464
			c-6.572-0.068-13.171,1.19-19.234,4.028c-1.318,1.979-2.476,3.715-3.749,5.626c-2.821-1.891-2.423-4.129-1.923-6.424
			c0.742-3.403,1.608-6.792,2.104-10.233c0.316-2.207,0.06-4.497,0.06-6.875c3.161-0.918,4.742,0.795,6.208,3.187
			c-0.37,1.983-0.758,4.057-1.201,6.43C435.605,543.489,440.973,542.393,445.99,541.367z"/>
		<path fill="#252122" d="M298.053,547.891c3.628,0.572,7.578-0.667,11.272,1.849c-3.656,4.459-8.532,3.302-13.343,3.82
			c0.981,2.568,2.973,3.621,5.245,3.561c4.453-0.12,8.917-0.469,13.335-1.045c4.046-0.527,8.034-1.479,12.166-2.269
			c1.007,3.138-0.717,4.371-2.634,4.762c-7.284,1.479-14.453,3.819-22.036,3.365c-4.308-0.258-7.492-2.308-9.833-6.094
			c0.146-1.058,0.301-2.169,0.44-3.168c-0.618-0.9-1.174-1.711-1.729-2.521c0.233-0.704,0.467-1.407,0.606-1.826
			c1.777-0.138,3.143-0.242,4.509-0.347C296.721,547.949,297.387,547.92,298.053,547.891z"/>
		<path fill="#272323" d="M286.007,454.004c-4.062,3.397-8.525,4.071-13.188,2.303c-3.239-3.867-0.948-7.283,0.216-10.596
			c0.818-2.327,2.411-4.398,1.617-7.145c-1.209-2.44-3.789-2.973-5.967-4.124c-2.688-1.424-5.104-3.127-4.486-6.889
			c2.66-1.681,5.046-1.144,7.4,0.454c4.146,2.813,7.613,6.111,7.25,11.641c-0.117,1.777-0.916,3.513-1.409,5.266
			c-0.614,2.187-1.235,4.372-1.806,6.389c5.186,3.157,8.297,2.211,12.415-3.301c0.408,0.027,0.816,0.055,1.225,0.082
			C288.185,450.058,287.096,452.031,286.007,454.004z"/>
		<path fill="#252121" d="M155.725,442.887c0.734,2.931,0.306,5.647,2.224,8.171c1.387,1.824,0.378,4.651-1.676,6.201
			c-2.065,1.56-4.406,2.752-6.718,4.16c-2.763-3.312-0.873-5.626,0.665-7.911c1.465-2.178,3.547-4.122,2.082-7.346
			c-4.163-2.548-9.427,0.107-13.919-2.309c0-1.779,0-3.461,0-5.585c4.078,1.086,7.604,2.385,11.446,2.155
			c1.089-4.533-3.654-8.979,0.813-13.132c1.182,1.374,2.243,2.608,3.508,4.079c-0.358,3.028-0.725,6.133-1.121,9.484
			C153.758,441.406,154.655,442.082,155.725,442.887z M156.349,454.018c-0.799-0.985-1.191-1.471-1.654-2.042
			c-1.186,1.101-2.617,1.882-1.2,3.827C154.31,455.293,155.095,454.802,156.349,454.018z"/>
		<path fill="#252121" d="M153.957,390.562c3.369,4.522,3.369,4.522,2.858,8.834c4.671-0.46,9.366-0.978,14.072-1.358
			c2.636-0.214,4.842,0.648,6.325,3.214c-1.895,2.193-4.351,2.374-6.826,2.479c-2.991,0.127-5.997,0.086-8.972,0.368
			c-4.493,0.428-5.437,1.524-6.853,5.872c-0.668,2.055,0.032,4.892-2.834,5.956c-1.969-0.468-2.003-2.024-1.879-3.518
			c0.262-3.146,0.613-6.287,0.998-9.422c0.322-2.625,0.605-5.269,1.173-7.843C152.344,393.662,153.202,392.295,153.957,390.562z"/>
		<path fill="#282323" d="M255.436,363.001c-1.233-5.291-0.324-8.274,3.397-10.709c3.198,3.062-2.369,5.546-0.152,8.942
			c1.115-0.516,2.406-1.113,3.842-1.777c-0.649-2.116-1.124-3.662-1.695-5.523c0.596-0.438,1.175-1.211,1.849-1.305
			c4.255-0.596,8.537-1.479,12.799-1.425c5.398,0.068,8.845,3.493,10.554,8.424c1.616,4.664,1.013,9.022-3.306,13.311
			c-0.159-1.542-0.358-2.351-0.301-3.141c0.132-1.798,0.765-3.637,0.529-5.368c-0.975-7.183-4.391-9.637-10.396-9.638
			c-1.952,0-3.905,0.167-5.752,0.252C265.262,362.58,261.609,365.024,255.436,363.001z"/>
		<path fill="#252222" d="M189.401,490.54c-11.771,1.841-13.576,0.197-12.683-11.648c-1.494-0.809-3.17-1.779-4.903-2.64
			c-2.536-1.256-3.534-2.943-2.845-5.016c0.678-2.04,2.801-3.274,5.193-2.859c3.795,0.66,6.681,2.661,8.925,7.057
			c-0.14,2.489-0.333,5.912-0.567,10.063c1.233,2.804,4.728,0.502,7.535,1.708C189.819,488.414,189.594,489.557,189.401,490.54z"/>
		<path fill="#262222" d="M137.921,525.295c-2.567-1.261-5.079-2.368-7.445-3.729c-0.77-0.442-1.157-1.551-1.942-2.674
			c0.53-1.215,1.093-2.505,1.857-4.258c2.887,0.978,5.474,1.853,8.38,2.836c1.155,1.551,2.42,3.249,4.011,5.387
			c-0.887,2.827-1.811,5.773-2.833,9.031c1.637,4.225,4.186,5.262,10.702,3.85c0.639,2.903-1.444,3.65-3.385,4.428
			c-4.087,1.636-8.344,0.354-11.813-3.424C133.352,532.322,137.335,529.259,137.921,525.295z"/>
		<path fill="#262222" d="M283.559,539.285c4.13,6.865,2.75,14.048-4.389,19.216c1.225-3.038,2.333-5.005,2.779-7.111
			c0.471-2.228,0.598-4.634-1.177-7.104c-4.827-1.028-9.875-0.685-15.498,0.477c-1.315-1.136-2.903-2.506-4.55-3.927
			c0.221-1.163,0.396-2.093,0.528-2.79C263.625,536.307,279.235,537.268,283.559,539.285z"/>
		<path fill="#272322" d="M261.33,398.37c2.392-2.52,4.989-2.929,8.004-2.499c3.771,0.536,7.624,0.506,11.388,1.078
			c3.522,0.535,6.815,1.756,7.999,5.94c-0.723,4.214-1.857,8.389-5.781,11.573c-1.639-2.691,0.951-4.268,0.852-6.258
			c-0.105-2.077-0.229-4.153-0.365-6.596c-4.013-0.819-7.515-1.535-11.054-2.259c-2.993,4.763-5.556,9.591-11.983,8.55
			C258.627,404.234,260.57,401.429,261.33,398.37z M262.701,405.96c2.696-1.958,4.407-3.201,6.118-4.444
			c-0.114-0.395-0.229-0.789-0.344-1.184c-1.467-0.147-2.933-0.296-4.716-0.476C263.422,401.806,263.162,403.306,262.701,405.96z"/>
		<path fill="#252121" d="M90.937,601.982c-0.797,1.789-1.567,3.592-2.397,5.365c-1.882,4.024-4.673,6.672-9.667,6.095
			c-3.029-1.63-3.39-4.638-3.003-7.624c0.813-6.277,2.837-12.114,7.509-17.002c1.089,0.095,2.202,0.189,3.316,0.286
			c0.247,1.439,0.494,2.88,0.585,3.411c-1.938,3.388-3.597,5.86-4.813,8.534c-1.187,2.611-3.684,5.144-1.452,8.969
			c5.633-4.095,7.237-9.852,8.418-16.19C92.418,596.411,90.828,599.346,90.937,601.982z"/>
		<path fill="#252122" d="M293.922,454.027c2.936,0.87,5.872,1.739,8.877,2.631c0.647,3.744,1.196,6.912,1.77,10.226
			c-6.031,3.642-12.498,2.985-18.726,3.399c-1.908-2.314-1.392-4.319,0.211-6.271c3.275-1.723,1.59-4.696,1.815-7.189l-0.05,0.108
			c2.104-0.901,0.893-2.669,1.062-4.074l-0.044-0.053C290.532,453.211,292.227,453.619,293.922,454.027z M300.219,464.76
			c-1.346-4.843-3.297-5.911-9.026-5.243c-0.702,1.602-1.476,3.36-2.487,5.665C292.799,465.961,296.282,464.834,300.219,464.76z"/>
		<path fill="#282423" d="M298.066,607.748c1.3-6.268-1.289-12.193,1.443-18.573c1.763,1.622,2.937,2.702,3.989,3.672
			c-0.576,3.149-1.044,5.7-1.59,8.685c1.833-0.928,3.226-1.631,5.252-2.655c0.126-2.559,0.266-5.402,0.419-8.521
			c2.31-1.666,3.849,0.229,5.73,1.869c-0.676,1.758-1.312,3.416-2.06,5.354c0.556,0.682,1.231,1.512,1.872,2.299
			c-0.217,0.404-0.308,0.862-0.523,0.932c-2.063,0.656-3.111,2.01-3.807,4.107c-0.977,2.951-2.354,5.811-5.717,8.529
			C301.464,611.61,299.875,609.804,298.066,607.748z M304.25,608.721c1.655-1.86,2.36-3.5,1.203-5.588
			C302.346,605.388,302.346,605.388,304.25,608.721z"/>
		<path fill="#272323" d="M121.09,525.172c-2.729,2.812-6.409,3.405-9.973,3.876c-4.044,0.534-6.025-1.345-6.994-5.808
			c0.986-4.222,5.396-6.709,5.959-11.422c-3.514-1.868-7.266-1.08-10.779-1.625c-2.64-0.409-4.856-0.98-5.476-4.191
			c2.392-2.732,5.388-2.198,8.25-1.552c4.483,1.014,9.305,1.651,11.384,7.509c-2.196,3.471-4.525,7.151-6.877,10.869
			c4.155,3.746,8.183,1.839,12.137,1.015c0.432-0.221,0.864-0.44,1.296-0.662c0.219-0.199,0.477-0.309,0.772-0.325
			c0.434,0.411,0.867,0.822,1.3,1.234l0.012-0.018C121.765,524.438,121.428,524.806,121.09,525.172z"/>
		<path fill="#262222" d="M403.678,569.035c-0.356-2.017-0.714-4.03-1.131-6.386c-4.825,2.946-10.223,4.003-15.91,4.355
			c-1.855-1.229-4.115-2.041-4.733-4.594c1.479-1.866,3.148-1.772,5.068-1.52c5.746,0.762,11.207-0.122,15.833-2.985
			c2.383-3.401,0.296-8.55,5.132-10.371C409.857,552.011,408.185,562.556,403.678,569.035z"/>
		<path fill="#262323" d="M167.021,491.256c2.803-0.771,4.749,0.272,6.927,1.203c3.444,1.472,7.121,2.507,10.791,3.31
			c3.202,0.701,6.543,0.782,9.682,3.017c-0.655,0.792-1.167,2.006-1.776,2.057c-7.859,0.652-15.784,2.187-23.643-1.083
			C167.537,497.213,164.858,494.939,167.021,491.256z"/>
		<path fill="#773A1B" d="M405.238,278.009c3.385,1.019,3.385,1.019,7.062,7.277c-0.819,6.27,1.599,13.368-2.631,19.856
			c-1.358-0.479-2.266-0.799-3.505-1.234C404.868,295.448,402.265,286.891,405.238,278.009z"/>
		<path fill="#262222" d="M332.192,589.981c5.888-1.625,28.687,0.192,32.866,2.546c-0.146,1.874-1.525,2.43-3.042,2.496
			c-7.762,0.338-15.525,0.782-23.29,0.789C334.135,595.817,332.775,594.315,332.192,589.981z"/>
		<path fill="#262221" d="M130.077,369.381c-0.359-5.924-0.699-11.515-1.035-17.069c-1.233-0.937-2.238-1.699-3.195-2.426
			c1.683-4.25,2.377-4.53,6.783-2.677c0.507,2.566,1.047,5.303,1.71,8.657c5.458-5.775,11.98-5.236,19.417-4.41
			c-1.708,2.372-3.593,2.156-5.211,2.576c-3.178,0.824-6.424,1.491-9.479,2.65c-3.708,1.408-5.657,4.443-6.061,8.357
			C132.81,366.94,132.662,368.723,130.077,369.381z"/>
		<path fill="#2A2726" d="M247.391,587.971c3.097,0.873,5.764,1.625,8.373,2.36c0,0.78,0,1.261,0,2.083
			c-3.249,0.366-6.473,0.729-9.377,1.058c-3.246,2.115-2.287,6.997-6.859,8.36c2.913-8.67,3.279-17.221,2.573-25.833
			c2.7-0.992,2.7-0.992,6.989,1.812c-0.151,1.438-0.259,3.181-0.536,4.895C248.292,584.328,247.852,585.923,247.391,587.971z"/>
		<path fill="#282423" d="M322.581,522.965c-3.55-0.316-3.854-3.551-5.812-5.688c-3.007,2.771-5.188,6.904-10.549,6.681
			c0.274-1.483,0.494-2.678,0.761-4.123c1.081,0,1.979,0,3.28,0c2.554-1.664,4.47-4.146,4.908-7.871
			c-3.097-2.041-6.544-0.614-9.903-1.38c-1.61-1.405-2.635-3.022-0.828-5.396c3.598,0.564,7.548,0.322,10.528,1.905
			c2.776,1.477,4.522,4.894,6.922,7.689C322.31,517.32,323.87,520.009,322.581,522.965z"/>
		<path fill="#272322" d="M257.935,368.892c-1.401,1.295-2.803,2.591-4.86,4.492c-4.251,0.479-9.145,1.307-14.061,1.489
			c-3.605,0.134-6.783-1.398-8.57-4.875c-1.861-3.623-0.69-6.997,3.5-9.027c0.852,2.431,1.687,4.812,2.531,7.221
			c7.125,3.888,14.184,0.357,21.214-0.288C257.771,368.232,257.853,368.562,257.935,368.892z"/>
		<path fill="#272423" d="M256.769,434.812c3.255,2.137,3.255,2.137,4.639,9.291c2.687,1.337,5.57,2.771,8.63,4.291
			c-0.478,1.043-0.805,1.758-1.27,2.773c-2.607,0-5.201,0-7.656,0c-2.111,4.092-0.233,9.915-6.683,11.961
			c-0.226-1.786-0.396-3.139-0.56-4.43c1.117-0.686,1.926-1.182,2.801-1.717c1.115-5.536,0.289-10.893-1.21-16.207
			C254.623,437.806,254.646,437.799,256.769,434.812z"/>
		<path fill="#2A2625" d="M116.484,475.312c0.853-0.378,1.722-0.763,3.031-1.343c1.536,1.966,3.014,3.857,4.535,5.806
			c-0.43,1.321-0.773,2.396-1.129,3.469c-1.089,3.275-2.175,6.554-3.276,9.826c-1.053,3.128-2.021,6.291-3.226,9.359
			c-0.782,1.991-0.943,1.93-4.138,3.242c-0.115-0.658-0.534-1.541-0.28-1.828c2.867-3.24,2.802-7.213,3.068-11.154
			C115.456,486.947,115.996,481.216,116.484,475.312z"/>
		<path fill="#292424" d="M195.018,521.028c-3.653,1.434-7.213,3.224-10.985,4.196c-3.578,0.924-4.855-0.119-7.029-4.033
			c1.214-1.934,2.492-3.968,4.204-6.69c-2.455-0.416-4.447-0.396-6.104-1.133c-1.677-0.746-3.021-2.239-4.695-3.549
			c1.018-1.436,1.652-2.328,2.279-3.211c4.904,0.501,9.414,1.255,12.212,6.356c-1.085,2.317-2.256,4.814-3.552,7.581
			c4.322,2.382,8.295-0.151,12.348-0.78C194.137,520.188,194.577,520.607,195.018,521.028z"/>
		<path fill="#252221" d="M127.595,538.848c1.36,0.771,2.945,1.343,4.094,2.391c2.592,2.366,5.678,3.179,9,3.734
			c3.572,0.6,7.093,1.499,10.899,2.325c-0.062,1.2-0.109,2.11-0.167,3.229c-4.368,1.193-8.655,0.896-12.86,0.28
			c-2.905-0.426-5.848-1.228-8.524-2.421C125.926,546.551,125.01,542.894,127.595,538.848z"/>
		<path fill="#2C2826" d="M293.922,454.027c-1.695-0.408-3.39-0.816-5.085-1.225c0.641-0.472,1.282-0.942,2.066-1.52
			c0-5.052,0-10.166,0-15.279c0-2.277,0-4.555,0-7.616c0.181-0.196,0.921-1.003,1.878-2.045c1.357,0.891,2.548,1.67,3.735,2.448
			c-0.445,3.722-0.853,7.136-1.298,10.854c4.026,0.41,8.427-1.02,12.396,2.457c-4.213,2.188-8.262,0.279-12.327,1.397
			C294.538,446.871,292.437,450.153,293.922,454.027z"/>
		<path fill="#262222" d="M131.2,554.157c5.496-0.302,7.145,0.173,11.093,3.062c1.256,3.932-1.796,6.657-3.348,10.15
			c5.023,1.271,9.149-0.873,13.469-2.442c-1.276,5.043-8.821,8.042-16.594,6.799c-1.523-1.844-1.003-3.558,0.29-5.34
			c1.144-1.576,2.119-3.273,3.245-5.038C136.75,558.68,129.884,561.254,131.2,554.157z"/>
		<path fill="#292525" d="M242.135,343.244c0.971,0.27,2.046,0.568,3.771,1.048c0.286,2.178,0.596,4.538,0.954,7.269
			c2.211,0.865,4.671,1.828,7.132,2.791c-0.035,0.384-0.07,0.767-0.105,1.15c-2.63,0.703-5.261,1.406-8.243,2.204
			c-1.035,2.138-2.214,4.574-3.558,7.351C239.565,360.694,239.71,346.742,242.135,343.244z"/>
		<path fill="#2A2625" d="M342.551,609.157c-1.814-3.888-0.85-8.02,0.146-12.61c2.914,1.044,5.281,1.932,7.676,2.74
			c2.318,0.782,4.663,1.484,6.681,2.122c1.979,3.568,0.391,6.158-0.903,8.842C351.692,610.341,347.264,611.747,342.551,609.157z
			 M345.941,606.428c5.468,1.433,5.468,1.433,8.741,0.315c0.707-1.449,0.31-2.867-1.1-3.265c-2.307-0.648-4.755-0.796-7.643-1.229
			C345.941,603.98,345.941,605.146,345.941,606.428z"/>
		<path fill="#292424" d="M250.042,616.062c-2.807,3.339-6.493,4.277-10.798,3.953c-3.469-3.762,1.871-6.103,1.566-9.354
			c-1.633-2.438-4.049-0.2-6.544-1.206c-1.596-1.173-4.125-2.396-3.106-5.757c8.004-0.854,11.146,0.502,13.792,5.986
			c-0.447,1.724-0.932,3.595-1.431,5.519c2.073,1.393,3.653,0.61,5.213-0.412C249.171,615.216,249.606,615.639,250.042,616.062z"/>
		<path fill="#2A2625" d="M405.601,600.809c2.808,2.933,2.872,3.218,1.418,6.188c-0.302-1.249-0.604-2.497-1.081-4.466
			c-3.702,2.976-7.318,5.264-12.365,4.171c-3.671-4.128,2.043-6.801,1.988-11.005c-1.331-3.038-4.543-1.301-7.327-1.719
			c-1.7-1.609-3.377-3.329-1.228-6.488c3.947,1.771,7.791,3.496,10.987,4.931c2.379,4.24-0.769,6.985-0.994,10.202
			C400.523,604.823,402.872,601.904,405.601,600.809z"/>
		<path fill="#2B2726" d="M117.802,358.239c-2.766-5.455-10.057-5.906-10.43-12.272c5.638-1.87,11.346,1.959,15.581,10.684
			c-0.575,4.546-4.682,6.869-7.854,10.021C116.006,363.842,116.913,361.012,117.802,358.239z"/>
		<path fill="#282423" d="M231.513,351.162c0.899,7.288-3.25,11.786-10.286,11.496c-2.506-3.074-1.416-6.763-1.275-10.267
			c0.074-1.843,0.538-3.646,3.111-4.359C225.738,349.023,228.747,350.138,231.513,351.162z M225.904,352.041
			c-1.474,2.134-2.678,4.026-1.626,6.746C227.685,355.773,227.685,355.773,225.904,352.041z"/>
		<path fill="#2A2625" d="M229.943,393.129c0.652,1.147,1.304,2.296,1.849,3.255c-0.698,8.655-4.08,11.657-11.037,9.53
			c-2.007-6.261,0.548-11.568,3.872-17.339c1.11,1.093,1.781,1.754,2.452,2.415c0.506,2.121-0.413,3.843-1.43,5.604
			c-1.038,1.8-2.397,3.604-1.498,5.928c2.962-0.008,3.438-2.012,4.268-4.119C229.104,396.661,227.574,394.304,229.943,393.129z"/>
		<path fill="#322D2B" d="M338.029,632.888c-0.267,0.154-0.763,0.306-0.766,0.464c-0.066,3.578,0.632,6.998,2.189,10.834
			c1.346-0.895,2.361-1.568,3.378-2.244c0.412,0.026,0.824,0.055,1.236,0.082c0.062,0.493,0.126,0.987,0.234,1.836
			c4.509,0,9.048,0,14.32,0c-1.923,2.363-3.789,3.141-5.987,3.15c-6.973,0.034-13.945,0.014-21.124,0.014
			c-0.39-1.236-0.699-2.218-1.198-3.801c2.101,0.193,3.612,0.333,5.788,0.533c-0.404-4.446-0.801-8.78-1.229-13.487
			c0.853,0.438,1.255,0.646,1.726,0.889c0.417-1.812,0.837-3.639,1.257-5.463C337.913,628.091,337.972,630.489,338.029,632.888z"/>
		<path fill="#312D2A" d="M368.27,586.356c5.124,2.208,7.809,6.646,7.558,11.646c-0.255,5.073-1.965,7.389-6.986,8.812
			c-0.521-1.385-1.549-2.831-1.518-4.257C367.438,597.324,367.903,592.098,368.27,586.356z M369.724,601.479
			c0.37,0.12,0.741,0.24,1.111,0.361c1.775-2.297,1.729-4.869,0.114-7.695C370.541,596.589,370.132,599.033,369.724,601.479z"/>
		<path fill="#2C2726" d="M343.766,585.318c-3.144-8.154-2.331-13.766,2.1-16.277c1.013,2.403,2.007,4.761,3.001,7.119
			c0.851-0.771,1.701-1.544,2.552-2.315c1.205,3.909,1.582,7.743-1.673,11.002C348.071,586.521,346.127,587.149,343.766,585.318z
			 M345.65,582.355c4.13-1.76,4.478-3.15,2.358-7.553C347.104,577.702,346.378,580.029,345.65,582.355z"/>
		<path fill="#2F2B29" d="M294.334,376.148c-1.697-3.954-0.041-8.027-0.657-11.983c-0.633-4.06-1.179-8.133-1.927-13.349
			c2.461,1.513,4.034,2.479,5.95,3.657C299.985,362.078,298.743,369.302,294.334,376.148z"/>
		<path fill="#37312D" d="M374.171,631.821c-0.636-3.628-0.425-7.163,0.989-10.589c2.528,0.393,1.659,2.527,2.134,3.949
			c1.016,0.254,1.925,0.48,2.843,0.71c1.355-2.331-0.488-3.856-1.102-5.782c0.838-0.106,1.461-0.187,2.413-0.308
			c2.893,4.783,1.195,9.793,0.872,14.886c2.078,0.215,4.129,0.425,7.261,0.745c-1.443,0.972-2.027,1.363-2.61,1.755
			c-4.306-0.156-8.611-0.312-12.918-0.471c0.019-2.433,2.023-1.467,3.221-1.884c1.529-0.071,2.906-0.302,2.636-2.365
			C377.893,632.241,376.032,632.031,374.171,631.821z M377.386,631.51c1.109-1.35,1.711-2.081,2.761-3.357
			c-1.82,0.101-2.862,0.156-4.389,0.24C376.314,629.459,376.649,630.1,377.386,631.51z"/>
		<path fill="#2C2826" d="M413.289,557.4c-2.655-4.305,4.832-5.646,2.446-9.922c-2.947-1.869-8.021-0.072-10.022-5.009
			c3.82-2.271,7.621-0.876,11.336-0.061c2.614,0.573,3.521,2.783,4.11,5.377C420.029,552.031,418.13,555.844,413.289,557.4z"/>
		<path fill="#282423" d="M113.195,487.027c0.98,2.791-1.032,3.832-2.654,5.036c-4.466,3.312-11.639,4.205-16.53,1.85
			c-0.559-1.157-1.262-2.614-1.865-3.863c0.92-2.246,2.495-2.495,4.223-2.196c1.457,0.252,2.896,0.636,4.317,1.05
			C106.654,490.646,108.259,490.436,113.195,487.027z"/>
		<path fill="#2C2826" d="M133.656,394.755c6.257-0.956,8.367,3.841,11.186,8.028c-0.692,4.774-3.257,7.996-7.862,10.233
			c-1.824-4.32,3.756-4.469,3.423-7.506c0.016-2.438-1.889-3.009-3.701-3.939C133.409,399.879,132.828,398.345,133.656,394.755z"/>
		<path fill="#2C2826" d="M292.478,420.895c-0.828-1.483-1.15-1.786-1.115-2.038c1.021-7.192,2.062-14.383,3.161-21.562
			c0.062-0.402,0.639-0.726,1.1-1.22c2.263,0.459,3.471,2.076,3.415,4.16C298.845,407.452,295.995,413.827,292.478,420.895z"/>
		<path fill="#2E2A29" d="M319.885,606.117c3.875-1.819,6.352-1.403,9.078,2.03c1.698,2.138,2.955,4.626,4.875,7.7
			c-2.438,0.621-4.188,1.066-5.91,1.504c-3.566-3.553-5.946-7.301-7.922-11.34L319.885,606.117z"/>
		<path fill="#342F2D" d="M318.869,437.627c1.418,0.684,2.837,1.367,4.463,2.151c0.675,7.467,1.365,14.667-3.794,20.881
			c1.93-7.609-0.551-14.919-2.002-22.277C317.98,438.13,318.425,437.878,318.869,437.627z"/>
		<path fill="#302B29" d="M267.977,501.955c0.94-6.911,1.286-13.776-1.807-20.334c2.213-2.629,3.784-1.227,5.567,0.55
			c0.918,6.668,0.553,13.319-1.709,19.83c-0.327,1.352-0.655,2.703-0.982,4.055l0.007-0.006
			C268.694,504.685,268.335,503.32,267.977,501.955z"/>
		<path fill="#292524" d="M382.438,607.444c-3.194-7.531-2.504-15.367-2.577-23.37c2.518-0.102,3.032,1.854,4.239,3.06
			C383.658,593.974,383.659,600.745,382.438,607.444z"/>
		<path fill="#322D2B" d="M256.618,486.639c2.575,1.372,4.533,2.417,6.335,3.377c0.726,6.253-3.81,7.638-7.77,10.273
			C253.714,495.549,253.833,491.45,256.618,486.639z M258.28,491.026c-0.193,1.627-0.325,2.74-0.514,4.326
			C259.999,494.01,260.172,492.901,258.28,491.026z"/>
		<path fill="#302B29" d="M307.403,455.104c-2.251-4.469-1.778-8.834,1.252-12.304c3.178,0.181,5.614,1.385,6.474,4.938
			C314.103,451.823,310.812,453.474,307.403,455.104z M308.815,451.72c2.411-1.73,3.562-2.727,1.5-5.114
			C309.82,448.292,309.466,449.503,308.815,451.72z"/>
		<path fill="#352F2C" d="M359.948,637.838c-1.263,1.35,0.016,1.161,0.777,1.286c2.659,0.242,5.319,0.484,7.979,0.727
			c1.092,0.365,2.184,0.73,3.275,1.097c-5.191,1.242-10.355,1.48-15.713-0.466c-0.435-1.031-0.929-2.202-1.595-3.779
			c1.121-0.961,2.185-1.871,3.246-2.781c0.09,0.878,0.18,1.756,0.392,3.83c0.992-1.168,1.353-1.592,1.942-2.287
			c-1.079-0.71-1.715-1.128-2.351-1.547c0.244-1.563,0.489-3.13,0.734-4.695c0.437-0.376,0.87-0.751,1.306-1.126
			c0.251-0.045,0.503-0.068,0.757-0.07c0.022,2.997,1.04,5.961,0.312,8.983C360.659,637.285,360.304,637.562,359.948,637.838z"/>
		<path fill="#252122" d="M295.134,535.351c0.147,0.26,0.101,0.477-0.14,0.65c-0.297,1.042-0.593,2.084-0.89,3.125l0.047-0.067
			c-1.676,1.298-1.759,2.584,0.022,3.86l-0.095-0.091c0.731,0.354,1.463,0.71,2.194,1.063c0.467-0.003,0.935-0.007,1.402-0.01
			c1.801-0.146,3.821,1,5.326-0.899c0.188-0.23,0.408-0.27,0.661-0.113c0.67,0.05,1.34,0.101,2.009,0.15
			c-0.066,0.378-0.134,0.755-0.201,1.133c-0.818,0.547-1.637,1.094-2.455,1.641c-0.565,0.109-1.132,0.221-1.697,0.33
			c-0.768,0.234-1.536,0.469-2.304,0.702c-0.314,0.11-0.629,0.221-0.943,0.331c-0.665-0.041-1.329-0.082-1.994-0.123
			c-1.122-0.31-2.245-0.617-3.367-0.926c-0.288-0.228-0.576-0.452-0.864-0.679c0.01-4.596,0.02-9.19,0.029-13.786l-0.011-0.277
			c0.06-0.761,0.118-1.521,0.178-2.281l0.036-0.045c0.653-0.021,1.307-0.042,1.96-0.062l-0.014-0.017
			c0.385,0.649,0.77,1.3,1.154,1.95l-0.065-0.077c0.261,0.386,0.522,0.771,0.784,1.157c0.092,0.213,0.208,0.419,0.265,0.641
			c0.026,0.104-0.062,0.237-0.099,0.357C295.753,533.776,295.443,534.562,295.134,535.351z"/>
		<path fill="#36312E" d="M437.114,634.961c-0.926-0.648-1.853-1.298-2.562-1.794c0-2.887,0-5.428,0-8.487
			c3.231,1.556,5.919,2.849,8.872,4.271c-1.812,2.323-4.181,0.737-6.468,1.584c0.831,0.886,1.537,1.619,2.223,2.372
			c0.975,1.068,1.593,2.165,0.112,3.322C438.566,635.807,437.84,635.384,437.114,634.961z"/>
		<path fill="#403A35" d="M396.022,635.986c3.411,0.584,5.445,2.768,6.847,6.352c-2.701,0.454-5.408,0.908-8.456,1.421
			c-0.107-1.22-0.219-2.486-0.329-3.754C394.729,638.665,395.376,637.325,396.022,635.986z M397.751,639.348
			c-0.116-0.057-0.257-0.184-0.343-0.152c-0.141,0.049-0.242,0.201-0.36,0.311c0.233,0.059,0.466,0.115,0.699,0.174
			C397.747,639.568,397.747,639.458,397.751,639.348z"/>
		<path fill="#3F3935" d="M416.787,634.109c-2.626-2.536-0.83-5.877-2.521-9.15c4.113,1.582,7.285,2.802,10.819,4.16
			c-2.341,2.276-5.119,0.374-7.431,1.173c-0.158,2.442,1.975,2.135,3.323,2.758C419.582,633.403,418.185,633.756,416.787,634.109z"
			/>
		<path fill="#4C4640" d="M368.706,639.851c3.968-2.152,8.174-0.953,12.3-0.874c2.02,2.933,2.804,5.922-0.011,9.758
			c-0.856-2.779-1.562-5.073-2.398-7.787c-2.387,0-4.501,0-6.614,0C370.89,640.581,369.798,640.216,368.706,639.851z"/>
		<path fill="#464039" d="M370.002,635.993c-0.86,0.937-1.721,1.873-2.684,2.921c-0.411-2.271-0.773-4.271-1.136-6.271
			c-0.395-1.364-0.789-2.729-1.177-4.068c1.155-1.643,2.439-1.166,3.087,0.138c0.629,1.268,0.63,2.846,0.906,4.288
			c0.83,2.164,2.801,0.17,3.972,1.091C371.981,634.725,370.992,635.358,370.002,635.993z"/>
		<path fill="#2F2925" d="M338.029,632.888c-0.059-2.397-0.116-4.797-0.176-7.193c0.088-1.091,0.175-2.183,0.314-3.962
			c1.01,0.966,1.898,1.409,1.966,1.955c0.196,1.592,0.332,2.923,1.671,4.238c0.758,0.744,0.711,2.894,0.27,4.141
			C341.363,634.069,339.819,634.774,338.029,632.888z M340.328,628.676c-0.323-0.021-0.647-0.04-0.971-0.061
			c0.027,0.641,0.057,1.281,0.085,1.921c0.238-0.004,0.479-0.009,0.719-0.013C340.217,629.907,340.272,629.291,340.328,628.676z"/>
		<path fill="#575045" d="M416.787,634.109c1.396-0.354,2.795-0.706,4.19-1.061c1.119,0.428,2.238,0.855,3.254,1.243
			c-1.08,4.844-4.609,8.139-10.96,10.04c3.015-2.501,6.029-5.002,9.721-8.063C420.285,635.327,418.536,634.718,416.787,634.109z"/>
		<path fill="#473F39" d="M399.963,634.916c-0.986-0.015-1.973-0.029-2.959-0.044c-1.254,0.044-1.929-0.11-2.889,0.061
			c-2.543-0.615-5.284-0.852-6.938-3.733c0.287-0.577,0.63-1.266,0.846-1.695c1.505,0.59,2.759,1.081,4.013,1.573l-0.111-0.107
			c2.023,0.705,4.047,1.409,6.071,2.114C398.651,633.694,399.308,634.305,399.963,634.916z"/>
		<path fill="#413C36" d="M410.932,636.819c-0.304-1.703-0.622-3.404-0.906-5.111c-0.293-1.757-0.554-3.521-0.882-5.627
			c0.83-0.037,1.676-0.075,2.794-0.126c0.61,3.797,2.132,7.27,0.327,10.807C411.82,636.781,411.376,636.801,410.932,636.819z"/>
		<path fill="#362F2D" d="M392.035,631.076c-0.729-2.044-1.456-4.088,0.883-6.157c1.179,1.539,2.303,3.008,3.446,4.502
			c-1.109,1.937-2.848,1.532-4.44,1.548L392.035,631.076z"/>
		<path fill="#2E2827" d="M344.068,642.021c-0.412-0.026-0.824-0.055-1.236-0.081c0.31-2.692,0.618-5.385,1.004-8.737
			c1.205,0.609,2.334,1.183,3.661,1.854C346.212,637.668,345.14,639.845,344.068,642.021z"/>
		<path fill="#282320" d="M356.116,623.982c-0.493-1.319-0.985-2.64-1.729-4.63c1.547-0.187,2.93-0.353,4.858-0.585
			c-0.615,2.22-1.028,3.711-1.441,5.203C357.241,623.976,356.679,623.979,356.116,623.982z"/>
		<path fill="#2D2827" d="M291.875,531.643c-0.01,4.597-0.02,9.191-0.029,13.787c-0.482-1.183-1.44-2.398-1.358-3.542
			C290.732,538.457,291.383,535.056,291.875,531.643z"/>
		<path fill="#282320" d="M359.944,628.095c-0.436,0.375-0.869,0.75-1.306,1.126c-0.886-0.141-1.771-0.281-2.657-0.423
			c-2.274-0.273-4.549-0.55-6.822-0.824c0.014-0.646,0.025-1.294,0.04-1.939l0.426,0.006l0.42-0.075l-0.025-0.01
			c1.427,1.925,3.411,0.824,5.17,0.954c0.167-0.111,0.346-0.136,0.534-0.067C357.131,627.259,358.538,627.677,359.944,628.095z"/>
		<path fill="#5E574B" d="M437.114,634.961c0.726,0.423,1.452,0.846,2.179,1.268c-1.562,1.574-2.924,3.468-6.271,3.798
			C434.703,637.945,435.908,636.453,437.114,634.961z"/>
		<path fill="#2D2827" d="M292.71,546.107c1.122,0.309,2.245,0.616,3.366,0.925c-0.153,0.312-0.161,0.627-0.022,0.945
			c-1.366,0.104-2.731,0.21-4.509,0.348c-0.14,0.419-0.373,1.122-0.606,1.826c-0.434-0.604-0.867-1.209-1.402-1.955
			C290.741,547.403,291.726,546.755,292.71,546.107z"/>
		<path fill="#514A40" d="M198.608,451.931c0.502,0.061,1.005,0.119,1.507,0.18c-0.921,1.871-2.084,3.431-4.811,3.799
			C195.601,453.501,197.633,453.144,198.608,451.931z"/>
		<path fill="#3D3934" d="M359.944,628.095c-1.406-0.418-2.813-0.836-4.222-1.254c0.131-0.953,0.263-1.905,0.394-2.857
			c0.562-0.005,1.125-0.008,1.688-0.012c0.074,0.79,0.149,1.58,0.225,2.36c0.898,0.568,1.787,1.13,2.674,1.691
			C360.447,628.025,360.195,628.05,359.944,628.095z"/>
		<path fill="#4F493F" d="M267.977,501.955c0.358,1.365,0.718,2.729,1.076,4.095c-0.439,0.693-0.88,1.387-1.599,2.52
			C265.977,505.766,267.153,503.877,267.977,501.955z"/>
		<path fill="#272323" d="M287.092,457.177c0.222-0.201,0.48-0.318,0.777-0.354c-0.226,2.493,1.46,5.468-1.815,7.189
			C286.4,461.733,286.746,459.455,287.092,457.177z"/>
		<path fill="#665D55" d="M399.963,634.916c-0.655-0.611-1.312-1.222-1.968-1.833c1.638,0.11,3.274,0.221,4.913,0.332
			c-0.012,0.392-0.023,0.783-0.036,1.176C401.902,634.699,400.933,634.808,399.963,634.916z"/>
		<path fill="#3D3934" d="M349.159,627.974c2.273,0.274,4.548,0.551,6.822,0.824C353.648,629.011,351.251,629.758,349.159,627.974z"
			/>
		<path fill="#151413" d="M430.389,632.278c-0.943,0.322-1.086,0.371-1.7,0.582c-0.181-0.854-0.351-1.659-0.521-2.464
			c0.235-0.097,0.472-0.19,0.707-0.286C429.33,630.762,429.785,631.414,430.389,632.278z"/>
		<path fill="#544A41" d="M195.018,521.028c-0.441-0.421-0.881-0.843-1.322-1.263c1.146-0.658,2.291-1.317,3.436-1.979
			c0.229,0.279,0.458,0.558,0.688,0.836C196.886,519.426,195.952,520.227,195.018,521.028z"/>
		<path fill="#4C463C" d="M122.09,524.09c-0.433-0.412-0.867-0.823-1.3-1.234c1.063-0.728,2.125-1.454,4.04-2.764
			C124.38,522.756,123.358,523.516,122.09,524.09z"/>
		<path fill="#2D2827" d="M303.002,542.982c-1.505,1.899-3.525,0.753-5.326,0.899C299.451,543.582,301.227,543.282,303.002,542.982z
			"/>
		<path fill="#787163" d="M427.979,637.021c-0.353-0.436-0.704-0.869-1.729-2.134c1.836,0.354,2.652,0.513,3.469,0.669
			c-0.229,0.49-0.459,0.98-0.688,1.473c-0.113-0.234-0.229-0.471-0.341-0.704C428.452,636.557,428.216,636.789,427.979,637.021z"/>
		<path fill="#3D3934" d="M355.188,626.908c-1.758-0.13-3.742,0.971-5.17-0.954C351.742,626.271,353.465,626.591,355.188,626.908z"
			/>
		<path fill="#595145" d="M250.042,616.062c-0.436-0.424-0.871-0.847-1.307-1.271c0.505-0.55,1.009-1.101,1.513-1.651
			c0.271,0.148,0.544,0.299,0.815,0.446C250.723,614.412,250.382,615.237,250.042,616.062z"/>
		<path fill="#2C2826" d="M288.122,446.238c2.207,0.243,2.226,0.271,1.151,1.846c-0.408-0.027-0.816-0.055-1.225-0.082
			C288.073,447.414,288.098,446.826,288.122,446.238z"/>
		<path fill="#514A40" d="M198.001,447.99c0.42-0.322,0.84-0.646,1.26-0.968c0.261,0.162,0.521,0.325,0.782,0.488
			c-0.328,0.831-0.656,1.662-0.983,2.494C198.707,449.334,198.354,448.662,198.001,447.99z"/>
		<path fill="#4F493F" d="M269.046,506.056c0.327-1.352,0.655-2.703,0.982-4.055C269.701,503.353,269.373,504.704,269.046,506.056z"
			/>
		<path fill="#2D2827" d="M294.174,542.919c-1.781-1.276-1.698-2.562-0.022-3.86C294.159,540.346,294.166,541.632,294.174,542.919z"
			/>
		<path fill="#2D2827" d="M294.104,539.126c0.297-1.041,0.593-2.083,0.89-3.125C294.697,537.043,294.401,538.085,294.104,539.126z"
			/>
		<path fill="#2D2827" d="M303.016,545.793c0.818-0.547,1.637-1.094,2.455-1.641C304.652,544.699,303.834,545.246,303.016,545.793z"
			/>
		<path fill="#2D2827" d="M295.179,530.911c-0.385-0.65-0.77-1.301-1.154-1.95C294.409,529.61,294.794,530.261,295.179,530.911z"/>
		<path fill="#2D2827" d="M292.042,529.084c-0.06,0.76-0.118,1.521-0.178,2.281C291.924,530.604,291.982,529.844,292.042,529.084z"
			/>
		<path fill="#2E2A29" d="M318.982,605.952c0.416-0.607,0.832-1.215,1.248-1.821c-0.115,0.662-0.23,1.324-0.347,1.986l0.121-0.104
			C319.665,605.992,319.323,605.972,318.982,605.952z"/>
		<path fill="#2D2827" d="M294.038,528.977c-0.653,0.021-1.307,0.042-1.96,0.062C292.696,527.914,293.35,527.892,294.038,528.977z"
			/>
		<path fill="#A8A493" d="M296.054,547.979c-0.139-0.318-0.131-0.635,0.022-0.945c0.666,0.042,1.33,0.083,1.995,0.124
			c-0.05,0.243-0.056,0.487-0.019,0.733C297.387,547.92,296.721,547.949,296.054,547.979z"/>
		<path fill="#2D2827" d="M299.015,546.825c0.768-0.233,1.536-0.468,2.304-0.702C300.551,546.357,299.782,546.592,299.015,546.825z"
			/>
		<path fill="#2D2827" d="M295.134,535.351c0.31-0.786,0.619-1.573,0.93-2.36C295.753,533.776,295.443,534.562,295.134,535.351z"/>
		<path fill="#2D2827" d="M305.672,543.021c-0.669-0.052-1.339-0.103-2.009-0.151C304.333,542.919,305.003,542.97,305.672,543.021z"
			/>
		<path fill="#190E0E" d="M427.979,637.021c0.236-0.231,0.474-0.465,0.71-0.696c0.112,0.233,0.228,0.47,0.341,0.704
			C428.68,637.025,428.329,637.023,427.979,637.021z"/>
		<path fill="#2D2827" d="M296.273,543.893c-0.731-0.354-1.463-0.71-2.194-1.063C294.811,543.183,295.542,543.538,296.273,543.893z"
			/>
		<path fill="#2E2A29" d="M321.065,603.108c0.299-0.373,0.598-0.746,0.896-1.119C321.663,602.362,321.364,602.735,321.065,603.108z"
			/>
		<path fill="#2E2A29" d="M320.15,604.205c0.319-0.383,0.64-0.766,0.959-1.149C320.79,603.439,320.471,603.822,320.15,604.205z"/>
		<path fill="#3D3934" d="M350.045,625.964l-0.42,0.075l-0.426-0.006C349.48,626.01,349.763,625.987,350.045,625.964z"/>
		<path fill="#6A665D" d="M359.948,637.838c0.354-0.275,0.711-0.553,1.065-0.83C360.659,637.285,360.304,637.562,359.948,637.838z"
			/>
		<path fill="#4C463C" d="M121.09,525.172c0.338-0.366,0.675-0.732,1.013-1.1C121.765,524.438,121.427,524.806,121.09,525.172z"/>
		<path fill="#4C463C" d="M120.018,523.181c-0.432,0.222-0.864,0.441-1.296,0.662C119.153,523.622,119.585,523.401,120.018,523.181z
			"/>
		<path fill="#514A40" d="M200.106,452.117c0.236-0.382,0.473-0.764,0.709-1.145C200.579,451.354,200.343,451.735,200.106,452.117z"
			/>
		<path fill="#2D2827" d="M295.897,531.991c-0.262-0.386-0.523-0.771-0.784-1.157C295.374,531.22,295.636,531.605,295.897,531.991z"
			/>
		<path fill="#BCB7A7" d="M85.239,484.966c-0.16,1.984-0.266,3.295-0.41,5.075C82.705,487.782,82.705,487.782,85.239,484.966z"/>
		<path fill="#B1AA97" d="M394.316,551.336c-0.771,0.991-1.538,1.982-2.836,3.656c-0.579-2.927,0.532-3.793,1.929-4.494
			C393.712,550.777,394.014,551.057,394.316,551.336z"/>
		<path fill="#272323" d="M287.819,456.931c0.354-1.357,0.708-2.717,1.062-4.074C288.712,454.262,289.924,456.028,287.819,456.931z"
			/>
		<path fill="#4C4640" d="M372.972,634.09c1.435,0.248,2.867,0.496,4.302,0.744c-1.196,0.417-3.202-0.549-3.221,1.884
			c-1.351-0.242-2.701-0.482-4.051-0.725C370.992,635.358,371.981,634.725,372.972,634.09z"/>
		<path fill="#E0D9C4" d="M257.766,495.353c0.189-1.585,0.321-2.699,0.514-4.326"/>
		<path fill="#DDD9C7" d="M397.749,639.348c-0.002,0.11-0.002,0.222-0.002,0.331c-0.233-0.059-0.466-0.116-0.699-0.174
			c0.118-0.108,0.221-0.262,0.36-0.311C397.494,639.164,397.635,639.291,397.749,639.348z"/>
		<path fill="#EFE4C6" d="M340.328,628.676c-0.056,0.615-0.111,1.231-0.167,1.849c-0.239,0.004-0.479,0.009-0.719,0.013
			c-0.028-0.64-0.058-1.28-0.085-1.921C339.681,628.636,340.005,628.655,340.328,628.676z"/>
	</g>
</g>
</svg>
